<svg width="184" height="169" viewBox="0 0 184 169" fill="none" xmlns="http://www.w3.org/2000/svg">
<g id="plant-d" clip-path="url(#clip0_80_1613)">
<g id="pot">
<g id="Clip path group">
<mask id="mask0_80_1613" style="mask-type:luminance" maskUnits="userSpaceOnUse" x="58" y="74" width="77" height="95">
<g id="2e7c3389af">
<path id="Vector" d="M58.2705 74.54H134.635V168.766H58.2705V74.54Z" fill="white"/>
</g>
</mask>
<g mask="url(#mask0_80_1613)">
<g id="Group">
<g id="Clip path group_2">
<mask id="mask1_80_1613" style="mask-type:luminance" maskUnits="userSpaceOnUse" x="58" y="74" width="77" height="95">
<g id="f0143bbe56">
<path id="Vector_2" d="M68.6585 74.54H124.247C126.998 74.54 129.642 75.6299 131.589 77.5776C133.537 79.5254 134.635 82.1687 134.635 84.928V158.378C134.635 161.138 133.537 163.781 131.589 165.729C129.642 167.676 126.998 168.766 124.247 168.766H68.6585C65.9069 168.766 63.2636 167.676 61.3158 165.729C59.368 163.781 58.2705 161.138 58.2705 158.378V84.928C58.2705 82.1687 59.368 79.5254 61.3158 77.5776C63.2636 75.6299 65.9069 74.54 68.6585 74.54Z" fill="white"/>
</g>
</mask>
<g mask="url(#mask1_80_1613)">
<g id="Group_2">
<path id="Vector_3" d="M58.2705 74.54H134.635V168.766H58.2705V74.54Z" fill="#D9D9D9"/>
</g>
</g>
</g>
</g>
</g>
</g>
<g id="Clip path group_3">
<mask id="mask2_80_1613" style="mask-type:luminance" maskUnits="userSpaceOnUse" x="97" y="74" width="60" height="92">
<g id="13976b4b4f">
<path id="Vector_4" d="M97.5732 74.5322H156.315V165.675H97.5732V74.5322Z" fill="white"/>
</g>
</mask>
<g mask="url(#mask2_80_1613)">
<g id="Group_3">
<g id="Clip path group_4">
<mask id="mask3_80_1613" style="mask-type:luminance" maskUnits="userSpaceOnUse" x="98" y="74" width="58" height="92">
<g id="c0cbb105ab">
<path id="Vector_5" d="M119.238 160.055L99.5131 98.5545C97.7122 92.9586 98.7015 86.8371 102.164 82.0914C105.627 77.3379 111.153 74.5322 117.035 74.5322H136.853C142.727 74.5322 148.253 77.3379 151.716 82.0914C155.179 86.8371 156.168 92.9586 154.375 98.5545L134.65 160.055C133.576 163.402 130.461 165.675 126.944 165.675C123.427 165.675 120.312 163.402 119.238 160.055Z" fill="white"/>
</g>
</mask>
<g mask="url(#mask3_80_1613)">
<g id="Group_4">
<path id="Vector_6" d="M162.081 184.078H91.8071V74.5322H162.081V184.078Z" fill="#D9D9D9"/>
</g>
</g>
</g>
</g>
</g>
</g>
<g id="Clip path group_5">
<mask id="mask4_80_1613" style="mask-type:luminance" maskUnits="userSpaceOnUse" x="37" y="74" width="56" height="92">
<g id="144f8e3df8">
<path id="Vector_7" d="M37.6875 74.5247H92.9588V165.868H37.6875V74.5247Z" fill="white"/>
</g>
</mask>
<g mask="url(#mask4_80_1613)">
<g id="Group_5">
<g id="Clip path group_6">
<mask id="mask5_80_1613" style="mask-type:luminance" maskUnits="userSpaceOnUse" x="38" y="74" width="54" height="92">
<g id="b1a18a1a48">
<path id="Vector_8" d="M58.0538 160.148L39.5425 98.6783C37.8343 92.9974 38.9087 86.845 42.4486 82.0915C45.9808 77.3303 51.5613 74.5247 57.4973 74.5247H73.1566C79.0849 74.5247 84.6653 77.3303 88.2053 82.0915C91.7452 86.845 92.8196 92.9974 91.1115 98.6783L72.6001 160.148C71.634 163.356 68.6737 165.559 65.327 165.559C61.9725 165.559 59.02 163.356 58.0538 160.148Z" fill="white"/>
</g>
</mask>
<g mask="url(#mask5_80_1613)">
<g id="Group_6">
<path id="Vector_9" d="M98.3848 184.31H32.2695V74.5247H98.3848V184.31Z" fill="#D9D9D9"/>
</g>
</g>
</g>
</g>
</g>
</g>
<g id="Clip path group_7">
<mask id="mask6_80_1613" style="mask-type:luminance" maskUnits="userSpaceOnUse" x="32" y="70" width="129" height="30">
<g id="ae78bb5907">
<path id="Vector_10" d="M32.2773 70.9614H160.612V99.2734H32.2773V70.9614Z" fill="white"/>
</g>
</mask>
<g mask="url(#mask6_80_1613)">
<g id="Group_7">
<g id="Clip path group_8">
<mask id="mask7_80_1613" style="mask-type:luminance" maskUnits="userSpaceOnUse" x="32" y="70" width="129" height="30">
<g id="66b0d398e3">
<path id="Vector_11" d="M46.4372 70.9614H146.453C154.275 70.9614 160.612 77.2993 160.612 85.1213C160.612 92.9354 154.275 99.2734 146.453 99.2734H46.4372C38.6153 99.2734 32.2773 92.9354 32.2773 85.1213C32.2773 77.2993 38.6153 70.9614 46.4372 70.9614Z" fill="white"/>
</g>
</mask>
<g mask="url(#mask7_80_1613)">
<g id="Group_8">
<path id="Vector_12" d="M32.2773 70.9614H160.612V99.2734H32.2773V70.9614Z" fill="white"/>
</g>
</g>
</g>
</g>
</g>
</g>
</g>
<g id="leaves">
<g id="Clip path group_9">
<mask id="mask8_80_1613" style="mask-type:luminance" maskUnits="userSpaceOnUse" x="100" y="61" width="37" height="42">
<g id="f8446d3ef7">
<path id="Vector_13" d="M100.912 61.3386H136.528V102.891H100.912V61.3386Z" fill="white"/>
</g>
</mask>
<g mask="url(#mask8_80_1613)">
<g id="Group_9">
<g id="Clip path group_10">
<mask id="mask9_80_1613" style="mask-type:luminance" maskUnits="userSpaceOnUse" x="97" y="57" width="42" height="50">
<g id="429c19c5e9">
<path id="Vector_14" d="M97.1865 69.6784L116.494 57.9378L138.893 94.7595L119.586 106.5L97.1865 69.6784Z" fill="white"/>
</g>
</mask>
<g mask="url(#mask9_80_1613)">
<g id="Group_10">
<g id="Clip path group_11">
<mask id="mask10_80_1613" style="mask-type:luminance" maskUnits="userSpaceOnUse" x="101" y="62" width="34" height="41">
<g id="5a8ba9ce45">
<path id="Vector_15" d="M106.84 63.812C109.399 62.2507 112.475 61.7792 115.381 62.4825C118.295 63.1936 120.807 65.0332 122.36 67.5915L133.019 85.1058C134.572 87.6642 135.052 90.7404 134.341 93.6543C133.637 96.5604 131.798 99.0724 129.239 100.626C126.681 102.187 123.605 102.666 120.699 101.955C117.785 101.244 115.273 99.4125 113.719 96.8464L103.061 79.3321C101.499 76.7738 101.028 73.6976 101.731 70.7914C102.442 67.8775 104.282 65.3655 106.84 63.812Z" fill="white"/>
</g>
</mask>
<g mask="url(#mask10_80_1613)">
<g id="Group_11">
<path id="Vector_16" d="M97.1865 69.6784L116.494 57.9378L138.893 94.7595L119.586 106.5L97.1865 69.6784Z" fill="#236646"/>
</g>
</g>
</g>
</g>
</g>
</g>
</g>
</g>
</g>
<g id="Clip path group_12">
<mask id="mask11_80_1613" style="mask-type:luminance" maskUnits="userSpaceOnUse" x="106" y="75" width="33" height="50">
<g id="afa2f77531">
<path id="Vector_17" d="M106.848 75.1895H138.507V124.656H106.848V75.1895Z" fill="white"/>
</g>
</mask>
<g mask="url(#mask11_80_1613)">
<g id="Group_12">
<g id="Clip path group_13">
<mask id="mask12_80_1613" style="mask-type:luminance" maskUnits="userSpaceOnUse" x="107" y="74" width="32" height="50">
<g id="29dcaaa58b">
<path id="Vector_18" d="M107.521 76.1246L136.884 74.888L138.878 122.19L109.515 123.427L107.521 76.1246Z" fill="white"/>
</g>
</mask>
<g mask="url(#mask12_80_1613)">
<g id="Group_13">
<g id="Clip path group_14">
<mask id="mask13_80_1613" style="mask-type:luminance" maskUnits="userSpaceOnUse" x="108" y="75" width="31" height="48">
<g id="7d816ecc70">
<path id="Vector_19" d="M122.206 75.5063C130.314 75.1662 137.162 81.4578 137.502 89.5657L138.259 107.513C138.599 115.621 132.308 122.469 124.2 122.809C116.092 123.149 109.244 116.857 108.896 108.749L108.139 90.8023C107.799 82.6944 114.098 75.8464 122.206 75.5063Z" fill="white"/>
</g>
</mask>
<g mask="url(#mask13_80_1613)">
<g id="Group_14">
<path id="Vector_20" d="M107.521 76.1246L136.884 74.888L138.878 122.19L109.515 123.427L107.521 76.1246Z" fill="#236646"/>
</g>
</g>
</g>
</g>
</g>
</g>
</g>
</g>
</g>
<g id="Clip path group_15">
<mask id="mask14_80_1613" style="mask-type:luminance" maskUnits="userSpaceOnUse" x="110" y="96" width="49" height="47">
<g id="7943aa0d3a">
<path id="Vector_21" d="M110.806 96.9546H158.294V142.464H110.806V96.9546Z" fill="white"/>
</g>
</mask>
<g mask="url(#mask14_80_1613)">
<g id="Group_15">
<g id="Clip path group_16">
<mask id="mask15_80_1613" style="mask-type:luminance" maskUnits="userSpaceOnUse" x="107" y="94" width="58" height="57">
<g id="bb9591e9ba">
<path id="Vector_22" d="M107.072 113.371L125.112 94.0948L164.856 131.295L146.816 150.564L107.072 113.371Z" fill="white"/>
</g>
</mask>
<g mask="url(#mask15_80_1613)">
<g id="Group_16">
<g id="Clip path group_17">
<mask id="mask16_80_1613" style="mask-type:luminance" maskUnits="userSpaceOnUse" x="111" y="98" width="46" height="44">
<g id="6118154cbe">
<path id="Vector_23" d="M156.006 137.309L133.035 102.527C131.45 100.131 128.861 98.6009 126.009 98.3536C123.149 98.114 120.336 99.196 118.38 101.291L113.804 106.175C111.841 108.27 110.952 111.145 111.385 113.982C111.81 116.819 113.519 119.3 116.007 120.722L152.234 141.335C153.378 141.992 154.815 141.768 155.712 140.81C156.609 139.851 156.732 138.398 156.006 137.309Z" fill="white"/>
</g>
</mask>
<g mask="url(#mask16_80_1613)">
<g id="Group_17">
<path id="Vector_24" d="M105.689 114.848L126.488 92.6185L172.948 136.103L152.149 158.324L105.689 114.848Z" fill="#236646"/>
</g>
</g>
</g>
</g>
</g>
</g>
</g>
</g>
</g>
<g id="Clip path group_18">
<mask id="mask17_80_1613" style="mask-type:luminance" maskUnits="userSpaceOnUse" x="31" y="60" width="63" height="30">
<g id="c2a232b084">
<path id="Vector_25" d="M31.6123 60.187H93.2447V89.5733H31.6123V60.187Z" fill="white"/>
</g>
</mask>
<g mask="url(#mask17_80_1613)">
<g id="Group_18">
<g id="Clip path group_19">
<mask id="mask18_80_1613" style="mask-type:luminance" maskUnits="userSpaceOnUse" x="31" y="60" width="63" height="30">
<g id="6852f934d0">
<path id="Vector_26" d="M93.2447 74.8802C93.2447 82.9958 86.6672 89.5733 78.5515 89.5733H46.3055C38.1898 89.5733 31.6123 82.9958 31.6123 74.8802C31.6123 66.7645 38.1898 60.187 46.3055 60.187H78.5515C86.6672 60.187 93.2447 66.7645 93.2447 74.8802Z" fill="white"/>
</g>
</mask>
<g mask="url(#mask18_80_1613)">
<g id="Group_19">
<path id="Vector_27" d="M93.2447 60.187V89.5733H31.6123V60.187H93.2447Z" fill="#236646"/>
</g>
</g>
</g>
</g>
</g>
</g>
<g id="Clip path group_20">
<mask id="mask19_80_1613" style="mask-type:luminance" maskUnits="userSpaceOnUse" x="0" y="63" width="54" height="36">
<g id="6c07408734">
<path id="Vector_28" d="M0 63.3174H53.424V98.9334H0V63.3174Z" fill="white"/>
</g>
</mask>
<g mask="url(#mask19_80_1613)">
<g id="Group_20">
<g id="Clip path group_21">
<mask id="mask20_80_1613" style="mask-type:luminance" maskUnits="userSpaceOnUse" x="-5" y="59" width="61" height="49">
<g id="c181e885ed">
<path id="Vector_29" d="M44.1874 59.9784L55.8121 83.676L6.94831 107.66L-4.68408 83.962L44.1874 59.9784Z" fill="white"/>
</g>
</mask>
<g mask="url(#mask20_80_1613)">
<g id="Group_21">
<g id="Clip path group_22">
<mask id="mask21_80_1613" style="mask-type:luminance" maskUnits="userSpaceOnUse" x="0" y="63" width="53" height="35">
<g id="63d8d33db6">
<path id="Vector_30" d="M4.45969 97.2484L45.1228 88.0971C47.9208 87.471 50.2782 85.5928 51.5149 83.0036C52.7515 80.422 52.7361 77.4076 51.4762 74.8338L48.5237 68.8205C47.2638 66.2467 44.891 64.3917 42.0853 63.7889C39.2796 63.186 36.358 63.9048 34.1474 65.7289L2.025 92.294C1.01248 93.1288 0.703315 94.5509 1.283 95.7335C1.86269 96.9083 3.17665 97.5421 4.45969 97.2484Z" fill="white"/>
</g>
</mask>
<g mask="url(#mask21_80_1613)">
<g id="Group_22">
<path id="Vector_31" d="M43.2909 58.1621L56.701 85.4924L-0.417531 113.518L-13.8276 86.1957L43.2909 58.1621Z" fill="#236646"/>
</g>
</g>
</g>
</g>
</g>
</g>
</g>
</g>
</g>
<g id="Clip path group_23">
<mask id="mask22_80_1613" style="mask-type:luminance" maskUnits="userSpaceOnUse" x="49" y="63" width="43" height="62">
<g id="0baf1f45a6">
<path id="Vector_32" d="M49.4668 63.3174H91.0188V124.656H49.4668V63.3174Z" fill="white"/>
</g>
</mask>
<g mask="url(#mask22_80_1613)">
<g id="Group_23">
<g id="Clip path group_24">
<mask id="mask23_80_1613" style="mask-type:luminance" maskUnits="userSpaceOnUse" x="46" y="60" width="48" height="68">
<g id="4a2b66342f">
<path id="Vector_33" d="M65.2035 60.1948L93.2526 68.9442L74.8958 127.779L46.8467 119.029L65.2035 60.1948Z" fill="white"/>
</g>
</mask>
<g mask="url(#mask23_80_1613)">
<g id="Group_24">
<g id="Clip path group_25">
<mask id="mask24_80_1613" style="mask-type:luminance" maskUnits="userSpaceOnUse" x="50" y="63" width="40" height="62">
<g id="528e7671f1">
<path id="Vector_34" d="M79.2321 64.5695C86.9767 66.9887 91.2973 75.228 88.8781 82.9726L79.2785 113.758C76.8592 121.503 68.6199 125.823 60.8753 123.404C53.123 120.985 48.8024 112.745 51.2216 105.001L60.8289 74.2232C63.2404 66.4709 71.4797 62.1503 79.2321 64.5695Z" fill="white"/>
</g>
</mask>
<g mask="url(#mask24_80_1613)">
<g id="Group_25">
<path id="Vector_35" d="M65.2035 60.1948L93.2526 68.9442L74.8958 127.779L46.8467 119.029L65.2035 60.1948Z" fill="#236646"/>
</g>
</g>
</g>
</g>
</g>
</g>
</g>
</g>
</g>
<g id="Clip path group_26">
<mask id="mask25_80_1613" style="mask-type:luminance" maskUnits="userSpaceOnUse" x="35" y="100" width="43" height="39">
<g id="8f66117e87">
<path id="Vector_36" d="M35.6162 100.912H77.1682V138.507H35.6162V100.912Z" fill="white"/>
</g>
</mask>
<g mask="url(#mask25_80_1613)">
<g id="Group_26">
<g id="Clip path group_27">
<mask id="mask26_80_1613" style="mask-type:luminance" maskUnits="userSpaceOnUse" x="31" y="97" width="50" height="45">
<g id="b328976892">
<path id="Vector_37" d="M66.069 97.426L80.2443 116.911L45.8031 141.977L31.6201 122.499L66.069 97.426Z" fill="white"/>
</g>
</mask>
<g mask="url(#mask26_80_1613)">
<g id="Group_27">
<g id="Clip path group_28">
<mask id="mask27_80_1613" style="mask-type:luminance" maskUnits="userSpaceOnUse" x="36" y="102" width="40" height="36">
<g id="8b3eb86041">
<path id="Vector_38" d="M73.1568 107.165C75.035 109.754 75.8156 112.977 75.3133 116.131C74.8186 119.292 73.0873 122.121 70.5057 123.999L55.5498 134.889C52.9605 136.768 49.7374 137.548 46.5839 137.053C43.4227 136.551 40.5938 134.82 38.7156 132.238C36.8375 129.657 36.0568 126.434 36.5515 123.272C37.0539 120.119 38.7775 117.29 41.3667 115.404L56.3227 104.514C58.9042 102.636 62.135 101.863 65.2885 102.357C68.4497 102.852 71.2786 104.583 73.1568 107.165Z" fill="white"/>
</g>
</mask>
<g mask="url(#mask27_80_1613)">
<g id="Group_28">
<path id="Vector_39" d="M66.069 97.426L80.2443 116.911L45.8031 141.977L31.6201 122.499L66.069 97.426Z" fill="#236646"/>
</g>
</g>
</g>
</g>
</g>
</g>
</g>
</g>
</g>
<g id="Clip path group_29">
<mask id="mask28_80_1613" style="mask-type:luminance" maskUnits="userSpaceOnUse" x="31" y="114" width="29" height="49">
<g id="19cdcda45a">
<path id="Vector_40" d="M31.6587 114.763H59.36V162.251H31.6587V114.763Z" fill="white"/>
</g>
</mask>
<g mask="url(#mask28_80_1613)">
<g id="Group_29">
<g id="Clip path group_30">
<mask id="mask29_80_1613" style="mask-type:luminance" maskUnits="userSpaceOnUse" x="23" y="114" width="38" height="52">
<g id="1e3b497b99">
<path id="Vector_41" d="M35.3917 114.152L60.1482 120.985L47.7892 165.729L23.0327 158.896L35.3917 114.152Z" fill="white"/>
</g>
</mask>
<g mask="url(#mask29_80_1613)">
<g id="Group_30">
<g id="Clip path group_31">
<mask id="mask30_80_1613" style="mask-type:luminance" maskUnits="userSpaceOnUse" x="33" y="116" width="25" height="47">
<g id="61ef3919bd">
<path id="Vector_42" d="M39.1401 160.651L56.3529 131.813C57.7983 129.394 58.0302 126.434 56.979 123.814C55.9278 121.193 53.7173 119.215 50.9966 118.457L44.5428 116.68C41.8221 115.93 38.9082 116.486 36.659 118.194C34.4098 119.91 33.0959 122.569 33.0881 125.39L33.0649 158.974C33.0649 160.442 34.0465 161.733 35.461 162.127C36.8831 162.513 38.3903 161.911 39.1401 160.651Z" fill="white"/>
</g>
</mask>
<g mask="url(#mask30_80_1613)">
<g id="Group_31">
<path id="Vector_43" d="M33.0958 113.518L62.4435 121.618L47.7271 174.896L18.3872 166.795L33.0958 113.518Z" fill="#236646"/>
</g>
</g>
</g>
</g>
</g>
</g>
</g>
</g>
</g>
<g id="Clip path group_32">
<mask id="mask31_80_1613" style="mask-type:luminance" maskUnits="userSpaceOnUse" x="73" y="35" width="28" height="49">
<g id="876fc83206">
<path id="Vector_44" d="M73.2109 35.616H100.912V83.104H73.2109V35.616Z" fill="white"/>
</g>
</mask>
<g mask="url(#mask31_80_1613)">
<g id="Group_32">
<g id="Clip path group_33">
<mask id="mask32_80_1613" style="mask-type:luminance" maskUnits="userSpaceOnUse" x="73" y="36" width="29" height="47">
<g id="9e871eccad">
<path id="Vector_45" d="M73.1338 38.1202L98.3463 36.1957L101.724 80.4838L76.5037 82.4084L73.1338 38.1202Z" fill="white"/>
</g>
</mask>
<g mask="url(#mask32_80_1613)">
<g id="Group_33">
<g id="Clip path group_34">
<mask id="mask33_80_1613" style="mask-type:luminance" maskUnits="userSpaceOnUse" x="74" y="37" width="27" height="45">
<g id="b5d167a263">
<path id="Vector_46" d="M85.74 37.1618C92.704 36.6285 98.7792 41.8457 99.3125 48.8097L100.766 67.8775C101.291 74.8415 96.0817 80.9166 89.1177 81.4499C82.1537 81.9755 76.0786 76.7661 75.5453 69.8021L74.0922 50.7265C73.5589 43.7625 78.7761 37.6874 85.74 37.1618Z" fill="white"/>
</g>
</mask>
<g mask="url(#mask33_80_1613)">
<g id="Group_34">
<path id="Vector_47" d="M73.1338 38.1202L98.3463 36.1957L101.724 80.4838L76.5037 82.4084L73.1338 38.1202Z" fill="#236646"/>
</g>
</g>
</g>
</g>
</g>
</g>
</g>
</g>
</g>
<g id="Clip path group_35">
<mask id="mask34_80_1613" style="mask-type:luminance" maskUnits="userSpaceOnUse" x="71" y="0" width="32" height="64">
<g id="d188de762a">
<path id="Vector_48" d="M71.2324 0H102.891V63.3173H71.2324V0Z" fill="white"/>
</g>
</mask>
<g mask="url(#mask34_80_1613)">
<g id="Group_35">
<g id="Clip path group_36">
<mask id="mask35_80_1613" style="mask-type:luminance" maskUnits="userSpaceOnUse" x="70" y="-2" width="43" height="66">
<g id="0d97d77897">
<path id="Vector_49" d="M96.2361 63.8506L70.583 56.6934L86.9147 -1.85503L112.568 5.30218L96.2361 63.8506Z" fill="white"/>
</g>
</mask>
<g mask="url(#mask35_80_1613)">
<g id="Group_36">
<g id="Clip path group_37">
<mask id="mask36_80_1613" style="mask-type:luminance" maskUnits="userSpaceOnUse" x="73" y="1" width="29" height="61">
<g id="1f98385c8b">
<path id="Vector_50" d="M96.6999 3.25396L74.293 45.6871C72.9404 48.2454 72.8167 51.2753 73.9684 53.9341C75.1123 56.5929 77.3924 58.5948 80.1826 59.3754L86.6365 61.1686C89.419 61.9493 92.4102 61.4237 94.7676 59.7387C97.125 58.0538 98.5935 55.4027 98.7558 52.5119L101.554 4.60656C101.623 3.40081 100.835 2.30327 99.6679 1.97865C98.5008 1.64629 97.2641 2.1796 96.6999 3.25396Z" fill="white"/>
</g>
</mask>
<g mask="url(#mask36_80_1613)">
<g id="Group_37">
<path id="Vector_51" d="M98.0677 64.3607L68.751 56.1833L87.5792 -11.331L116.904 -3.15353L98.0677 64.3607Z" fill="#236646"/>
</g>
</g>
</g>
</g>
</g>
</g>
</g>
</g>
</g>
<g id="Clip path group_38">
<mask id="mask37_80_1613" style="mask-type:luminance" maskUnits="userSpaceOnUse" x="98" y="59" width="49" height="20">
<g id="eea99d1205">
<path id="Vector_52" d="M98.4155 59.1592H146.46V78.1343H98.4155V59.1592Z" fill="white"/>
</g>
</mask>
<g mask="url(#mask37_80_1613)">
<g id="Group_38">
<g id="Clip path group_39">
<mask id="mask38_80_1613" style="mask-type:luminance" maskUnits="userSpaceOnUse" x="98" y="59" width="49" height="20">
<g id="04f8ce5d81">
<path id="Vector_53" d="M146.46 68.6429C146.46 73.8832 142.209 78.1343 136.969 78.1343H107.899C102.667 78.1343 98.4155 73.8832 98.4155 68.6429C98.4155 63.4025 102.667 59.1592 107.899 59.1592H136.969C142.209 59.1592 146.46 63.4025 146.46 68.6429Z" fill="white"/>
</g>
</mask>
<g mask="url(#mask38_80_1613)">
<g id="Group_39">
<path id="Vector_54" d="M146.46 59.1592V78.1343H98.4155V59.1592H146.46Z" fill="#2F895E"/>
</g>
</g>
</g>
</g>
</g>
</g>
<g id="Clip path group_40">
<mask id="mask39_80_1613" style="mask-type:luminance" maskUnits="userSpaceOnUse" x="130" y="59" width="39" height="31">
<g id="fe660fcf47">
<path id="Vector_55" d="M130.592 59.3599H168.186V89.0399H130.592V59.3599Z" fill="white"/>
</g>
</mask>
<g mask="url(#mask39_80_1613)">
<g id="Group_40">
<g id="Clip path group_41">
<mask id="mask40_80_1613" style="mask-type:luminance" maskUnits="userSpaceOnUse" x="129" y="56" width="41" height="35">
<g id="12d5cee6c3">
<path id="Vector_56" d="M129.471 68.6503L137.324 56.9638L169.771 78.7678L161.911 90.462L129.471 68.6503Z" fill="white"/>
</g>
</mask>
<g mask="url(#mask40_80_1613)">
<g id="Group_41">
<g id="Clip path group_42">
<mask id="mask41_80_1613" style="mask-type:luminance" maskUnits="userSpaceOnUse" x="132" y="59" width="36" height="29">
<g id="c5a1956480">
<path id="Vector_57" d="M133.398 62.8071C135.569 59.5763 139.944 58.7184 143.175 60.8903L163.92 74.8414C167.151 77.0056 168.009 81.388 165.837 84.6111C163.673 87.8419 159.29 88.6998 156.067 86.5279L135.314 72.5845C132.084 70.4126 131.226 66.0379 133.398 62.8071Z" fill="white"/>
</g>
</mask>
<g mask="url(#mask41_80_1613)">
<g id="Group_42">
<path id="Vector_58" d="M129.471 68.6503L137.324 56.9638L169.771 78.7678L161.911 90.462L129.471 68.6503Z" fill="#2F895E"/>
</g>
</g>
</g>
</g>
</g>
</g>
</g>
</g>
</g>
<g id="Clip path group_43">
<mask id="mask42_80_1613" style="mask-type:luminance" maskUnits="userSpaceOnUse" x="154" y="73" width="31" height="19">
<g id="01616eeeff">
<path id="Vector_59" d="M154.336 73.2107H184.016V91.0187H154.336V73.2107Z" fill="white"/>
</g>
</mask>
<g mask="url(#mask42_80_1613)">
<g id="Group_43">
<g id="Clip path group_44">
<mask id="mask43_80_1613" style="mask-type:luminance" maskUnits="userSpaceOnUse" x="154" y="73" width="29" height="18">
<g id="629d570f0f">
<path id="Vector_60" d="M154.537 89.3183L155.511 73.2725L182.834 74.9266L181.86 90.9723L154.537 89.3183Z" fill="white"/>
</g>
</mask>
<g mask="url(#mask43_80_1613)">
<g id="Group_44">
<g id="Clip path group_45">
<mask id="mask44_80_1613" style="mask-type:luminance" maskUnits="userSpaceOnUse" x="155" y="74" width="28" height="16">
<g id="246b56ad52">
<path id="Vector_61" d="M180.036 79.6259L165.173 74.5092C162.908 73.7285 160.404 74.0532 158.417 75.3826C156.423 76.712 155.171 78.8994 155.024 81.2954C154.877 83.6837 155.859 86.0025 157.675 87.5715C159.492 89.1328 161.934 89.7511 164.276 89.2487L179.657 85.9638C181.102 85.6546 182.169 84.418 182.254 82.9417C182.347 81.4654 181.442 80.1051 180.036 79.6259Z" fill="white"/>
</g>
</mask>
<g mask="url(#mask44_80_1613)">
<g id="Group_45">
<path id="Vector_62" d="M154.414 91.3588L155.635 71.2243L191.877 73.4194L190.656 93.5539L154.414 91.3588Z" fill="#2F895E"/>
</g>
</g>
</g>
</g>
</g>
</g>
</g>
</g>
</g>
<g id="Clip path group_46">
<mask id="mask45_80_1613" style="mask-type:luminance" maskUnits="userSpaceOnUse" x="98" y="31" width="49" height="45">
<g id="9f616c3be1">
<path id="Vector_63" d="M98.9336 31.6587H146.422V75.1894H98.9336V31.6587Z" fill="white"/>
</g>
</mask>
<g mask="url(#mask45_80_1613)">
<g id="Group_46">
<g id="Clip path group_47">
<mask id="mask46_80_1613" style="mask-type:luminance" maskUnits="userSpaceOnUse" x="94" y="26" width="58" height="54">
<g id="066bcaed99">
<path id="Vector_64" d="M134.835 26.9285L151.074 47.9904L110.775 79.0694L94.5278 58.0074L134.835 26.9285Z" fill="white"/>
</g>
</mask>
<g mask="url(#mask46_80_1613)">
<g id="Group_47">
<g id="Clip path group_48">
<mask id="mask47_80_1613" style="mask-type:luminance" maskUnits="userSpaceOnUse" x="99" y="32" width="47" height="42">
<g id="6c8cbe297d">
<path id="Vector_65" d="M142.959 37.4633C147.442 43.2757 146.36 51.6309 140.547 56.1138L121.31 70.9538C115.489 75.4367 107.142 74.3546 102.651 68.5423C98.1684 62.7222 99.2505 54.3747 105.063 49.8841L124.301 35.0518C130.121 30.5689 138.468 31.6433 142.959 37.4633Z" fill="white"/>
</g>
</mask>
<g mask="url(#mask47_80_1613)">
<g id="Group_48">
<path id="Vector_66" d="M134.835 26.9285L151.074 47.9904L110.775 79.0694L94.5278 58.0074L134.835 26.9285Z" fill="#2F895E"/>
</g>
</g>
</g>
</g>
</g>
</g>
</g>
</g>
</g>
<g id="Clip path group_49">
<mask id="mask48_80_1613" style="mask-type:luminance" maskUnits="userSpaceOnUse" x="122" y="25" width="39" height="33">
<g id="4c2b0cc5ad">
<path id="Vector_67" d="M122.678 25.7227H160.272V57.3813H122.678V25.7227Z" fill="white"/>
</g>
</mask>
<g mask="url(#mask48_80_1613)">
<g id="Group_49">
<g id="Clip path group_50">
<mask id="mask49_80_1613" style="mask-type:luminance" maskUnits="userSpaceOnUse" x="121" y="16" width="45" height="44">
<g id="ce46f4bea6">
<path id="Vector_68" d="M136.096 59.2286L121.202 36.4894L151.075 16.9114L165.969 39.6506L136.096 59.2286Z" fill="white"/>
</g>
</mask>
<g mask="url(#mask49_80_1613)">
<g id="Group_50">
<g id="Clip path group_51">
<mask id="mask50_80_1613" style="mask-type:luminance" maskUnits="userSpaceOnUse" x="124" y="26" width="36" height="30">
<g id="4a16fe1271">
<path id="Vector_69" d="M153.633 26.3719L131.002 31.2413C128.375 31.8055 126.195 33.6219 125.175 36.1029C124.154 38.5917 124.425 41.4129 125.901 43.662L131.397 52.0559C132.873 54.2974 135.354 55.6732 138.036 55.735C140.726 55.7891 143.261 54.5215 144.83 52.3342L158.317 33.5291C159.423 31.9833 159.469 29.9273 158.433 28.3428C157.39 26.7584 155.488 25.9777 153.633 26.3719Z" fill="white"/>
</g>
</mask>
<g mask="url(#mask50_80_1613)">
<g id="Group_51">
<path id="Vector_70" d="M137.904 61.9802L119.393 33.73L155.983 9.75417L174.494 38.0043L137.904 61.9802Z" fill="#2F895E"/>
</g>
</g>
</g>
</g>
</g>
</g>
</g>
</g>
</g>
<g id="Clip path group_52">
<mask id="mask51_80_1613" style="mask-type:luminance" maskUnits="userSpaceOnUse" x="114" y="51" width="65" height="29">
<g id="3790284c28">
<path id="Vector_71" d="M114.763 51.4453H178.08V79.1466H114.763V51.4453Z" fill="white"/>
</g>
</mask>
<g mask="url(#mask51_80_1613)">
<g id="Group_52">
<g id="Clip path group_53">
<mask id="mask52_80_1613" style="mask-type:luminance" maskUnits="userSpaceOnUse" x="114" y="45" width="65" height="35">
<g id="e6dadd4db2">
<path id="Vector_72" d="M117.46 79.7032L114.145 53.0375L174.904 45.4861L178.219 72.1518L117.46 79.7032Z" fill="white"/>
</g>
</mask>
<g mask="url(#mask52_80_1613)">
<g id="Group_53">
<g id="Clip path group_54">
<mask id="mask53_80_1613" style="mask-type:luminance" maskUnits="userSpaceOnUse" x="115" y="52" width="62" height="27">
<g id="1a43242042">
<path id="Vector_73" d="M174.038 56.6084L125.746 52.3187C122.863 52.0637 120.018 53.1226 118.009 55.2094C115.992 57.2963 115.033 60.1716 115.389 63.0468L116.216 69.6939C116.571 72.5692 118.21 75.1275 120.675 76.6579C123.133 78.1805 126.155 78.5129 128.892 77.5622L174.656 61.5706C175.792 61.1764 176.503 60.0402 176.356 58.8422C176.202 57.6441 175.243 56.7166 174.038 56.6084Z" fill="white"/>
</g>
</mask>
<g mask="url(#mask53_80_1613)">
<g id="Group_54">
<path id="Vector_74" d="M117.676 81.4732L113.928 51.2676L183.985 42.5568L187.741 72.7624L117.676 81.4732Z" fill="#236646"/>
</g>
</g>
</g>
</g>
</g>
</g>
</g>
</g>
</g>
<g id="Clip path group_55">
<mask id="mask54_80_1613" style="mask-type:luminance" maskUnits="userSpaceOnUse" x="15" y="65" width="55" height="52">
<g id="fec59f133d">
<path id="Vector_75" d="M15.8291 65.2959H69.2531V116.741H15.8291V65.2959Z" fill="white"/>
</g>
</mask>
<g mask="url(#mask54_80_1613)">
<g id="Group_55">
<g id="Clip path group_56">
<mask id="mask55_80_1613" style="mask-type:luminance" maskUnits="userSpaceOnUse" x="12" y="60" width="62" height="62">
<g id="8594610b99">
<path id="Vector_76" d="M55.9975 60.1869L73.79 77.9794L30.213 121.564L12.4204 103.772L55.9975 60.1869Z" fill="white"/>
</g>
</mask>
<g mask="url(#mask55_80_1613)">
<g id="Group_56">
<g id="Clip path group_57">
<mask id="mask56_80_1613" style="mask-type:luminance" maskUnits="userSpaceOnUse" x="17" y="65" width="52" height="52">
<g id="5e1e81d9b8">
<path id="Vector_77" d="M64.8937 69.0832C69.8095 73.9989 69.8095 81.96 64.8937 86.8757L39.1015 112.668C34.1935 117.576 26.2247 117.576 21.3167 112.668C16.4009 107.752 16.4009 99.7912 21.3167 94.8754L47.1012 69.0832C52.0169 64.1752 59.9857 64.1752 64.8937 69.0832Z" fill="white"/>
</g>
</mask>
<g mask="url(#mask56_80_1613)">
<g id="Group_57">
<path id="Vector_78" d="M55.9975 60.1869L73.79 77.9794L30.213 121.564L12.4204 103.772L55.9975 60.1869Z" fill="#2F895E"/>
</g>
</g>
</g>
</g>
</g>
</g>
</g>
</g>
</g>
<g id="Clip path group_58">
<mask id="mask57_80_1613" style="mask-type:luminance" maskUnits="userSpaceOnUse" x="13" y="92" width="29" height="55">
<g id="00bcb46754">
<path id="Vector_79" d="M13.8506 92.9973H41.5519V146.421H13.8506V92.9973Z" fill="white"/>
</g>
</mask>
<g mask="url(#mask57_80_1613)">
<g id="Group_58">
<g id="Clip path group_59">
<mask id="mask58_80_1613" style="mask-type:luminance" maskUnits="userSpaceOnUse" x="3" y="91" width="40" height="59">
<g id="778ac2cc4d">
<path id="Vector_80" d="M17.5527 91.4515L42.7652 98.4155L28.7754 149.072L3.55518 142.108L17.5527 91.4515Z" fill="white"/>
</g>
</mask>
<g mask="url(#mask58_80_1613)">
<g id="Group_59">
<g id="Clip path group_60">
<mask id="mask59_80_1613" style="mask-type:luminance" maskUnits="userSpaceOnUse" x="14" y="93" width="27" height="53">
<g id="529bb102d3">
<path id="Vector_81" d="M19.5393 144.064L39.0168 109.337C40.4158 106.848 40.5936 103.849 39.4883 101.206C38.3907 98.57 36.1416 96.5836 33.3822 95.8262L26.9284 94.0408C24.1768 93.2833 21.2243 93.8321 18.921 95.5248C16.6254 97.2252 15.2342 99.8917 15.1569 102.752L14.0593 142.549C14.0207 143.902 14.9018 145.1 16.2003 145.455C17.4988 145.811 18.8746 145.239 19.5393 144.064Z" fill="white"/>
</g>
</mask>
<g mask="url(#mask59_80_1613)">
<g id="Group_60">
<path id="Vector_82" d="M15.4893 90.8796L44.8293 98.9875L28.397 158.471L-0.942871 150.371L15.4893 90.8796Z" fill="#2F895E"/>
</g>
</g>
</g>
</g>
</g>
</g>
</g>
</g>
</g>
<g id="Clip path group_61">
<mask id="mask60_80_1613" style="mask-type:luminance" maskUnits="userSpaceOnUse" x="21" y="45" width="49" height="23">
<g id="5f26895316">
<path id="Vector_83" d="M21.7656 45.5093H69.2536V67.2746H21.7656V45.5093Z" fill="white"/>
</g>
</mask>
<g mask="url(#mask60_80_1613)">
<g id="Group_61">
<g id="Clip path group_62">
<mask id="mask61_80_1613" style="mask-type:luminance" maskUnits="userSpaceOnUse" x="20" y="42" width="49" height="25">
<g id="b6805020f8">
<path id="Vector_84" d="M68.5582 47.2097L66.3554 66.8031L20.877 61.6941L23.072 42.1007L68.5582 47.2097Z" fill="white"/>
</g>
</mask>
<g mask="url(#mask61_80_1613)">
<g id="Group_62">
<g id="Clip path group_63">
<mask id="mask62_80_1613" style="mask-type:luminance" maskUnits="userSpaceOnUse" x="22" y="46" width="46" height="20">
<g id="b2f224f0ea">
<path id="Vector_85" d="M23.8064 54.5524L55.1714 64.8863C57.8611 65.7752 60.8059 65.4042 63.1865 63.8738C65.5748 62.3434 67.1439 59.8237 67.4608 57.0103C67.7699 54.1969 66.8038 51.3835 64.8174 49.3661C62.831 47.3488 60.0408 46.3286 57.2273 46.5991L24.3552 49.7217C23.1804 49.8299 22.2451 50.7497 22.1137 51.9168C21.9823 53.0839 22.6934 54.1891 23.8064 54.5524Z" fill="white"/>
</g>
</mask>
<g mask="url(#mask62_80_1613)">
<g id="Group_63">
<path id="Vector_86" d="M68.7515 45.5016L66.1622 68.5113L11.2388 62.3434L13.828 39.3337L68.7515 45.5016Z" fill="#2F895E"/>
</g>
</g>
</g>
</g>
</g>
</g>
</g>
</g>
</g>
<g id="Clip path group_64">
<mask id="mask63_80_1613" style="mask-type:luminance" maskUnits="userSpaceOnUse" x="49" y="45" width="50" height="29">
<g id="ec355d28c8">
<path id="Vector_87" d="M49.4668 45.5093H98.9335V73.2106H49.4668V45.5093Z" fill="white"/>
</g>
</mask>
<g mask="url(#mask63_80_1613)">
<g id="Group_64">
<g id="Clip path group_65">
<mask id="mask64_80_1613" style="mask-type:luminance" maskUnits="userSpaceOnUse" x="48" y="45" width="52" height="29">
<g id="501c91f071">
<path id="Vector_88" d="M48.9951 65.2805L52.4578 45.7875L99.9149 54.2123L96.4522 73.7053L48.9951 65.2805Z" fill="white"/>
</g>
</mask>
<g mask="url(#mask64_80_1613)">
<g id="Group_65">
<g id="Clip path group_66">
<mask id="mask65_80_1613" style="mask-type:luminance" maskUnits="userSpaceOnUse" x="50" y="47" width="49" height="26">
<g id="579072374f">
<path id="Vector_89" d="M50.7266 55.534C51.1826 52.9448 52.6511 50.6492 54.8076 49.1497C56.9563 47.6425 59.6151 47.0551 62.2044 47.5189L90.1685 52.481C92.7578 52.9448 95.0533 54.4133 96.5528 56.562C98.06 58.7107 98.6474 61.3773 98.1836 63.9588C97.7276 66.5404 96.2591 68.8437 94.1104 70.3431C91.9539 71.8426 89.2951 72.43 86.7136 71.974L58.7417 67.0041C56.1602 66.5481 53.8646 65.0795 52.3574 62.9308C50.858 60.7744 50.2705 58.1156 50.7266 55.534Z" fill="white"/>
</g>
</mask>
<g mask="url(#mask65_80_1613)">
<g id="Group_66">
<path id="Vector_90" d="M48.9951 65.2805L52.4578 45.7875L99.9149 54.2123L96.4522 73.7053L48.9951 65.2805Z" fill="#2F895E"/>
</g>
</g>
</g>
</g>
</g>
</g>
</g>
</g>
</g>
<g id="Clip path group_67">
<mask id="mask66_80_1613" style="mask-type:luminance" maskUnits="userSpaceOnUse" x="62" y="55" width="62" height="38">
<g id="eaa5777aab">
<path id="Vector_91" d="M62.4287 55.0085H123.404V92.9588H62.4287V55.0085Z" fill="white"/>
</g>
</mask>
<g mask="url(#mask66_80_1613)">
<g id="Group_67">
<g id="Clip path group_68">
<mask id="mask67_80_1613" style="mask-type:luminance" maskUnits="userSpaceOnUse" x="62" y="55" width="62" height="38">
<g id="9ba876bccb">
<path id="Vector_92" d="M123.404 73.9836C123.404 84.4644 114.902 92.9588 104.429 92.9588H81.4038C70.9231 92.9588 62.4287 84.4644 62.4287 73.9836C62.4287 63.5029 70.9231 55.0085 81.4038 55.0085H104.429C114.902 55.0085 123.404 63.5029 123.404 73.9836Z" fill="white"/>
</g>
</mask>
<g mask="url(#mask67_80_1613)">
<g id="Group_68">
<path id="Vector_93" d="M123.404 55.0085V92.9588H62.4287V55.0085H123.404Z" fill="#236646"/>
</g>
</g>
</g>
</g>
</g>
</g>
<g id="Clip path group_69">
<mask id="mask68_80_1613" style="mask-type:luminance" maskUnits="userSpaceOnUse" x="70" y="52" width="67" height="20">
<g id="39287b469b">
<path id="Vector_94" d="M70.042 52.2646H136.165V71.2398H70.042V52.2646Z" fill="white"/>
</g>
</mask>
<g mask="url(#mask68_80_1613)">
<g id="Group_69">
<g id="Clip path group_70">
<mask id="mask69_80_1613" style="mask-type:luminance" maskUnits="userSpaceOnUse" x="70" y="52" width="67" height="20">
<g id="5591dd6da4">
<path id="Vector_95" d="M136.165 61.7483C136.165 66.9887 131.922 71.2398 126.681 71.2398H79.5257C74.293 71.2398 70.042 66.9887 70.042 61.7483C70.042 56.5157 74.293 52.2646 79.5257 52.2646H126.681C131.922 52.2646 136.165 56.5157 136.165 61.7483Z" fill="white"/>
</g>
</mask>
<g mask="url(#mask69_80_1613)">
<g id="Group_70">
<path id="Vector_96" d="M136.165 52.2646V71.2398H70.042V52.2646H136.165Z" fill="#236646"/>
</g>
</g>
</g>
</g>
</g>
</g>
<g id="Clip path group_71">
<mask id="mask70_80_1613" style="mask-type:luminance" maskUnits="userSpaceOnUse" x="45" y="51" width="39" height="37">
<g id="e73e6eba5d">
<path id="Vector_97" d="M45.5098 51.4453H83.1044V87.0613H45.5098V51.4453Z" fill="white"/>
</g>
</mask>
<g mask="url(#mask70_80_1613)">
<g id="Group_71">
<g id="Clip path group_72">
<mask id="mask71_80_1613" style="mask-type:luminance" maskUnits="userSpaceOnUse" x="39" y="44" width="47" height="46">
<g id="be6029e1c2">
<path id="Vector_98" d="M85.2147 71.5334L67.9478 89.5811L39.6899 62.5367L56.9569 44.4968L85.2147 71.5334Z" fill="white"/>
</g>
</mask>
<g mask="url(#mask71_80_1613)">
<g id="Group_72">
<g id="Clip path group_73">
<mask id="mask72_80_1613" style="mask-type:luminance" maskUnits="userSpaceOnUse" x="47" y="52" width="35" height="34">
<g id="e30cb33a1c">
<path id="Vector_99" d="M47.8054 58.0229L60.3885 81.1253C61.7102 83.56 64.114 85.2141 66.8578 85.5773C69.6017 85.9406 72.3533 84.9745 74.2701 82.9726L78.8999 78.1419C80.809 76.14 81.6514 73.3421 81.1645 70.6214C80.6853 67.893 78.923 65.5665 76.4343 64.353L52.7985 52.8057C51.3145 52.0791 49.5367 52.396 48.4006 53.5863C47.2566 54.7843 47.017 56.5698 47.8054 58.0229Z" fill="white"/>
</g>
</mask>
<g mask="url(#mask72_80_1613)">
<g id="Group_73">
<path id="Vector_100" d="M87.1005 69.5625L66.0617 91.552L31.6128 58.5871L52.6516 36.5976L87.1005 69.5625Z" fill="#236646"/>
</g>
</g>
</g>
</g>
</g>
</g>
</g>
</g>
</g>
<g id="Clip path group_74">
<mask id="mask73_80_1613" style="mask-type:luminance" maskUnits="userSpaceOnUse" x="87" y="23" width="26" height="43">
<g id="dba171c2b0">
<path id="Vector_101" d="M87.0615 23.7439H112.784V65.2959H87.0615V23.7439Z" fill="white"/>
</g>
</mask>
<g mask="url(#mask73_80_1613)">
<g id="Group_74">
<g id="Clip path group_75">
<mask id="mask74_80_1613" style="mask-type:luminance" maskUnits="userSpaceOnUse" x="84" y="21" width="36" height="45">
<g id="7efca3070b">
<path id="Vector_102" d="M109.098 65.5587L84.9517 59.1976L94.9223 21.3788L119.068 27.7399L109.098 65.5587Z" fill="white"/>
</g>
</mask>
<g mask="url(#mask74_80_1613)">
<g id="Group_75">
<g id="Clip path group_76">
<mask id="mask75_80_1613" style="mask-type:luminance" maskUnits="userSpaceOnUse" x="87" y="24" width="25" height="40">
<g id="41806673d3">
<path id="Vector_103" d="M102.806 26.2945L88.6848 48.485C87.1931 50.8192 86.9148 53.7253 87.9196 56.3069C88.9321 58.8807 91.1117 60.8207 93.786 61.5241L100.263 63.2322C102.937 63.9356 105.789 63.325 107.938 61.5782C110.087 59.8314 111.277 57.1648 111.13 54.4055L109.785 28.1341C109.7 26.4878 108.564 25.0811 106.964 24.6637C105.372 24.2386 103.687 24.9033 102.806 26.2945Z" fill="white"/>
</g>
</mask>
<g mask="url(#mask75_80_1613)">
<g id="Group_76">
<path id="Vector_104" d="M111.741 66.262L82.3081 58.5019L94.4584 12.3975L123.891 20.1498L111.741 66.262Z" fill="#2F895E"/>
</g>
</g>
</g>
</g>
</g>
</g>
</g>
</g>
</g>
<g id="Clip path group_77">
<mask id="mask76_80_1613" style="mask-type:luminance" maskUnits="userSpaceOnUse" x="83" y="45" width="30" height="56">
<g id="56c9cd77a1">
<path id="Vector_105" d="M83.104 45.5093H112.784V100.912H83.104V45.5093Z" fill="white"/>
</g>
</mask>
<g mask="url(#mask76_80_1613)">
<g id="Group_77">
<g id="Clip path group_78">
<mask id="mask77_80_1613" style="mask-type:luminance" maskUnits="userSpaceOnUse" x="82" y="45" width="31" height="57">
<g id="53491d2b78">
<path id="Vector_106" d="M87.8651 45.803L112.892 48.4077L107.35 101.608L82.3232 98.9951L87.8651 45.803Z" fill="white"/>
</g>
</mask>
<g mask="url(#mask77_80_1613)">
<g id="Group_78">
<g id="Clip path group_79">
<mask id="mask78_80_1613" style="mask-type:luminance" maskUnits="userSpaceOnUse" x="83" y="47" width="29" height="54">
<g id="e92bf18d1f">
<path id="Vector_107" d="M100.379 47.1092C107.288 47.828 112.305 54.0114 111.586 60.9212L108.649 89.0941C107.93 96.0039 101.747 101.02 94.8367 100.301C87.9268 99.5825 82.9029 93.3992 83.6294 86.4893L86.5665 58.3165C87.2853 51.4066 93.4687 46.3827 100.379 47.1092Z" fill="white"/>
</g>
</mask>
<g mask="url(#mask78_80_1613)">
<g id="Group_79">
<path id="Vector_108" d="M87.8651 45.803L112.892 48.4077L107.35 101.608L82.3232 98.9951L87.8651 45.803Z" fill="#2F895E"/>
</g>
</g>
</g>
</g>
</g>
</g>
</g>
</g>
</g>
<g id="Clip path group_80">
<mask id="mask79_80_1613" style="mask-type:luminance" maskUnits="userSpaceOnUse" x="83" y="81" width="26" height="42">
<g id="df934ec686">
<path id="Vector_109" d="M83.104 81.1252H108.827V122.677H83.104V81.1252Z" fill="white"/>
</g>
</mask>
<g mask="url(#mask79_80_1613)">
<g id="Group_80">
<g id="Clip path group_81">
<mask id="mask80_80_1613" style="mask-type:luminance" maskUnits="userSpaceOnUse" x="80" y="79" width="38" height="47">
<g id="dcd6d2b9de">
<path id="Vector_110" d="M80.8315 88.0274L104.46 79.9582L117.097 116.973L93.4687 125.042L80.8315 88.0274Z" fill="white"/>
</g>
</mask>
<g mask="url(#mask80_80_1613)">
<g id="Group_81">
<g id="Clip path group_82">
<mask id="mask81_80_1613" style="mask-type:luminance" maskUnits="userSpaceOnUse" x="83" y="82" width="25" height="40">
<g id="4625bece10">
<path id="Vector_111" d="M107.814 117.244L107.289 90.9413C107.227 88.1742 105.859 85.6004 103.586 84.0082C101.322 82.4237 98.4309 82.0141 95.8107 82.9107L89.4728 85.0748C86.8526 85.9637 84.8199 88.0583 84.0006 90.7017C83.1736 93.345 83.6605 96.2203 85.3145 98.4463L100.982 119.578C101.963 120.9 103.687 121.441 105.248 120.907C106.809 120.374 107.845 118.89 107.814 117.244Z" fill="white"/>
</g>
</mask>
<g mask="url(#mask81_80_1613)">
<g id="Group_82">
<path id="Vector_112" d="M78.2422 88.9085L107.049 79.0693L122.453 124.192L93.6464 134.031L78.2422 88.9085Z" fill="#2F895E"/>
</g>
</g>
</g>
</g>
</g>
</g>
</g>
</g>
</g>
</g>
</g>
<defs>
<clipPath id="clip0_80_1613">
<rect width="184" height="169" fill="white"/>
</clipPath>
</defs>
</svg>
