<svg width="228" height="196" viewBox="0 0 228 196" fill="none" xmlns="http://www.w3.org/2000/svg">
<g id="plant-b">
<g id="leaves">
<path id="Vector" d="M94.0021 60.4208L97.938 122.496" stroke="#2F895E" stroke-width="4" stroke-linecap="round"/>
<path id="Vector_2" d="M115.693 29.7927L105.873 113.198" stroke="#2F895E" stroke-width="4" stroke-linecap="round"/>
<path id="Vector_3" d="M128.515 50.7041L113.665 108.987" stroke="#2F895E" stroke-width="4" stroke-linecap="round"/>
<path id="Vector_4" d="M165.703 35.5332L119.526 111.697" stroke="#2F895E" stroke-width="4" stroke-linecap="round"/>
<path id="Vector_5" d="M72.8272 56.6396L88.7027 111.038" stroke="#2F895E" stroke-width="4" stroke-linecap="round"/>
<path id="Vector_6" d="M57.0662 58.6619L87.0927 110.121" stroke="#2F895E" stroke-width="4" stroke-linecap="round"/>
<g id="Clip path group">
<mask id="mask0_80_11" style="mask-type:luminance" maskUnits="userSpaceOnUse" x="29" y="22" width="32" height="38">
<g id="559a992e99">
<path id="Vector_7" d="M29.3999 22.7915H60.1999V59.4582H29.3999V22.7915Z" fill="white"/>
</g>
</mask>
<g mask="url(#mask0_80_11)">
<g id="Group">
<g id="Clip path group_2">
<mask id="mask1_80_11" style="mask-type:luminance" maskUnits="userSpaceOnUse" x="24" y="18" width="42" height="46">
<g id="cf2eea2c58">
<path id="Vector_8" d="M24.7078 29.7181L39.4088 18.5863L65.3505 52.8525L50.6494 63.9785L24.7078 29.7181Z" fill="white"/>
</g>
</mask>
<g mask="url(#mask1_80_11)">
<g id="Group_2">
<g id="Clip path group_3">
<mask id="mask2_80_11" style="mask-type:luminance" maskUnits="userSpaceOnUse" x="29" y="23" width="32" height="37">
<g id="2ca6c39aec">
<path id="Vector_9" d="M39.088 24.2181C48.7187 30.9441 55.9833 40.5347 59.8448 51.6321C60.6812 54.0269 59.8734 56.6853 57.851 58.2207C55.8286 59.7504 53.05 59.8019 50.9703 58.3525C41.3396 51.6264 34.075 42.0301 30.2135 30.9384C29.3828 28.5436 30.1849 25.8853 32.2073 24.3498C34.2297 22.8202 37.0083 22.7686 39.088 24.2181Z" fill="white"/>
</g>
</mask>
<g mask="url(#mask2_80_11)">
<g id="Group_3">
<path id="Vector_10" d="M15.4036 20.5915L33.1525 7.15089L74.6603 61.979L56.9114 75.4139L15.4036 20.5915Z" fill="#236646"/>
</g>
</g>
</g>
</g>
</g>
</g>
</g>
</g>
</g>
<g id="Clip path group_4">
<mask id="mask3_80_11" style="mask-type:luminance" maskUnits="userSpaceOnUse" x="3" y="21" width="37" height="24">
<g id="cee4a956cf">
<path id="Vector_11" d="M3 21.325H39.6667V44.7916H3V21.325Z" fill="white"/>
</g>
</mask>
<g mask="url(#mask3_80_11)">
<g id="Group_4">
<g id="Clip path group_5">
<mask id="mask4_80_11" style="mask-type:luminance" maskUnits="userSpaceOnUse" x="1" y="19" width="40" height="28">
<g id="f553a22bf8">
<path id="Vector_12" d="M5.62394 46.3729L1.26978 38.3062L35.7766 19.6749L40.1364 27.7416L5.62394 46.3729Z" fill="white"/>
</g>
</mask>
<g mask="url(#mask4_80_11)">
<g id="Group_5">
<g id="Clip path group_6">
<mask id="mask5_80_11" style="mask-type:luminance" maskUnits="userSpaceOnUse" x="3" y="22" width="36" height="22">
<g id="f93ae0b08b">
<path id="Vector_13" d="M4.27192 38.776C13.4329 31.7692 23.6422 26.2578 34.5276 22.4421C35.8167 21.9895 37.2375 22.5452 37.8849 23.7426C38.5381 24.9458 38.2172 26.4411 37.1344 27.2661C27.9735 34.2786 17.7641 39.79 6.87869 43.6057C5.58963 44.0525 4.16306 43.5025 3.51567 42.2994C2.86827 41.102 3.1891 39.6067 4.27192 38.776Z" fill="white"/>
</g>
</mask>
<g mask="url(#mask5_80_11)">
<g id="Group_6">
<path id="Vector_14" d="M-6.94575 54.1817L-12.1536 44.5338L48.3522 11.8604L53.56 21.514L-6.94575 54.1817Z" fill="#236646"/>
</g>
</g>
</g>
</g>
</g>
</g>
</g>
</g>
</g>
<g id="Clip path group_7">
<mask id="mask6_80_11" style="mask-type:luminance" maskUnits="userSpaceOnUse" x="76" y="21" width="29" height="43">
<g id="fde49856f9">
<path id="Vector_15" d="M76.3333 21.325H104.2V63.8583H76.3333V21.325Z" fill="white"/>
</g>
</mask>
<g mask="url(#mask6_80_11)">
<g id="Group_7">
<g id="Clip path group_8">
<mask id="mask7_80_11" style="mask-type:luminance" maskUnits="userSpaceOnUse" x="72" y="19" width="36" height="46">
<g id="829beffae3">
<path id="Vector_16" d="M72.9072 24.7854L100.018 19.8468L107.299 59.802L80.189 64.7406L72.9072 24.7854Z" fill="white"/>
</g>
</mask>
<g mask="url(#mask7_80_11)">
<g id="Group_8">
<g id="Clip path group_9">
<mask id="mask8_80_11" style="mask-type:luminance" maskUnits="userSpaceOnUse" x="77" y="22" width="26" height="41">
<g id="c4696db05c">
<path id="Vector_17" d="M95.7035 25.7307C102.601 34.1411 104.67 45.5135 101.186 55.8145C100.058 59.1546 97.2045 61.6182 93.7384 62.2484C90.2722 62.8786 86.7373 61.5781 84.503 58.8567C77.6108 50.4406 75.5368 39.0739 79.0201 28.7671C80.1488 25.4328 83.0019 22.9692 86.4681 22.339C89.9342 21.7031 93.4748 23.0036 95.7035 25.7307Z" fill="white"/>
</g>
</mask>
<g mask="url(#mask8_80_11)">
<g id="Group_9">
<path id="Vector_18" d="M67.9399 15.2463L101.307 9.16765L112.267 69.3411L78.8998 75.4197L67.9399 15.2463Z" fill="#236646"/>
</g>
</g>
</g>
</g>
</g>
</g>
</g>
</g>
</g>
<g id="Clip path group_10">
<mask id="mask9_80_11" style="mask-type:luminance" maskUnits="userSpaceOnUse" x="67" y="21" width="45" height="36">
<g id="1b1e686e0c">
<path id="Vector_19" d="M67.5332 21.7317H111.533V56.9718H67.5332V21.7317Z" fill="white"/>
</g>
</mask>
<g mask="url(#mask9_80_11)">
<g id="Group_10">
<g id="Clip path group_11">
<mask id="mask10_80_11" style="mask-type:luminance" maskUnits="userSpaceOnUse" x="67" y="21" width="45" height="36">
<g id="1697b1b914">
<path id="Vector_20" d="M96.1561 53.3567L110.124 31.8723C111.436 29.8557 111.539 27.2833 110.387 25.1635C109.241 23.0494 107.024 21.7317 104.618 21.7317H74.5056C72.0993 21.7317 69.8821 23.0494 68.7363 25.1635C67.5904 27.2833 67.6878 29.8557 68.9998 31.8723L82.9675 53.3567C84.417 55.5853 86.8977 56.9374 89.5618 56.9374C92.2259 56.9374 94.7066 55.5853 96.1561 53.3567Z" fill="white"/>
</g>
</mask>
<g mask="url(#mask10_80_11)">
<g id="Group_11">
<path id="Vector_21" d="M62.4055 21.7317H116.718V63.5031H62.4055V21.7317Z" fill="#236646"/>
</g>
</g>
</g>
</g>
</g>
</g>
<g id="Clip path group_12">
<mask id="mask11_80_11" style="mask-type:luminance" maskUnits="userSpaceOnUse" x="99" y="4" width="38" height="37">
<g id="7f6a057260">
<path id="Vector_22" d="M99.8 4H136.467V40.8042H99.8V4Z" fill="white"/>
</g>
</mask>
<g mask="url(#mask11_80_11)">
<g id="Group_12">
<g id="Clip path group_13">
<mask id="mask12_80_11" style="mask-type:luminance" maskUnits="userSpaceOnUse" x="99" y="4" width="38" height="37">
<g id="ba52ccea67">
<path id="Vector_23" d="M123.748 37.3094L135.573 14.7193C136.759 12.4505 136.679 9.72342 135.349 7.53488C134.026 5.34061 131.648 3.99998 129.088 3.99998H107.185C104.618 3.99998 102.246 5.34061 100.917 7.53488C99.588 9.72342 99.5078 12.4505 100.694 14.7193L112.519 37.3094C113.613 39.3948 115.779 40.7068 118.133 40.7068C120.494 40.7068 122.654 39.3948 123.748 37.3094Z" fill="white"/>
</g>
</mask>
<g mask="url(#mask12_80_11)">
<g id="Group_13">
<path id="Vector_24" d="M95.085 3.99999H141.188V48.0286H95.085V3.99999Z" fill="#236646"/>
</g>
</g>
</g>
</g>
</g>
</g>
<g id="Clip path group_14">
<mask id="mask13_80_11" style="mask-type:luminance" maskUnits="userSpaceOnUse" x="123" y="25" width="24" height="29">
<g id="1763edb2fc">
<path id="Vector_25" d="M123.267 25.7251H146.733V53.5918H123.267V25.7251Z" fill="white"/>
</g>
</mask>
<g mask="url(#mask13_80_11)">
<g id="Group_14">
<g id="Clip path group_15">
<mask id="mask14_80_11" style="mask-type:luminance" maskUnits="userSpaceOnUse" x="118" y="22" width="33" height="35">
<g id="5f4573a8cb">
<path id="Vector_26" d="M138.117 22.6428L150.56 32.7147L131.242 56.5767L118.798 46.5048L138.117 22.6428Z" fill="white"/>
</g>
</mask>
<g mask="url(#mask14_80_11)">
<g id="Group_15">
<g id="Clip path group_16">
<mask id="mask15_80_11" style="mask-type:luminance" maskUnits="userSpaceOnUse" x="123" y="26" width="24" height="27">
<g id="0637f46422">
<path id="Vector_27" d="M145.822 32.6173L145.123 35.0178C143.158 41.7725 138.558 47.4558 132.359 50.7788L130.159 51.9647C128.52 52.8413 126.515 52.6522 125.065 51.4834C123.622 50.309 123.02 48.3897 123.536 46.6022L124.235 44.2017C126.2 37.447 130.8 31.7636 136.999 28.4407L139.199 27.2548C140.838 26.3782 142.843 26.5673 144.293 27.736C145.736 28.9105 146.344 30.8298 145.822 32.6173Z" fill="white"/>
</g>
</mask>
<g mask="url(#mask15_80_11)">
<g id="Group_16">
<path id="Vector_28" d="M141.52 16.0829L156.267 28.0282L127.838 63.1366L113.092 51.1913L141.52 16.0829Z" fill="#236646"/>
</g>
</g>
</g>
</g>
</g>
</g>
</g>
</g>
</g>
<g id="Clip path group_17">
<mask id="mask16_80_11" style="mask-type:luminance" maskUnits="userSpaceOnUse" x="137" y="25" width="40" height="28">
<g id="d8f6ef20ba">
<path id="Vector_29" d="M137.933 25.7251H176.067V52.1251H137.933V25.7251Z" fill="white"/>
</g>
</mask>
<g mask="url(#mask16_80_11)">
<g id="Group_17">
<g id="Clip path group_18">
<mask id="mask17_80_11" style="mask-type:luminance" maskUnits="userSpaceOnUse" x="134" y="21" width="45" height="36">
<g id="1687b06bbb">
<path id="Vector_30" d="M178.868 42.5975L171.082 56.0954L134.788 35.1553L142.568 21.6631L178.868 42.5975Z" fill="white"/>
</g>
</mask>
<g mask="url(#mask17_80_11)">
<g id="Group_18">
<g id="Clip path group_19">
<mask id="mask18_80_11" style="mask-type:luminance" maskUnits="userSpaceOnUse" x="138" y="26" width="38" height="26">
<g id="f5ce5b2c0e">
<path id="Vector_31" d="M169.369 51.5407C158.083 48.5845 147.793 42.6548 139.583 34.3647C138.042 32.8006 137.727 30.4001 138.827 28.4923C139.927 26.5902 142.162 25.6563 144.287 26.2121C155.574 29.1683 165.857 35.1037 174.067 43.3938C175.614 44.9522 175.924 47.3584 174.829 49.2605C173.729 51.1626 171.495 52.0964 169.369 51.5407Z" fill="white"/>
</g>
</mask>
<g mask="url(#mask18_80_11)">
<g id="Group_19">
<path id="Vector_32" d="M191.312 47.9084L181.91 64.2079L122.344 29.8501L131.746 13.5506L191.312 47.9084Z" fill="#236646"/>
</g>
</g>
</g>
</g>
</g>
</g>
</g>
</g>
</g>
<g id="Clip path group_20">
<mask id="mask19_80_11" style="mask-type:luminance" maskUnits="userSpaceOnUse" x="161" y="27" width="65" height="30">
<g id="7fc057912c">
<path id="Vector_33" d="M161.4 27.1917H225.933V56.525H161.4V27.1917Z" fill="white"/>
</g>
</mask>
<g mask="url(#mask19_80_11)">
<g id="Group_20">
<g id="Clip path group_21">
<mask id="mask20_80_11" style="mask-type:luminance" maskUnits="userSpaceOnUse" x="160" y="18" width="70" height="40">
<g id="83ebffbf57">
<path id="Vector_34" d="M223.854 57.3214L160.959 38.1401L166.802 18.9875L229.697 38.1687L223.854 57.3214Z" fill="white"/>
</g>
</mask>
<g mask="url(#mask20_80_11)">
<g id="Group_21">
<g id="Clip path group_22">
<mask id="mask21_80_11" style="mask-type:luminance" maskUnits="userSpaceOnUse" x="161" y="28" width="64" height="29">
<g id="219e1e8ed0">
<path id="Vector_35" d="M186.975 28.8989L164.431 33.2703C163.079 33.5338 162.07 34.6854 162.001 36.0661C161.927 37.4469 162.804 38.7015 164.127 39.1026L220.691 56.3531C222.009 56.7599 223.441 56.2099 224.151 55.0239C224.862 53.838 224.673 52.3198 223.693 51.3458L207.422 35.138C202.066 29.7984 194.406 27.4609 186.975 28.8989Z" fill="white"/>
</g>
</mask>
<g mask="url(#mask21_80_11)">
<g id="Group_22">
<path id="Vector_36" d="M232.264 59.8823L152.554 35.5734L159 14.4443L238.709 38.7531L232.264 59.8823Z" fill="#236646"/>
</g>
</g>
</g>
</g>
</g>
</g>
</g>
</g>
</g>
<g id="Clip path group_23">
<mask id="mask22_80_11" style="mask-type:luminance" maskUnits="userSpaceOnUse" x="32" y="53" width="27" height="29">
<g id="0b6b14bf2c">
<path id="Vector_37" d="M32.3333 53.5916H58.7333V81.4582H32.3333V53.5916Z" fill="white"/>
</g>
</mask>
<g mask="url(#mask22_80_11)">
<g id="Group_23">
<g id="Clip path group_24">
<mask id="mask23_80_11" style="mask-type:luminance" maskUnits="userSpaceOnUse" x="23" y="45" width="38" height="38">
<g id="9578b1db58">
<path id="Vector_38" d="M60.4691 58.8681L36.9852 82.352L23.3154 68.6822L46.7993 45.1983L60.4691 58.8681Z" fill="white"/>
</g>
</mask>
<g mask="url(#mask23_80_11)">
<g id="Group_24">
<g id="Clip path group_25">
<mask id="mask24_80_11" style="mask-type:luminance" maskUnits="userSpaceOnUse" x="32" y="54" width="27" height="27">
<g id="d9de9f8824">
<path id="Vector_39" d="M32.4191 63.7551L32.9576 76.0556C33.0321 77.7801 34.1207 79.2983 35.7305 79.9286C37.3404 80.553 39.1738 80.1692 40.3941 78.9431L57.066 62.277C58.2863 61.0509 58.6701 59.2233 58.0457 57.6134C57.4212 56.0035 55.9029 54.915 54.1727 54.8405L41.8722 54.302C39.3342 54.1874 36.8649 55.1499 35.066 56.9489C33.267 58.7478 32.3045 61.2171 32.4191 63.7551Z" fill="white"/>
</g>
</mask>
<g mask="url(#mask24_80_11)">
<g id="Group_25">
<path id="Vector_40" d="M64.067 55.2759L33.3931 85.9442L16.6467 69.2035L47.3207 38.5296L64.067 55.2759Z" fill="#236646"/>
</g>
</g>
</g>
</g>
</g>
</g>
</g>
</g>
</g>
<g id="Clip path group_26">
<mask id="mask25_80_11" style="mask-type:luminance" maskUnits="userSpaceOnUse" x="45" y="52" width="32" height="11">
<g id="1b559c4c48">
<path id="Vector_41" d="M45.5332 52.125H76.3332V62.3917H45.5332V52.125Z" fill="white"/>
</g>
</mask>
<g mask="url(#mask25_80_11)">
<g id="Group_26">
<g id="Clip path group_27">
<mask id="mask26_80_11" style="mask-type:luminance" maskUnits="userSpaceOnUse" x="46" y="49" width="32" height="16">
<g id="e609659059">
<path id="Vector_42" d="M47.6302 64.2193L46.0203 55.1958L75.5255 49.9365L77.1354 58.9656L47.6302 64.2193Z" fill="white"/>
</g>
</mask>
<g mask="url(#mask26_80_11)">
<g id="Group_27">
<g id="Clip path group_28">
<mask id="mask27_80_11" style="mask-type:luminance" maskUnits="userSpaceOnUse" x="46" y="52" width="31" height="11">
<g id="1b1e21be78">
<path id="Vector_43" d="M48.6729 56.5938C56.5448 53.3568 65.0182 51.8443 73.5203 52.1651C74.838 52.2167 75.9437 53.1792 76.1786 54.4797C76.4078 55.7802 75.7031 57.0635 74.4828 57.5677C66.6109 60.8047 58.1375 62.3115 49.6354 61.9906C48.3177 61.9391 47.212 60.9823 46.9771 59.6818C46.7479 58.3813 47.4526 57.0979 48.6729 56.5938Z" fill="white"/>
</g>
</mask>
<g mask="url(#mask27_80_11)">
<g id="Group_28">
<path id="Vector_44" d="M37.69 66.9062L35.7708 56.1068L85.4655 47.2552L87.3848 58.049L37.69 66.9062Z" fill="#236646"/>
</g>
</g>
</g>
</g>
</g>
</g>
</g>
</g>
</g>
</g>
<g id="pot">
<g id="Clip path group_29">
<mask id="mask28_80_11" style="mask-type:luminance" maskUnits="userSpaceOnUse" x="72" y="111" width="75" height="85">
<g id="7043d4984b">
<path id="Vector_45" d="M72.0935 111.09H146.865V195.744H72.0935V111.09Z" fill="white"/>
</g>
</mask>
<g mask="url(#mask28_80_11)">
<g id="Group_29">
<g id="Clip path group_30">
<mask id="mask29_80_11" style="mask-type:luminance" maskUnits="userSpaceOnUse" x="72" y="111" width="75" height="85">
<g id="91955f3e33">
<path id="Vector_46" d="M79.7935 111.09H139.165C141.204 111.09 143.164 111.897 144.608 113.341C146.051 114.785 146.865 116.744 146.865 118.79V188.044C146.865 190.083 146.051 192.043 144.608 193.486C143.164 194.93 141.204 195.744 139.165 195.744H79.7935C77.7539 195.744 75.7945 194.93 74.3508 193.486C72.907 192.043 72.0935 190.083 72.0935 188.044V118.79C72.0935 116.744 72.907 114.785 74.3508 113.341C75.7945 111.897 77.7539 111.09 79.7935 111.09Z" fill="white"/>
</g>
</mask>
<g mask="url(#mask29_80_11)">
<g id="Group_30">
<path id="Vector_47" d="M72.0935 111.09H146.865V195.744H72.0935V111.09Z" fill="#D9D9D9"/>
</g>
</g>
</g>
</g>
</g>
</g>
<g id="Clip path group_31">
<mask id="mask30_80_11" style="mask-type:luminance" maskUnits="userSpaceOnUse" x="118" y="111" width="47" height="85">
<g id="a6ae064b59">
<path id="Vector_48" d="M118.001 111.078H164.333V195.205H118.001V111.078Z" fill="white"/>
</g>
</mask>
<g mask="url(#mask30_80_11)">
<g id="Group_31">
<g id="Clip path group_32">
<mask id="mask31_80_11" style="mask-type:luminance" maskUnits="userSpaceOnUse" x="118" y="111" width="47" height="85">
<g id="2328639fae">
<path id="Vector_49" d="M136.581 191.395L119.376 129.102C118.19 124.822 119.078 120.228 121.771 116.693C124.458 113.158 128.652 111.078 133.098 111.078H150.027C154.473 111.078 158.661 113.158 161.354 116.693C164.046 120.228 164.929 124.822 163.749 129.102L146.538 191.395C145.919 193.63 143.886 195.182 141.56 195.182C139.239 195.182 137.2 193.63 136.581 191.395Z" fill="white"/>
</g>
</mask>
<g mask="url(#mask31_80_11)">
<g id="Group_32">
<path id="Vector_50" d="M168.727 209.419H114.397V111.078H168.727V209.419Z" fill="#D9D9D9"/>
</g>
</g>
</g>
</g>
</g>
</g>
<g id="Clip path group_33">
<mask id="mask32_80_11" style="mask-type:luminance" maskUnits="userSpaceOnUse" x="55" y="111" width="45" height="83">
<g id="809464e6c4">
<path id="Vector_51" d="M55.7998 111.072H99.7998V193.647H55.7998V111.072Z" fill="white"/>
</g>
</mask>
<g mask="url(#mask32_80_11)">
<g id="Group_33">
<g id="Clip path group_34">
<mask id="mask33_80_11" style="mask-type:luminance" maskUnits="userSpaceOnUse" x="56" y="111" width="44" height="83">
<g id="0a7dcc8c26">
<path id="Vector_52" d="M72.9816 189.963L56.8884 129.148C55.7483 124.834 56.6764 120.227 59.3978 116.687C62.1249 113.146 66.3415 111.072 70.8046 111.072H84.7264C89.1952 111.072 93.4119 113.146 96.1332 116.687C98.8603 120.227 99.7884 124.834 98.6426 129.148L82.5494 189.963C81.9764 192.134 80.0113 193.647 77.7655 193.647C75.5197 193.647 73.5603 192.134 72.9816 189.963Z" fill="white"/>
</g>
</mask>
<g mask="url(#mask33_80_11)">
<g id="Group_34">
<path id="Vector_53" d="M103.426 208.044H52.1045V111.072H103.426V208.044Z" fill="#D9D9D9"/>
</g>
</g>
</g>
</g>
</g>
</g>
<g id="Clip path group_35">
<mask id="mask34_80_11" style="mask-type:luminance" maskUnits="userSpaceOnUse" x="52" y="107" width="116" height="27">
<g id="e6b80c7dc0">
<path id="Vector_54" d="M52.1045 107.875H167.398V133.313H52.1045V107.875Z" fill="white"/>
</g>
</mask>
<g mask="url(#mask34_80_11)">
<g id="Group_35">
<g id="Clip path group_36">
<mask id="mask35_80_11" style="mask-type:luminance" maskUnits="userSpaceOnUse" x="52" y="107" width="116" height="27">
<g id="b397764b69">
<path id="Vector_55" d="M64.8232 107.875H154.679C161.703 107.875 167.398 113.57 167.398 120.594C167.398 127.618 161.703 133.313 154.679 133.313H64.8232C57.7993 133.313 52.1045 127.618 52.1045 120.594C52.1045 113.57 57.7993 107.875 64.8232 107.875Z" fill="white"/>
</g>
</mask>
<g mask="url(#mask35_80_11)">
<g id="Group_36">
<path id="Vector_56" d="M52.1045 107.875H167.398V133.313H52.1045V107.875Z" fill="white"/>
</g>
</g>
</g>
</g>
</g>
</g>
</g>
</g>
</svg>
