<svg width="200" height="213" viewBox="0 0 200 213" fill="none" xmlns="http://www.w3.org/2000/svg">
<g id="plant-c" clip-path="url(#clip0_80_1252)">
<g id="leaves">
<g id="Clip path group">
<mask id="mask0_80_1252" style="mask-type:luminance" maskUnits="userSpaceOnUse" x="85" y="34" width="26" height="92">
<g id="1e624f1ab1">
<path id="Vector" d="M85.3335 34.6667H110.667V125.333H85.3335V34.6667Z" fill="white"/>
</g>
</mask>
<g mask="url(#mask0_80_1252)">
<g id="Group">
<g id="Clip path group_2">
<mask id="mask1_80_1252" style="mask-type:luminance" maskUnits="userSpaceOnUse" x="84" y="34" width="27" height="91">
<g id="4d9cdea57e">
<path id="Vector_2" d="M89.5366 34.8907L110.557 36.0053L105.854 124.719L84.8335 123.604L89.5366 34.8907Z" fill="white"/>
</g>
</mask>
<g mask="url(#mask1_80_1252)">
<g id="Group_2">
<g id="Clip path group_3">
<mask id="mask2_80_1252" style="mask-type:luminance" maskUnits="userSpaceOnUse" x="85" y="35" width="26" height="90">
<g id="95e428a936">
<path id="Vector_3" d="M100.047 35.448C102.834 35.599 105.448 36.849 107.313 38.9219C109.183 41.0001 110.146 43.7292 110 46.5157L106.412 114.208C106.261 117 105.016 119.615 102.938 121.479C100.865 123.344 98.1304 124.313 95.344 124.162C92.5575 124.016 89.9429 122.766 88.0731 120.693C86.2085 118.615 85.2398 115.885 85.3908 113.094L88.9794 45.4011C89.1252 42.6147 90.3752 40.0001 92.4481 38.1355C94.5263 36.2657 97.2606 35.3021 100.047 35.448Z" fill="white"/>
</g>
</mask>
<g mask="url(#mask2_80_1252)">
<g id="Group_3">
<path id="Vector_4" d="M89.5366 34.8907L110.557 36.0053L105.854 124.719L84.8335 123.604L89.5366 34.8907Z" fill="#236646"/>
</g>
</g>
</g>
</g>
</g>
</g>
</g>
</g>
</g>
<g id="Clip path group_4">
<mask id="mask3_80_1252" style="mask-type:luminance" maskUnits="userSpaceOnUse" x="88" y="9" width="31" height="45">
<g id="1b2cc63486">
<path id="Vector_5" d="M88 9.33325H118.667V53.3333H88V9.33325Z" fill="white"/>
</g>
</mask>
<g mask="url(#mask3_80_1252)">
<g id="Group_4">
<g id="Clip path group_5">
<mask id="mask4_80_1252" style="mask-type:luminance" maskUnits="userSpaceOnUse" x="85" y="5" width="42" height="52">
<g id="03c9d1e74c">
<path id="Vector_6" d="M105.818 56.4374L85.4062 46.078L105.964 5.55721L126.375 15.9114L105.818 56.4374Z" fill="white"/>
</g>
</mask>
<g mask="url(#mask4_80_1252)">
<g id="Group_5">
<g id="Clip path group_6">
<mask id="mask5_80_1252" style="mask-type:luminance" maskUnits="userSpaceOnUse" x="89" y="10" width="29" height="43">
<g id="475551dcd0">
<path id="Vector_7" d="M112.469 11.6301L91.3645 36.0416C89.4739 38.2291 88.6978 41.1562 89.2551 43.9895C89.8124 46.8228 91.6405 49.2447 94.2187 50.5468L97.0103 51.9635C99.5832 53.2707 102.614 53.3176 105.229 52.0937C107.844 50.8749 109.75 48.5155 110.401 45.6978L117.63 14.2499C117.937 12.9166 117.297 11.5416 116.073 10.9218C114.854 10.302 113.364 10.5989 112.469 11.6301Z" fill="white"/>
</g>
</mask>
<g mask="url(#mask5_80_1252)">
<g id="Group_6">
<path id="Vector_8" d="M107.708 57.3957L83.5156 45.1197L108.224 -3.58342L132.417 8.69262L107.708 57.3957Z" fill="#236646"/>
</g>
</g>
</g>
</g>
</g>
</g>
</g>
</g>
</g>
<g id="Clip path group_7">
<mask id="mask6_80_1252" style="mask-type:luminance" maskUnits="userSpaceOnUse" x="90" y="41" width="42" height="87">
<g id="f9b1184967">
<path id="Vector_9" d="M90.6667 41.3333H132V128H90.6667V41.3333Z" fill="white"/>
</g>
</mask>
<g mask="url(#mask6_80_1252)">
<g id="Group_7">
<g id="Clip path group_8">
<mask id="mask7_80_1252" style="mask-type:luminance" maskUnits="userSpaceOnUse" x="88" y="39" width="47" height="92">
<g id="a80bfc7f3e">
<path id="Vector_10" d="M114.474 39.0624L134.604 45.203L108.677 130.177L88.5417 124.031L114.474 39.0624Z" fill="white"/>
</g>
</mask>
<g mask="url(#mask7_80_1252)">
<g id="Group_8">
<g id="Clip path group_9">
<mask id="mask8_80_1252" style="mask-type:luminance" maskUnits="userSpaceOnUse" x="91" y="41" width="41" height="87">
<g id="2404cc93cb">
<path id="Vector_11" d="M124.536 42.1353C127.208 42.9478 129.443 44.7916 130.755 47.2551C132.068 49.7187 132.349 52.6041 131.531 55.2707L111.75 120.109C110.932 122.776 109.094 125.016 106.625 126.328C104.161 127.641 101.281 127.917 98.6094 127.104C95.9375 126.286 93.7031 124.448 92.3906 121.984C91.0781 119.521 90.8021 116.635 91.6146 113.963L111.401 49.1301C112.214 46.4582 114.057 44.2239 116.521 42.9114C118.984 41.5989 121.87 41.3176 124.536 42.1353Z" fill="white"/>
</g>
</mask>
<g mask="url(#mask8_80_1252)">
<g id="Group_9">
<path id="Vector_12" d="M114.474 39.0624L134.604 45.203L108.677 130.177L88.5417 124.031L114.474 39.0624Z" fill="#2F895E"/>
</g>
</g>
</g>
</g>
</g>
</g>
</g>
</g>
</g>
<g id="Clip path group_10">
<mask id="mask9_80_1252" style="mask-type:luminance" maskUnits="userSpaceOnUse" x="112" y="10" width="32" height="49">
<g id="612eebf0d3">
<path id="Vector_13" d="M112 10.6667H144V58.6667H112V10.6667Z" fill="white"/>
</g>
</mask>
<g mask="url(#mask9_80_1252)">
<g id="Group_10">
<g id="Clip path group_11">
<mask id="mask10_80_1252" style="mask-type:luminance" maskUnits="userSpaceOnUse" x="109" y="6" width="43" height="57">
<g id="20c06d90ef">
<path id="Vector_14" d="M128.583 62.099L109.037 52.1824L132.141 6.6355L151.688 16.5522L128.583 62.099Z" fill="white"/>
</g>
</mask>
<g mask="url(#mask10_80_1252)">
<g id="Group_11">
<g id="Clip path group_12">
<mask id="mask11_80_1252" style="mask-type:luminance" maskUnits="userSpaceOnUse" x="112" y="11" width="32" height="48">
<g id="084058f1ff">
<path id="Vector_15" d="M138.812 12.2709L114.948 42.0105C113.109 44.3022 112.401 47.2969 113.021 50.1667C113.641 53.0365 115.521 55.4688 118.135 56.7969L119.484 57.4792C122.099 58.8074 125.177 58.8855 127.859 57.6928C130.536 56.4949 132.536 54.1563 133.302 51.323L143.203 14.5001C143.516 13.349 142.974 12.1407 141.911 11.599C140.849 11.0626 139.557 11.3386 138.812 12.2709Z" fill="white"/>
</g>
</mask>
<g mask="url(#mask11_80_1252)">
<g id="Group_12">
<path id="Vector_16" d="M130.182 62.9115L107.438 51.3699L134.948 -2.8593L157.698 8.68237L130.182 62.9115Z" fill="#2F895E"/>
</g>
</g>
</g>
</g>
</g>
</g>
</g>
</g>
</g>
<g id="Clip path group_13">
<mask id="mask12_80_1252" style="mask-type:luminance" maskUnits="userSpaceOnUse" x="68" y="41" width="42" height="87">
<g id="0537ee6f5b">
<path id="Vector_17" d="M68 41.3333H109.333V128H68V41.3333Z" fill="white"/>
</g>
</mask>
<g mask="url(#mask12_80_1252)">
<g id="Group_13">
<g id="Clip path group_14">
<mask id="mask13_80_1252" style="mask-type:luminance" maskUnits="userSpaceOnUse" x="65" y="39" width="47" height="92">
<g id="0fe0688658">
<path id="Vector_18" d="M65.8176 45.0103L85.9947 39.0208L111.276 124.182L91.0937 130.172L65.8176 45.0103Z" fill="white"/>
</g>
</mask>
<g mask="url(#mask13_80_1252)">
<g id="Group_14">
<g id="Clip path group_15">
<mask id="mask14_80_1252" style="mask-type:luminance" maskUnits="userSpaceOnUse" x="68" y="41" width="41" height="87">
<g id="fda7969279">
<path id="Vector_19" d="M75.9061 42.0155C78.5832 41.2187 81.4634 41.5208 83.9166 42.8541C86.3697 44.1822 88.1978 46.4322 88.9895 49.1093L108.281 114.094C109.073 116.771 108.776 119.651 107.443 122.104C106.114 124.562 103.859 126.385 101.187 127.177C98.5103 127.974 95.6301 127.672 93.1718 126.344C90.7186 125.01 88.8957 122.76 88.0989 120.083L68.8124 55.0989C68.0155 52.4218 68.3176 49.5416 69.6457 47.0885C70.9791 44.6353 73.2291 42.8072 75.9061 42.0155Z" fill="white"/>
</g>
</mask>
<g mask="url(#mask14_80_1252)">
<g id="Group_15">
<path id="Vector_20" d="M65.8176 45.0103L85.9947 39.0208L111.276 124.182L91.0937 130.172L65.8176 45.0103Z" fill="#2F895E"/>
</g>
</g>
</g>
</g>
</g>
</g>
</g>
</g>
</g>
<g id="Clip path group_16">
<mask id="mask15_80_1252" style="mask-type:luminance" maskUnits="userSpaceOnUse" x="62" y="0" width="28" height="59">
<g id="f3c10665c3">
<path id="Vector_21" d="M62.6667 0H89.3334V58.6667H62.6667V0Z" fill="white"/>
</g>
</mask>
<g mask="url(#mask15_80_1252)">
<g id="Group_16">
<g id="Clip path group_17">
<mask id="mask16_80_1252" style="mask-type:luminance" maskUnits="userSpaceOnUse" x="53" y="-3" width="38" height="64">
<g id="b4409c263f">
<path id="Vector_22" d="M90.7658 54.4844L69.2085 60.2604L53.8335 2.88021L75.3908 -2.89583L90.7658 54.4844Z" fill="white"/>
</g>
</mask>
<g mask="url(#mask16_80_1252)">
<g id="Group_17">
<g id="Clip path group_18">
<mask id="mask17_80_1252" style="mask-type:luminance" maskUnits="userSpaceOnUse" x="63" y="0" width="26" height="58">
<g id="c2d705c72d">
<path id="Vector_23" d="M63.0471 2.5625L66.719 48.7135C66.9534 51.6719 68.4898 54.3698 70.9117 56.0833C73.3388 57.7917 76.3961 58.3385 79.2607 57.5677L80.719 57.1771C83.5836 56.4115 85.9586 54.4115 87.2034 51.7188C88.4429 49.0208 88.4273 45.9167 87.1513 43.2396L67.2502 1.4375C66.7919 0.47396 65.7138 -0.0260401 64.6825 0.250001C63.6513 0.526043 62.9638 1.5 63.0471 2.5625Z" fill="white"/>
</g>
</mask>
<g mask="url(#mask17_80_1252)">
<g id="Group_18">
<path id="Vector_24" d="M92.3076 54.0729L67.667 60.6771L49.7764 -6.09895L74.417 -12.6979L92.3076 54.0729Z" fill="#2F895E"/>
</g>
</g>
</g>
</g>
</g>
</g>
</g>
</g>
</g>
<g id="Clip path group_19">
<mask id="mask18_80_1252" style="mask-type:luminance" maskUnits="userSpaceOnUse" x="98" y="40" width="57" height="82">
<g id="1417f198f4">
<path id="Vector_25" d="M98.6667 40H154.667V121.333H98.6667V40Z" fill="white"/>
</g>
</mask>
<g mask="url(#mask18_80_1252)">
<g id="Group_19">
<g id="Clip path group_20">
<mask id="mask19_80_1252" style="mask-type:luminance" maskUnits="userSpaceOnUse" x="95" y="37" width="63" height="88">
<g id="d9d039d4cd">
<path id="Vector_26" d="M139.396 37.0729L157.698 47.4688L113.833 124.719L95.5261 114.328L139.396 37.0729Z" fill="white"/>
</g>
</mask>
<g mask="url(#mask19_80_1252)">
<g id="Group_20">
<g id="Clip path group_21">
<mask id="mask20_80_1252" style="mask-type:luminance" maskUnits="userSpaceOnUse" x="99" y="40" width="55" height="81">
<g id="429e9a0cf0">
<path id="Vector_27" d="M148.547 42.2708C150.974 43.651 152.755 45.9375 153.495 48.625C154.24 51.3177 153.88 54.1927 152.5 56.6198L119.031 115.568C117.651 117.995 115.365 119.776 112.672 120.516C109.985 121.26 107.11 120.901 104.677 119.521C102.25 118.146 100.474 115.859 99.7293 113.167C98.9897 110.479 99.3439 107.599 100.724 105.172L134.198 46.224C135.573 43.7969 137.86 42.0208 140.552 41.276C143.245 40.5365 146.12 40.8906 148.547 42.2708Z" fill="white"/>
</g>
</mask>
<g mask="url(#mask20_80_1252)">
<g id="Group_21">
<path id="Vector_28" d="M139.396 37.0729L157.698 47.4688L113.833 124.719L95.5261 114.328L139.396 37.0729Z" fill="#236646"/>
</g>
</g>
</g>
</g>
</g>
</g>
</g>
</g>
</g>
<g id="Clip path group_22">
<mask id="mask21_80_1252" style="mask-type:luminance" maskUnits="userSpaceOnUse" x="136" y="26" width="47" height="32">
<g id="6b312f2a32">
<path id="Vector_29" d="M136 26.6667H182.667V57.3334H136V26.6667Z" fill="white"/>
</g>
</mask>
<g mask="url(#mask21_80_1252)">
<g id="Group_22">
<g id="Clip path group_23">
<mask id="mask22_80_1252" style="mask-type:luminance" maskUnits="userSpaceOnUse" x="133" y="18" width="55" height="43">
<g id="62e1a3eb39">
<path id="Vector_30" d="M143.469 60.797L133.307 40.0522L177.422 18.4428L187.588 39.1876L143.469 60.797Z" fill="white"/>
</g>
</mask>
<g mask="url(#mask22_80_1252)">
<g id="Group_23">
<g id="Clip path group_24">
<mask id="mask23_80_1252" style="mask-type:luminance" maskUnits="userSpaceOnUse" x="136" y="27" width="47" height="31">
<g id="df62b6711b">
<path id="Vector_31" d="M179.229 27.4011L144.109 35.5365C141.281 36.1928 138.901 38.1042 137.651 40.7292C136.401 43.3542 136.422 46.4063 137.698 49.0209L139.078 51.8282C140.354 54.4428 142.755 56.3282 145.594 56.948C148.438 57.573 151.406 56.8647 153.661 55.0313L181.615 32.2709C182.615 31.4532 182.922 30.0522 182.354 28.8907C181.786 27.724 180.49 27.1094 179.229 27.4011Z" fill="white"/>
</g>
</mask>
<g mask="url(#mask23_80_1252)">
<g id="Group_24">
<path id="Vector_32" d="M144.354 62.6042L132.422 38.2449L184.953 12.5105L196.885 36.8751L144.354 62.6042Z" fill="#236646"/>
</g>
</g>
</g>
</g>
</g>
</g>
</g>
</g>
</g>
<g id="Clip path group_25">
<mask id="mask24_80_1252" style="mask-type:luminance" maskUnits="userSpaceOnUse" x="48" y="41" width="54" height="81">
<g id="93539e343c">
<path id="Vector_33" d="M48 41.3333H101.333V121.333H48V41.3333Z" fill="white"/>
</g>
</mask>
<g mask="url(#mask24_80_1252)">
<g id="Group_25">
<g id="Clip path group_26">
<mask id="mask25_80_1252" style="mask-type:luminance" maskUnits="userSpaceOnUse" x="46" y="38" width="58" height="86">
<g id="0a91db4ba0">
<path id="Vector_34" d="M46.4949 46.3541L59.9167 38.7708L103.615 116.12L90.1928 123.703L46.4949 46.3541Z" fill="white"/>
</g>
</mask>
<g mask="url(#mask25_80_1252)">
<g id="Group_26">
<g id="Clip path group_27">
<mask id="mask26_80_1252" style="mask-type:luminance" maskUnits="userSpaceOnUse" x="49" y="41" width="52" height="80">
<g id="fd7316b5a1">
<path id="Vector_35" d="M53.2085 42.5624C56.9116 40.4687 61.6148 41.7759 63.7085 45.4843L99.8231 109.406C101.917 113.114 100.61 117.818 96.9012 119.911C93.1981 122.005 88.495 120.698 86.4012 116.989L50.2866 53.0624C48.1929 49.3593 49.5002 44.6562 53.2085 42.5624Z" fill="white"/>
</g>
</mask>
<g mask="url(#mask26_80_1252)">
<g id="Group_27">
<path id="Vector_36" d="M46.4949 46.3541L59.9167 38.7708L103.615 116.12L90.1928 123.703L46.4949 46.3541Z" fill="#236646"/>
</g>
</g>
</g>
</g>
</g>
</g>
</g>
</g>
</g>
<g id="Clip path group_28">
<mask id="mask27_80_1252" style="mask-type:luminance" maskUnits="userSpaceOnUse" x="30" y="21" width="34" height="35">
<g id="db4c856259">
<path id="Vector_37" d="M30.6667 21.3333H64.0001V55.9999H30.6667V21.3333Z" fill="white"/>
</g>
</mask>
<g mask="url(#mask27_80_1252)">
<g id="Group_28">
<g id="Clip path group_29">
<mask id="mask28_80_1252" style="mask-type:luminance" maskUnits="userSpaceOnUse" x="26" y="17" width="42" height="42">
<g id="1be9bc758a">
<path id="Vector_38" d="M67.047 47.3437L56.2502 58.1405L26.1929 28.0833L36.9897 17.2864L67.047 47.3437Z" fill="white"/>
</g>
</mask>
<g mask="url(#mask28_80_1252)">
<g id="Group_29">
<g id="Clip path group_30">
<mask id="mask29_80_1252" style="mask-type:luminance" maskUnits="userSpaceOnUse" x="31" y="22" width="33" height="33">
<g id="61350ffc0d">
<path id="Vector_39" d="M31.4689 25.3176L50.4949 51.8332C51.7501 53.5832 53.7137 54.6926 55.8595 54.8697C58.0105 55.0468 60.1251 54.2655 61.6512 52.7447C63.172 51.2187 63.9532 49.1041 63.7762 46.953C63.5991 44.8072 62.4897 42.8437 60.7397 41.5884L34.2241 22.5624C33.4428 21.9999 32.3647 22.0884 31.6772 22.7707C30.9949 23.4582 30.9064 24.5312 31.4689 25.3176Z" fill="white"/>
</g>
</mask>
<g mask="url(#mask29_80_1252)">
<g id="Group_30">
<path id="Vector_40" d="M67.7656 46.6301L55.5365 58.8593L18.3594 21.6822L30.5885 9.45303L67.7656 46.6301Z" fill="#236646"/>
</g>
</g>
</g>
</g>
</g>
</g>
</g>
</g>
</g>
<g id="Clip path group_31">
<mask id="mask30_80_1252" style="mask-type:luminance" maskUnits="userSpaceOnUse" x="40" y="60" width="58" height="78">
<g id="c4bc0ff381">
<path id="Vector_41" d="M40 60H97.3333V137.333H40V60Z" fill="white"/>
</g>
</mask>
<g mask="url(#mask30_80_1252)">
<g id="Group_31">
<g id="Clip path group_32">
<mask id="mask31_80_1252" style="mask-type:luminance" maskUnits="userSpaceOnUse" x="38" y="57" width="62" height="84">
<g id="e069dfa6e3">
<path id="Vector_42" d="M38.3645 65.8333L51.2655 57.3906L99.9114 131.729L87.0103 140.172L38.3645 65.8333Z" fill="white"/>
</g>
</mask>
<g mask="url(#mask31_80_1252)">
<g id="Group_32">
<g id="Clip path group_33">
<mask id="mask32_80_1252" style="mask-type:luminance" maskUnits="userSpaceOnUse" x="41" y="60" width="56" height="78">
<g id="c765ea13f7">
<path id="Vector_43" d="M44.8123 61.6146C48.3748 59.2813 53.1508 60.2813 55.4842 63.8438L95.6873 125.276C98.0206 128.839 97.0206 133.62 93.4581 135.948C89.8956 138.281 85.1196 137.281 82.7915 133.719L42.5831 72.2865C40.255 68.724 41.2498 63.9427 44.8123 61.6146Z" fill="white"/>
</g>
</mask>
<g mask="url(#mask32_80_1252)">
<g id="Group_33">
<path id="Vector_44" d="M38.3643 65.8333L51.2653 57.3906L99.9111 131.729L87.0101 140.172L38.3643 65.8333Z" fill="#2F895E"/>
</g>
</g>
</g>
</g>
</g>
</g>
</g>
</g>
</g>
<g id="Clip path group_34">
<mask id="mask33_80_1252" style="mask-type:luminance" maskUnits="userSpaceOnUse" x="24" y="42" width="31" height="33">
<g id="c8934f6a21">
<path id="Vector_45" d="M24 42.6667H54.6667V74.6667H24V42.6667Z" fill="white"/>
</g>
</mask>
<g mask="url(#mask33_80_1252)">
<g id="Group_34">
<g id="Clip path group_35">
<mask id="mask34_80_1252" style="mask-type:luminance" maskUnits="userSpaceOnUse" x="19" y="38" width="39" height="40">
<g id="b16e051f67">
<path id="Vector_46" d="M57.5156 66.448L46.8125 77.1459L19.2188 49.5574L29.9219 38.8542L57.5156 66.448Z" fill="white"/>
</g>
</mask>
<g mask="url(#mask34_80_1252)">
<g id="Group_35">
<g id="Clip path group_36">
<mask id="mask35_80_1252" style="mask-type:luminance" maskUnits="userSpaceOnUse" x="24" y="43" width="31" height="31">
<g id="ae719b6f6a">
<path id="Vector_47" d="M24.4167 47.0053L41.0885 70.8282C42.3177 72.5834 44.2656 73.7084 46.401 73.8959C48.5365 74.0834 50.6458 73.3126 52.1667 71.797C53.6823 70.2813 54.4479 68.172 54.2604 66.0313C54.0729 63.8959 52.9531 61.9532 51.1927 60.724L27.3698 44.0522C26.526 43.4636 25.3854 43.5626 24.6563 44.2865C23.9271 45.0157 23.8281 46.1615 24.4167 47.0053Z" fill="white"/>
</g>
</mask>
<g mask="url(#mask35_80_1252)">
<g id="Group_36">
<path id="Vector_48" d="M58.2813 65.6824L46.0469 77.9115L11.4219 43.2865L23.651 31.0574L58.2813 65.6824Z" fill="#2F895E"/>
</g>
</g>
</g>
</g>
</g>
</g>
</g>
</g>
</g>
<g id="Clip path group_37">
<mask id="mask36_80_1252" style="mask-type:luminance" maskUnits="userSpaceOnUse" x="29" y="77" width="77" height="61">
<g id="0f333adc66">
<path id="Vector_49" d="M29.3335 77.3333H105.333V137.333H29.3335V77.3333Z" fill="white"/>
</g>
</mask>
<g mask="url(#mask36_80_1252)">
<g id="Group_37">
<g id="Clip path group_38">
<mask id="mask37_80_1252" style="mask-type:luminance" maskUnits="userSpaceOnUse" x="26" y="75" width="82" height="66">
<g id="ac0fd0f6ce">
<path id="Vector_50" d="M26.2136 88.1405L35.4324 75.3853L107.443 127.411L98.224 140.167L26.2136 88.1405Z" fill="white"/>
</g>
</mask>
<g mask="url(#mask37_80_1252)">
<g id="Group_38">
<g id="Clip path group_39">
<mask id="mask38_80_1252" style="mask-type:luminance" maskUnits="userSpaceOnUse" x="29" y="78" width="76" height="60">
<g id="d5bc5298eb">
<path id="Vector_51" d="M30.8229 81.7655C33.3698 78.2395 38.2864 77.4478 41.8125 79.9947L101.062 122.802C104.589 125.344 105.38 130.266 102.833 133.786C100.286 137.312 95.3698 138.104 91.8437 135.557L32.5937 92.7499C29.0729 90.2082 28.276 85.2864 30.8229 81.7655Z" fill="white"/>
</g>
</mask>
<g mask="url(#mask38_80_1252)">
<g id="Group_39">
<path id="Vector_52" d="M26.2136 88.1405L35.4324 75.3853L107.443 127.411L98.224 140.167L26.2136 88.1405Z" fill="#236646"/>
</g>
</g>
</g>
</g>
</g>
</g>
</g>
</g>
</g>
<g id="Clip path group_40">
<mask id="mask39_80_1252" style="mask-type:luminance" maskUnits="userSpaceOnUse" x="0" y="77" width="44" height="17">
<g id="4c81093ee6">
<path id="Vector_53" d="M0 77.3333H44V93.3333H0V77.3333Z" fill="white"/>
</g>
</mask>
<g mask="url(#mask39_80_1252)">
<g id="Group_40">
<g id="Clip path group_41">
<mask id="mask40_80_1252" style="mask-type:luminance" maskUnits="userSpaceOnUse" x="0" y="77" width="44" height="20">
<g id="0b9260d91f">
<path id="Vector_54" d="M42.1822 77.2239L43.7291 92.4114L1.82804 96.6718L0.286377 81.4791L42.1822 77.2239Z" fill="white"/>
</g>
</mask>
<g mask="url(#mask40_80_1252)">
<g id="Group_41">
<g id="Clip path group_42">
<mask id="mask41_80_1252" style="mask-type:luminance" maskUnits="userSpaceOnUse" x="1" y="78" width="42" height="15">
<g id="da5035ef50">
<path id="Vector_55" d="M3.11452 90.8437L35.1979 92.8749C37.3489 93.0103 39.4479 92.1978 40.9426 90.6458C42.4374 89.0937 43.1718 86.9635 42.9531 84.8176C42.7395 82.677 41.5885 80.7343 39.8124 79.5155C38.0364 78.2968 35.8124 77.9218 33.7343 78.4843L2.71869 86.9322C1.78119 87.1874 1.1614 88.0833 1.26035 89.0572C1.35931 90.026 2.14577 90.7812 3.11452 90.8437Z" fill="white"/>
</g>
</mask>
<g mask="url(#mask41_80_1252)">
<g id="Group_42">
<path id="Vector_56" d="M42.0781 76.2135L43.8281 93.4218L-7.98437 98.6874L-9.73438 81.4791L42.0781 76.2135Z" fill="#236646"/>
</g>
</g>
</g>
</g>
</g>
</g>
</g>
</g>
</g>
<g id="Clip path group_43">
<mask id="mask42_80_1252" style="mask-type:luminance" maskUnits="userSpaceOnUse" x="101" y="53" width="62" height="78">
<g id="0c5efd53be">
<path id="Vector_57" d="M101.333 53.3333H162.667V130.667H101.333V53.3333Z" fill="white"/>
</g>
</mask>
<g mask="url(#mask42_80_1252)">
<g id="Group_43">
<g id="Clip path group_44">
<mask id="mask43_80_1252" style="mask-type:luminance" maskUnits="userSpaceOnUse" x="97" y="50" width="70" height="85">
<g id="8e1932261e">
<path id="Vector_58" d="M149.688 50.4374L166.709 62.8228L114.443 134.661L97.4221 122.276L149.688 50.4374Z" fill="white"/>
</g>
</mask>
<g mask="url(#mask43_80_1252)">
<g id="Group_44">
<g id="Clip path group_45">
<mask id="mask44_80_1252" style="mask-type:luminance" maskUnits="userSpaceOnUse" x="101" y="54" width="62" height="77">
<g id="f7bfc56fdf">
<path id="Vector_59" d="M158.198 56.6301C160.453 58.2707 161.969 60.7447 162.401 63.4999C162.833 66.2603 162.156 69.078 160.516 71.3332L120.636 126.151C118.99 128.406 116.521 129.917 113.761 130.354C111.005 130.786 108.188 130.109 105.932 128.469C103.672 126.823 102.162 124.354 101.724 121.594C101.292 118.838 101.969 116.021 103.615 113.766L143.495 58.9478C145.136 56.6926 147.609 55.1822 150.365 54.7447C153.125 54.3124 155.938 54.9895 158.198 56.6301Z" fill="white"/>
</g>
</mask>
<g mask="url(#mask44_80_1252)">
<g id="Group_45">
<path id="Vector_60" d="M149.688 50.4374L166.708 62.8228L114.443 134.661L97.4219 122.276L149.688 50.4374Z" fill="#2F895E"/>
</g>
</g>
</g>
</g>
</g>
</g>
</g>
</g>
</g>
<g id="Clip path group_46">
<mask id="mask45_80_1252" style="mask-type:luminance" maskUnits="userSpaceOnUse" x="144" y="48" width="44" height="26">
<g id="ab6e9791b7">
<path id="Vector_61" d="M144 48H188V73.3333H144V48Z" fill="white"/>
</g>
</mask>
<g mask="url(#mask45_80_1252)">
<g id="Group_46">
<g id="Clip path group_47">
<mask id="mask46_80_1252" style="mask-type:luminance" maskUnits="userSpaceOnUse" x="142" y="39" width="50" height="38">
<g id="c03b6859bc">
<path id="Vector_62" d="M150.052 76.0625L142.193 54.7865L183.516 39.5208L191.375 60.7917L150.052 76.0625Z" fill="white"/>
</g>
</mask>
<g mask="url(#mask46_80_1252)">
<g id="Group_47">
<g id="Clip path group_48">
<mask id="mask47_80_1252" style="mask-type:luminance" maskUnits="userSpaceOnUse" x="145" y="48" width="43" height="25">
<g id="2c7eff3933">
<path id="Vector_63" d="M184.089 48.2344L153.359 51.4531C150.495 51.75 147.927 53.3594 146.412 55.8021C144.891 58.2448 144.583 61.2552 145.583 63.9583L146.667 66.8906C147.662 69.5938 149.854 71.6823 152.599 72.5521C155.344 73.4167 158.333 72.974 160.703 71.3385L186.146 53.7969C187.297 53.0052 187.761 51.5313 187.276 50.2188C186.792 48.9063 185.479 48.0886 184.089 48.2344Z" fill="white"/>
</g>
</mask>
<g mask="url(#mask47_80_1252)">
<g id="Group_48">
<path id="Vector_64" d="M150.823 78.151L141.422 52.7031L191.323 34.2656L200.724 59.7083L150.823 78.151Z" fill="#2F895E"/>
</g>
</g>
</g>
</g>
</g>
</g>
</g>
</g>
</g>
<g id="Clip path group_49">
<mask id="mask48_80_1252" style="mask-type:luminance" maskUnits="userSpaceOnUse" x="109" y="77" width="42" height="87">
<g id="10463ca88b">
<path id="Vector_65" d="M109.333 77.3333H150.667V164H109.333V77.3333Z" fill="white"/>
</g>
</mask>
<g mask="url(#mask48_80_1252)">
<g id="Group_49">
<g id="Clip path group_50">
<mask id="mask49_80_1252" style="mask-type:luminance" maskUnits="userSpaceOnUse" x="107" y="75" width="46" height="92">
<g id="d4fc5a5a36">
<path id="Vector_66" d="M132.031 75.2551L152.26 81.0676L127.714 166.448L107.484 160.635L132.031 75.2551Z" fill="white"/>
</g>
</mask>
<g mask="url(#mask49_80_1252)">
<g id="Group_50">
<g id="Clip path group_51">
<mask id="mask50_80_1252" style="mask-type:luminance" maskUnits="userSpaceOnUse" x="109" y="77" width="41" height="87">
<g id="9e9074dcad">
<path id="Vector_67" d="M142.146 78.1614C144.828 78.9322 147.094 80.7395 148.442 83.1822C149.797 85.6249 150.125 88.5051 149.349 91.1874L130.625 156.333C129.854 159.016 128.047 161.286 125.604 162.635C123.161 163.99 120.281 164.312 117.599 163.542C114.916 162.771 112.651 160.963 111.297 158.521C109.948 156.083 109.62 153.203 110.39 150.521L129.12 85.3697C129.89 82.6874 131.698 80.4218 134.14 79.0676C136.583 77.7187 139.463 77.3906 142.146 78.1614Z" fill="white"/>
</g>
</mask>
<g mask="url(#mask50_80_1252)">
<g id="Group_51">
<path id="Vector_68" d="M132.031 75.2551L152.26 81.0676L127.714 166.448L107.484 160.635L132.031 75.2551Z" fill="#236646"/>
</g>
</g>
</g>
</g>
</g>
</g>
</g>
</g>
</g>
<g id="Clip path group_52">
<mask id="mask51_80_1252" style="mask-type:luminance" maskUnits="userSpaceOnUse" x="129" y="70" width="54" height="29">
<g id="7fe6e64907">
<path id="Vector_69" d="M129.333 70.6667H182.667V98.6667H129.333V70.6667Z" fill="white"/>
</g>
</mask>
<g mask="url(#mask51_80_1252)">
<g id="Group_52">
<g id="Clip path group_53">
<mask id="mask52_80_1252" style="mask-type:luminance" maskUnits="userSpaceOnUse" x="127" y="62" width="59" height="40">
<g id="75ca764da1">
<path id="Vector_70" d="M135.255 101.359L127.734 80.5574L178.354 62.2657L185.875 83.0678L135.255 101.359Z" fill="white"/>
</g>
</mask>
<g mask="url(#mask52_80_1252)">
<g id="Group_53">
<g id="Clip path group_54">
<mask id="mask53_80_1252" style="mask-type:luminance" maskUnits="userSpaceOnUse" x="130" y="71" width="53" height="28">
<g id="fea0c5cc09">
<path id="Vector_71" d="M179.344 71.1563L139.026 77.1876C136.115 77.6251 133.547 79.3438 132.036 81.8751C130.531 84.4063 130.234 87.4792 131.234 90.2501L131.75 91.672C132.75 94.4428 134.943 96.6147 137.719 97.599C140.5 98.5782 143.573 98.2605 146.089 96.7345L180.953 75.599C181.932 75.0053 182.359 73.797 181.969 72.7188C181.578 71.6407 180.479 70.9845 179.344 71.1563Z" fill="white"/>
</g>
</mask>
<g mask="url(#mask53_80_1252)">
<g id="Group_54">
<path id="Vector_72" d="M135.828 102.953L127.156 78.9636L186.875 57.3803L195.547 81.3751L135.828 102.953Z" fill="#236646"/>
</g>
</g>
</g>
</g>
</g>
</g>
</g>
</g>
</g>
<g id="Clip path group_55">
<mask id="mask54_80_1252" style="mask-type:luminance" maskUnits="userSpaceOnUse" x="89" y="88" width="82" height="55">
<g id="47347c0679">
<path id="Vector_73" d="M89.3335 88H170.667V142.667H89.3335V88Z" fill="white"/>
</g>
</mask>
<g mask="url(#mask54_80_1252)">
<g id="Group_55">
<g id="Clip path group_56">
<mask id="mask55_80_1252" style="mask-type:luminance" maskUnits="userSpaceOnUse" x="85" y="84" width="89" height="62">
<g id="3f2ff4f405">
<path id="Vector_74" d="M163.703 84.6146L173.854 103.057L96.0314 145.901L85.8804 127.464L163.703 84.6146Z" fill="white"/>
</g>
</mask>
<g mask="url(#mask55_80_1252)">
<g id="Group_56">
<g id="Clip path group_57">
<mask id="mask56_80_1252" style="mask-type:luminance" maskUnits="userSpaceOnUse" x="89" y="88" width="82" height="55">
<g id="04afcf7418">
<path id="Vector_75" d="M168.781 93.8385C170.125 96.2813 170.448 99.1615 169.667 101.844C168.891 104.526 167.084 106.786 164.636 108.135L105.255 140.828C102.807 142.172 99.9273 142.495 97.245 141.719C94.5679 140.938 92.3023 139.13 90.9585 136.682C89.6096 134.24 89.2919 131.359 90.0679 128.677C90.8439 125.995 92.6564 123.734 95.0991 122.385L154.485 89.6927C156.927 88.349 159.807 88.026 162.49 88.8021C165.172 89.5833 167.432 91.3906 168.781 93.8385Z" fill="white"/>
</g>
</mask>
<g mask="url(#mask56_80_1252)">
<g id="Group_57">
<path id="Vector_76" d="M163.703 84.6146L173.854 103.057L96.0314 145.901L85.8804 127.464L163.703 84.6146Z" fill="#2F895E"/>
</g>
</g>
</g>
</g>
</g>
</g>
</g>
</g>
</g>
<g id="Clip path group_58">
<mask id="mask57_80_1252" style="mask-type:luminance" maskUnits="userSpaceOnUse" x="153" y="86" width="47" height="30">
<g id="8fa2cdeb88">
<path id="Vector_77" d="M153.333 86.6667H200V116H153.333V86.6667Z" fill="white"/>
</g>
</mask>
<g mask="url(#mask57_80_1252)">
<g id="Group_58">
<g id="Clip path group_59">
<mask id="mask58_80_1252" style="mask-type:luminance" maskUnits="userSpaceOnUse" x="150" y="84" width="54" height="38">
<g id="65946c6e2b">
<path id="Vector_78" d="M150.812 99.224L157.964 84.5678L203.109 106.599L195.958 121.255L150.812 99.224Z" fill="white"/>
</g>
</mask>
<g mask="url(#mask58_80_1252)">
<g id="Group_59">
<g id="Clip path group_60">
<mask id="mask59_80_1252" style="mask-type:luminance" maskUnits="userSpaceOnUse" x="153" y="87" width="47" height="28">
<g id="a9b6e075f3">
<path id="Vector_79" d="M198.776 111.552L165.932 88.8699C164.047 87.5678 161.682 87.1511 159.464 87.7345C157.245 88.3178 155.391 89.8386 154.386 91.8959C153.38 93.9584 153.323 96.3543 154.229 98.4636C155.141 100.568 156.917 102.177 159.109 102.859L197.198 114.787C198.057 115.057 198.984 114.656 199.375 113.849C199.771 113.042 199.516 112.068 198.776 111.552Z" fill="white"/>
</g>
</mask>
<g mask="url(#mask59_80_1252)">
<g id="Group_60">
<path id="Vector_80" d="M150.37 100.125L158.401 83.672L212.667 110.146L204.636 126.599L150.37 100.125Z" fill="#2F895E"/>
</g>
</g>
</g>
</g>
</g>
</g>
</g>
</g>
</g>
</g>
<g id="pot">
<g id="Clip path group_61">
<mask id="mask60_80_1252" style="mask-type:luminance" maskUnits="userSpaceOnUse" x="67" y="118" width="77" height="95">
<g id="aa1a1cfcee">
<path id="Vector_81" d="M67.7085 118.76H143.849V212.714H67.7085V118.76Z" fill="white"/>
</g>
</mask>
<g mask="url(#mask60_80_1252)">
<g id="Group_61">
<g id="Clip path group_62">
<mask id="mask61_80_1252" style="mask-type:luminance" maskUnits="userSpaceOnUse" x="67" y="118" width="77" height="95">
<g id="4699a290cf">
<path id="Vector_82" d="M74.7085 118.76H136.849C140.714 118.76 143.849 121.891 143.849 125.76V205.714C143.849 209.578 140.714 212.714 136.849 212.714H74.7085C70.8439 212.714 67.7085 209.578 67.7085 205.714V125.76C67.7085 121.891 70.8439 118.76 74.7085 118.76Z" fill="white"/>
</g>
</mask>
<g mask="url(#mask61_80_1252)">
<g id="Group_62">
<path id="Vector_83" d="M67.7085 118.76H143.849V212.714H67.7085V118.76Z" fill="#D9D9D9"/>
</g>
</g>
</g>
</g>
</g>
</g>
<g id="Clip path group_63">
<mask id="mask62_80_1252" style="mask-type:luminance" maskUnits="userSpaceOnUse" x="114" y="118" width="54" height="92">
<g id="404c37af20">
<path id="Vector_84" d="M114.667 118.745H167.688V209.75H114.667V118.745Z" fill="white"/>
</g>
</mask>
<g mask="url(#mask62_80_1252)">
<g id="Group_63">
<g id="Clip path group_64">
<mask id="mask63_80_1252" style="mask-type:luminance" maskUnits="userSpaceOnUse" x="115" y="118" width="52" height="92">
<g id="8507c1f0d7">
<path id="Vector_85" d="M136.318 205.969L115.678 135.068C114.553 131.214 115.308 127.057 117.719 123.849C120.131 120.635 123.907 118.745 127.922 118.745H154.224C158.24 118.745 162.016 120.635 164.428 123.849C166.834 127.057 167.594 131.214 166.469 135.068L145.823 205.969C145.209 208.078 143.276 209.531 141.073 209.531C138.87 209.531 136.938 208.078 136.318 205.969Z" fill="white"/>
</g>
</mask>
<g mask="url(#mask63_80_1252)">
<g id="Group_64">
<path id="Vector_86" d="M171.224 222.292H110.922V118.745H171.224V222.292Z" fill="#D9D9D9"/>
</g>
</g>
</g>
</g>
</g>
</g>
<g id="Clip path group_65">
<mask id="mask64_80_1252" style="mask-type:luminance" maskUnits="userSpaceOnUse" x="45" y="118" width="54" height="92">
<g id="70b839bbba">
<path id="Vector_87" d="M45.3335 118.745H98.5575V209.75H45.3335V118.745Z" fill="white"/>
</g>
</mask>
<g mask="url(#mask64_80_1252)">
<g id="Group_65">
<g id="Clip path group_66">
<mask id="mask65_80_1252" style="mask-type:luminance" maskUnits="userSpaceOnUse" x="46" y="118" width="52" height="92">
<g id="0d0ef6f413">
<path id="Vector_88" d="M67.1876 205.969L46.5417 135.068C45.4167 131.214 46.1772 127.057 48.5834 123.849C50.9949 120.635 54.7761 118.745 58.7865 118.745H85.0886C89.1042 118.745 92.8855 120.635 95.2917 123.849C97.7032 127.057 98.4584 131.214 97.3386 135.068L76.6928 205.969C76.0782 208.078 74.1407 209.531 71.9376 209.531C69.7397 209.531 67.8022 208.078 67.1876 205.969Z" fill="white"/>
</g>
</mask>
<g mask="url(#mask65_80_1252)">
<g id="Group_66">
<path id="Vector_89" d="M102.089 222.292H41.7866V118.745H102.089V222.292Z" fill="#D9D9D9"/>
</g>
</g>
</g>
</g>
</g>
</g>
<g id="Clip path group_67">
<mask id="mask66_80_1252" style="mask-type:luminance" maskUnits="userSpaceOnUse" x="41" y="115" width="129" height="29">
<g id="78f2c25f8c">
<path id="Vector_90" d="M41.7917 115.193H169.75V143.427H41.7917V115.193Z" fill="white"/>
</g>
</mask>
<g mask="url(#mask66_80_1252)">
<g id="Group_67">
<g id="Clip path group_68">
<mask id="mask67_80_1252" style="mask-type:luminance" maskUnits="userSpaceOnUse" x="41" y="115" width="129" height="29">
<g id="652c679789">
<path id="Vector_91" d="M55.9063 115.193H155.636C163.432 115.193 169.75 121.516 169.75 129.307C169.75 137.104 163.432 143.427 155.636 143.427H55.9063C48.1147 143.427 41.7917 137.104 41.7917 129.307C41.7917 121.516 48.1147 115.193 55.9063 115.193Z" fill="white"/>
</g>
</mask>
<g mask="url(#mask67_80_1252)">
<g id="Group_68">
<path id="Vector_92" d="M41.7917 115.193H169.75V143.427H41.7917V115.193Z" fill="white"/>
</g>
</g>
</g>
</g>
</g>
</g>
</g>
</g>
<defs>
<clipPath id="clip0_80_1252">
<rect width="200" height="213" fill="white"/>
</clipPath>
</defs>
</svg>
