<svg width="167" height="219" viewBox="0 0 167 219" fill="none" xmlns="http://www.w3.org/2000/svg">
<g id="plant-e">
<g id="pot">
<g id="Clip path group">
<mask id="mask0_80_1827" style="mask-type:luminance" maskUnits="userSpaceOnUse" x="49" y="91" width="81" height="100">
<g id="1254eee4ae">
<path id="Vector" d="M49.7139 91.5188H129.748V190.283H49.7139V91.5188Z" fill="white"/>
</g>
</mask>
<g mask="url(#mask0_80_1827)">
<g id="Group">
<g id="Clip path group_2">
<mask id="mask1_80_1827" style="mask-type:luminance" maskUnits="userSpaceOnUse" x="49" y="91" width="81" height="100">
<g id="dcc8e34dc5">
<path id="Vector_2" d="M58.0439 91.5188H121.418C123.624 91.5188 125.744 92.3989 127.306 93.9608C128.867 95.5227 129.748 97.6423 129.748 99.8488V181.953C129.748 184.165 128.867 186.285 127.306 187.847C125.744 189.409 123.624 190.283 121.418 190.283H58.0439C55.8312 190.283 53.7115 189.409 52.1496 187.847C50.5878 186.285 49.7139 184.165 49.7139 181.953V99.8488C49.7139 97.6423 50.5878 95.5227 52.1496 93.9608C53.7115 92.3989 55.8312 91.5188 58.0439 91.5188Z" fill="white"/>
</g>
</mask>
<g mask="url(#mask1_80_1827)">
<g id="Group_2">
<path id="Vector_3" d="M49.7139 91.5188H129.748V190.283H49.7139V91.5188Z" fill="#D9D9D9"/>
</g>
</g>
</g>
</g>
</g>
</g>
<g id="Clip path group_3">
<mask id="mask2_80_1827" style="mask-type:luminance" maskUnits="userSpaceOnUse" x="99" y="91" width="55" height="95">
<g id="1dd117adfc">
<path id="Vector_4" d="M99.96 91.5063H153.907V185.293H99.96V91.5063Z" fill="white"/>
</g>
</mask>
<g mask="url(#mask2_80_1827)">
<g id="Group_3">
<g id="Clip path group_4">
<mask id="mask3_80_1827" style="mask-type:luminance" maskUnits="userSpaceOnUse" x="100" y="91" width="54" height="95">
<g id="8598539ada">
<path id="Vector_5" d="M121.175 180.924L100.791 110.931C99.458 106.344 100.357 101.398 103.226 97.5741C106.096 93.7562 110.589 91.5064 115.368 91.5064H138.294C143.073 91.5064 147.572 93.7562 150.436 97.5741C153.305 101.398 154.204 106.344 152.872 110.931L132.487 180.924C131.755 183.44 129.45 185.169 126.834 185.169C124.212 185.169 121.907 183.44 121.175 180.924Z" fill="white"/>
</g>
</mask>
<g mask="url(#mask3_80_1827)">
<g id="Group_4">
<path id="Vector_6" d="M158.524 200.348H95.1382V91.5064H158.524V200.348Z" fill="#D9D9D9"/>
</g>
</g>
</g>
</g>
</g>
</g>
<g id="Clip path group_5">
<mask id="mask4_80_1827" style="mask-type:luminance" maskUnits="userSpaceOnUse" x="26" y="91" width="55" height="95">
<g id="5af29b0297">
<path id="Vector_7" d="M26.9736 91.5063H80.9203V185.293H26.9736V91.5063Z" fill="white"/>
</g>
</mask>
<g mask="url(#mask4_80_1827)">
<g id="Group_5">
<g id="Clip path group_6">
<mask id="mask5_80_1827" style="mask-type:luminance" maskUnits="userSpaceOnUse" x="27" y="91" width="54" height="95">
<g id="a34f5ce1d1">
<path id="Vector_8" d="M48.5051 180.924L28.1201 110.931C26.7876 106.344 27.6863 101.398 30.5559 97.5741C33.4193 93.7562 37.919 91.5064 42.6976 91.5064H65.6237C70.4023 91.5064 74.8958 93.7562 77.7654 97.5741C80.6289 101.398 81.5338 106.344 80.195 110.931L59.8163 180.924C59.0849 183.44 56.7793 185.169 54.1576 185.169C51.542 185.169 49.2364 183.44 48.5051 180.924Z" fill="white"/>
</g>
</mask>
<g mask="url(#mask5_80_1827)">
<g id="Group_6">
<path id="Vector_9" d="M85.8539 200.348H22.4678V91.5064H85.8539V200.348Z" fill="#D9D9D9"/>
</g>
</g>
</g>
</g>
</g>
</g>
<g id="Clip path group_7">
<mask id="mask6_80_1827" style="mask-type:luminance" maskUnits="userSpaceOnUse" x="22" y="87" width="135" height="31">
<g id="6082017233">
<path id="Vector_10" d="M22.4678 87.7751H156.975V117.451H22.4678V87.7751Z" fill="white"/>
</g>
</mask>
<g mask="url(#mask6_80_1827)">
<g id="Group_7">
<g id="Clip path group_8">
<mask id="mask7_80_1827" style="mask-type:luminance" maskUnits="userSpaceOnUse" x="22" y="87" width="135" height="31">
<g id="e45854cf64">
<path id="Vector_11" d="M37.3056 87.7751H142.137C150.331 87.7751 156.975 94.4193 156.975 102.613C156.975 110.807 150.331 117.451 142.137 117.451H37.3056C29.1119 117.451 22.4678 110.807 22.4678 102.613C22.4678 94.4193 29.1119 87.7751 37.3056 87.7751Z" fill="white"/>
</g>
</mask>
<g mask="url(#mask7_80_1827)">
<g id="Group_8">
<path id="Vector_12" d="M22.4678 87.7751H156.975V117.451H22.4678V87.7751Z" fill="white"/>
</g>
</g>
</g>
</g>
</g>
</g>
</g>
<g id="leaves">
<path id="Vector_13" d="M120.989 102.037L90.6009 86.765" stroke="#2F895E" stroke-width="4" stroke-linecap="round"/>
<path id="Vector_14" d="M127.981 119.911L121.677 103.028" stroke="#2F895E" stroke-width="4" stroke-linecap="round"/>
<path id="Vector_15" d="M111.531 127.274L112.851 87.1181" stroke="#2F895E" stroke-width="4" stroke-linecap="round"/>
<path id="Vector_16" d="M132.431 147.641L112.356 128.043" stroke="#2F895E" stroke-width="4" stroke-linecap="round"/>
<path id="Vector_17" d="M135.17 162.361L132.654 148.391" stroke="#2F895E" stroke-width="4" stroke-linecap="round"/>
<path id="Vector_18" d="M73.0303 89.2502L66.9997 75.4165" stroke="#2F895E" stroke-width="4" stroke-linecap="round"/>
<path id="Vector_19" d="M60.0332 84.4282L33.8036 62.0661" stroke="#2F895E" stroke-width="4" stroke-linecap="round"/>
<path id="Vector_20" d="M66.5098 89.4299L49.0502 81.7135" stroke="#2F895E" stroke-width="4" stroke-linecap="round"/>
<path id="Vector_21" d="M66.6153 91.4443L58.7191 110.112" stroke="#2F895E" stroke-width="4" stroke-linecap="round"/>
<path id="Vector_22" d="M58.1982 111.396L39.8648 134.687" stroke="#2F895E" stroke-width="4" stroke-linecap="round"/>
<path id="Vector_23" d="M73.7246 85.7671L70.762 116.001" stroke="#2F895E" stroke-width="4" stroke-linecap="round"/>
<path id="Vector_24" d="M94.6733 89.1697L95.4357 93.2789" stroke="#2F895E" stroke-width="4" stroke-linecap="round"/>
<path id="Vector_25" d="M71.9702 101.906L63.6836 146.959" stroke="#2F895E" stroke-width="4" stroke-linecap="round"/>
<path id="Vector_26" d="M64.4956 148.571L72.3793 179.74" stroke="#2F895E" stroke-width="4" stroke-linecap="round"/>
<g id="Clip path group_9">
<mask id="mask8_80_1827" style="mask-type:luminance" maskUnits="userSpaceOnUse" x="93" y="6" width="30" height="43">
<g id="44d342824a">
<path id="Vector_27" d="M93.6133 6H122.173V48.84H93.6133V6Z" fill="white"/>
</g>
</mask>
<g mask="url(#mask8_80_1827)">
<g id="Group_9">
<g id="Clip path group_10">
<mask id="mask9_80_1827" style="mask-type:luminance" maskUnits="userSpaceOnUse" x="90" y="3" width="36" height="48">
<g id="2491d42ac6">
<path id="Vector_28" d="M98.7267 3.87411L125.644 9.22911L117.382 50.7242L90.4648 45.363L98.7267 3.87411Z" fill="white"/>
</g>
</mask>
<g mask="url(#mask9_80_1827)">
<g id="Group_10">
<g id="Clip path group_11">
<mask id="mask10_80_1827" style="mask-type:luminance" maskUnits="userSpaceOnUse" x="95" y="6" width="26" height="43">
<g id="6438e12cf0">
<path id="Vector_29" d="M116.806 10.6236L120.023 20.2056C122.136 26.4965 120.754 33.432 116.397 38.4337L109.753 46.0509C108.309 47.7058 106.084 48.4619 103.927 48.0343C101.77 47.6066 100.004 46.0571 99.3033 43.9684L96.0866 34.3865C93.9731 28.1018 95.3552 21.1601 99.7123 16.1646L106.356 8.54735C107.801 6.8863 110.026 6.13016 112.183 6.55782C114.339 6.98547 116.106 8.54115 116.806 10.6236Z" fill="white"/>
</g>
</mask>
<g mask="url(#mask10_80_1827)">
<g id="Group_11">
<path id="Vector_30" d="M98.014 -2.59031L128.774 3.53324L118.095 57.1824L87.335 51.0589L98.014 -2.59031Z" fill="#236646"/>
</g>
</g>
</g>
</g>
</g>
</g>
</g>
</g>
</g>
<g id="Clip path group_12">
<mask id="mask11_80_1827" style="mask-type:luminance" maskUnits="userSpaceOnUse" x="107" y="45" width="51" height="31">
<g id="ccc151b8e3">
<path id="Vector_31" d="M107.894 45.6665H157.08V75.8132H107.894V45.6665Z" fill="white"/>
</g>
</mask>
<g mask="url(#mask11_80_1827)">
<g id="Group_12">
<g id="Clip path group_13">
<mask id="mask12_80_1827" style="mask-type:luminance" maskUnits="userSpaceOnUse" x="104" y="38" width="58" height="45">
<g id="9369bc625c">
<path id="Vector_32" d="M151.378 38.4459L161.611 64.8862L114.823 82.9966L104.59 56.55L151.378 38.4459Z" fill="white"/>
</g>
</mask>
<g mask="url(#mask12_80_1827)">
<g id="Group_13">
<g id="Clip path group_14">
<mask id="mask13_80_1827" style="mask-type:luminance" maskUnits="userSpaceOnUse" x="109" y="46" width="48" height="29">
<g id="4f7c8bd6c1">
<path id="Vector_33" d="M155.084 58.3846L147.833 66.2188C142.23 72.2804 134.135 75.4165 125.905 74.7037L115.269 73.7926C112.833 73.5819 110.726 72.0014 109.846 69.7206C108.96 67.4398 109.455 64.8552 111.116 63.0579L118.362 55.2175C123.971 49.1559 132.065 46.026 140.296 46.7325L150.932 47.6498C153.368 47.8606 155.469 49.441 156.355 51.7219C157.235 54.0027 156.745 56.5872 155.084 58.3846Z" fill="white"/>
</g>
</mask>
<g mask="url(#mask13_80_1827)">
<g id="Group_14">
<path id="Vector_34" d="M158.122 33.6611L169.817 63.8822L108.073 87.7751L96.3779 57.5541L158.122 33.6611Z" fill="#236646"/>
</g>
</g>
</g>
</g>
</g>
</g>
</g>
</g>
</g>
<g id="Clip path group_15">
<mask id="mask14_80_1827" style="mask-type:luminance" maskUnits="userSpaceOnUse" x="125" y="113" width="42" height="24">
<g id="3e853b2c78">
<path id="Vector_35" d="M125.347 113.893H166.6V136.106H125.347V113.893Z" fill="white"/>
</g>
</mask>
<g mask="url(#mask14_80_1827)">
<g id="Group_15">
<g id="Clip path group_16">
<mask id="mask15_80_1827" style="mask-type:luminance" maskUnits="userSpaceOnUse" x="123" y="111" width="45" height="29">
<g id="7572a534d3">
<path id="Vector_36" d="M167.771 119.477L163.6 139.336L123.872 130.987L128.037 111.129L167.771 119.477Z" fill="white"/>
</g>
</mask>
<g mask="url(#mask15_80_1827)">
<g id="Group_16">
<g id="Clip path group_17">
<mask id="mask16_80_1827" style="mask-type:luminance" maskUnits="userSpaceOnUse" x="125" y="115" width="41" height="20">
<g id="2a6d63b5af">
<path id="Vector_37" d="M162.075 132.914L153.944 134.514C147.231 135.834 140.265 134.371 134.644 130.46L127.844 125.731C126.351 124.69 125.619 122.855 125.991 121.07C126.369 119.285 127.776 117.897 129.561 117.55L137.693 115.951C144.411 114.631 151.378 116.093 156.993 120.004L163.792 124.733C165.292 125.774 166.017 127.609 165.645 129.394C165.274 131.179 163.867 132.567 162.075 132.914Z" fill="white"/>
</g>
</mask>
<g mask="url(#mask16_80_1827)">
<g id="Group_17">
<path id="Vector_38" d="M174.967 119.508L170.201 142.199L116.669 130.956L121.436 108.265L174.967 119.508Z" fill="#236646"/>
</g>
</g>
</g>
</g>
</g>
</g>
</g>
</g>
</g>
<g id="Clip path group_18">
<mask id="mask17_80_1827" style="mask-type:luminance" maskUnits="userSpaceOnUse" x="122" y="161" width="28" height="44">
<g id="1127ca18be">
<path id="Vector_39" d="M122.173 161.493H149.147V204.333H122.173V161.493Z" fill="white"/>
</g>
</mask>
<g mask="url(#mask17_80_1827)">
<g id="Group_18">
<g id="Clip path group_19">
<mask id="mask18_80_1827" style="mask-type:luminance" maskUnits="userSpaceOnUse" x="120" y="160" width="30" height="45">
<g id="1ac1855ad2">
<path id="Vector_40" d="M122.551 160.942L149.965 162.268L147.919 204.525L120.506 203.199L122.551 160.942Z" fill="white"/>
</g>
</mask>
<g mask="url(#mask18_80_1827)">
<g id="Group_19">
<g id="Clip path group_20">
<mask id="mask19_80_1827" style="mask-type:luminance" maskUnits="userSpaceOnUse" x="122" y="161" width="27" height="43">
<g id="6386ef0bb0">
<path id="Vector_41" d="M141.43 164.952L146.029 173.951C149.047 179.858 148.7 186.923 145.13 192.514L139.682 201.03C138.499 202.883 136.41 203.961 134.216 203.85C132.016 203.744 130.045 202.474 129.041 200.509L124.442 191.51C121.43 185.603 121.77 178.537 125.34 172.953L130.788 164.437C131.972 162.584 134.061 161.506 136.255 161.611C138.455 161.716 140.426 162.993 141.43 164.952Z" fill="white"/>
</g>
</mask>
<g mask="url(#mask19_80_1827)">
<g id="Group_20">
<path id="Vector_42" d="M120.897 154.657L152.221 156.169L149.574 210.81L118.25 209.292L120.897 154.657Z" fill="#236646"/>
</g>
</g>
</g>
</g>
</g>
</g>
</g>
</g>
</g>
<g id="Clip path group_21">
<mask id="mask20_80_1827" style="mask-type:luminance" maskUnits="userSpaceOnUse" x="50" y="177" width="30" height="42">
<g id="01d48bca88">
<path id="Vector_43" d="M50.7734 177.36H79.3334V218.613H50.7734V177.36Z" fill="white"/>
</g>
</mask>
<g mask="url(#mask20_80_1827)">
<g id="Group_21">
<g id="Clip path group_22">
<mask id="mask21_80_1827" style="mask-type:luminance" maskUnits="userSpaceOnUse" x="42" y="172" width="46" height="52">
<g id="dfbf90d977">
<path id="Vector_44" d="M63.7641 172.755L87.6013 186.353L66.6399 223.107L42.8027 209.508L63.7641 172.755Z" fill="white"/>
</g>
</mask>
<g mask="url(#mask21_80_1827)">
<g id="Group_22">
<g id="Clip path group_23">
<mask id="mask22_80_1827" style="mask-type:luminance" maskUnits="userSpaceOnUse" x="51" y="178" width="28" height="40">
<g id="e2b13558cf">
<path id="Vector_45" d="M78.7814 184.884L78.8 194.993C78.8186 201.625 75.3106 207.767 69.5961 211.132L60.8818 216.258C58.9853 217.374 56.6363 217.386 54.7273 216.295C52.8121 215.204 51.6345 213.178 51.6283 210.977L51.6035 200.869C51.5912 194.237 55.093 188.095 60.8137 184.729L69.5217 179.604C71.4183 178.488 73.7673 178.475 75.6825 179.566C77.5914 180.657 78.7752 182.684 78.7814 184.884Z" fill="white"/>
</g>
</mask>
<g mask="url(#mask22_80_1827)">
<g id="Group_23">
<path id="Vector_46" d="M65.1338 166.402L92.3798 181.946L65.2701 229.46L38.0303 213.915L65.1338 166.402Z" fill="#236646"/>
</g>
</g>
</g>
</g>
</g>
</g>
</g>
</g>
</g>
<g id="Clip path group_24">
<mask id="mask23_80_1827" style="mask-type:luminance" maskUnits="userSpaceOnUse" x="66" y="34" width="25" height="38">
<g id="2b2fda4222">
<path id="Vector_47" d="M66.6401 34.5598H90.4401V71.0532H66.6401V34.5598Z" fill="white"/>
</g>
</mask>
<g mask="url(#mask23_80_1827)">
<g id="Group_24">
<g id="Clip path group_25">
<mask id="mask24_80_1827" style="mask-type:luminance" maskUnits="userSpaceOnUse" x="64" y="32" width="30" height="40">
<g id="5494dd6474">
<path id="Vector_48" d="M64.4648 36.5494L87.7504 32.9794L93.093 67.8612L69.8074 71.425L64.4648 36.5494Z" fill="white"/>
</g>
</mask>
<g mask="url(#mask24_80_1827)">
<g id="Group_25">
<g id="Clip path group_26">
<mask id="mask25_80_1827" style="mask-type:luminance" maskUnits="userSpaceOnUse" x="67" y="34" width="23" height="36">
<g id="671d10d86f">
<path id="Vector_49" d="M81.9057 37.0452L85.7236 41.7742C89.8824 46.9309 90.9547 53.9159 88.5251 60.0767L86.3 65.7354C85.4881 67.7993 83.6349 69.2806 81.4409 69.6152C79.253 69.9499 77.0465 69.0946 75.652 67.3654L71.8341 62.6364C67.6753 57.4797 66.603 50.4947 69.0326 44.3339L71.2577 38.6752C72.0696 36.6051 73.9166 35.13 76.1106 34.7953C78.3047 34.4607 80.5112 35.316 81.9057 37.0452Z" fill="white"/>
</g>
</mask>
<g mask="url(#mask25_80_1827)">
<g id="Group_26">
<path id="Vector_50" d="M61.5083 30.7977L88.8535 26.6141L96.0493 73.6067L68.7041 77.7965L61.5083 30.7977Z" fill="#236646"/>
</g>
</g>
</g>
</g>
</g>
</g>
</g>
</g>
</g>
<g id="Clip path group_27">
<mask id="mask26_80_1827" style="mask-type:luminance" maskUnits="userSpaceOnUse" x="42" y="32" width="30" height="46">
<g id="278f87ec19">
<path id="Vector_51" d="M42.8398 32.9731H71.3998V77.3998H42.8398V32.9731Z" fill="white"/>
</g>
</mask>
<g mask="url(#mask26_80_1827)">
<g id="Group_27">
<g id="Clip path group_28">
<mask id="mask27_80_1827" style="mask-type:luminance" maskUnits="userSpaceOnUse" x="35" y="28" width="45" height="55">
<g id="e58c09a137">
<path id="Vector_52" d="M35.1978 39.9892L60.3365 28.3867L79.7732 70.4829L54.6344 82.0916L35.1978 39.9892Z" fill="white"/>
</g>
</mask>
<g mask="url(#mask27_80_1827)">
<g id="Group_28">
<g id="Clip path group_29">
<mask id="mask28_80_1827" style="mask-type:luminance" maskUnits="userSpaceOnUse" x="43" y="33" width="29" height="44">
<g id="de31b9d556">
<path id="Vector_53" d="M53.7046 35.0247L63.1812 42.2018C68.5176 46.2367 71.4926 52.6763 71.1022 59.3577L70.4204 71.2205C70.2964 73.3278 69.0259 75.1996 67.1107 76.0797C65.1894 76.966 62.9457 76.7242 61.2599 75.4475L51.7833 68.2765C46.4468 64.2354 43.478 57.802 43.8623 51.1207L44.5503 39.2516C44.668 37.1443 45.9448 35.2788 47.86 34.3925C49.7751 33.5062 52.025 33.7541 53.7046 35.0247Z" fill="white"/>
</g>
</mask>
<g mask="url(#mask28_80_1827)">
<g id="Group_29">
<path id="Vector_54" d="M30.9272 35.1362L59.4005 21.9842L84.0372 75.3421L55.564 88.4879L30.9272 35.1362Z" fill="#236646"/>
</g>
</g>
</g>
</g>
</g>
</g>
</g>
</g>
</g>
<g id="Clip path group_30">
<mask id="mask29_80_1827" style="mask-type:luminance" maskUnits="userSpaceOnUse" x="0" y="50" width="37" height="45">
<g id="19ace6edf1">
<path id="Vector_55" d="M0 50.4265H36.4933V94.8532H0V50.4265Z" fill="white"/>
</g>
</mask>
<g mask="url(#mask29_80_1827)">
<g id="Group_30">
<g id="Clip path group_31">
<mask id="mask30_80_1827" style="mask-type:luminance" maskUnits="userSpaceOnUse" x="-10" y="43" width="56" height="60">
<g id="e313f88b64">
<path id="Vector_56" d="M14.2862 43.0386L45.9265 60.8142L22.5852 102.359L-9.05518 84.5832L14.2862 43.0386Z" fill="white"/>
</g>
</mask>
<g mask="url(#mask30_80_1827)">
<g id="Group_31">
<g id="Clip path group_32">
<mask id="mask31_80_1827" style="mask-type:luminance" maskUnits="userSpaceOnUse" x="1" y="50" width="35" height="45">
<g id="2a8c8ac6bc">
<path id="Vector_57" d="M34.9377 59.7916L35.7496 68.9087C36.512 77.4866 31.9255 85.6493 24.2029 89.4548L15.9969 93.5082C13.1024 94.9337 9.69358 94.847 6.87973 93.2665C4.06587 91.686 2.2127 88.8164 1.92759 85.6059L1.12186 76.4887C0.359518 67.9108 4.94598 59.7544 12.6624 55.9427L20.8746 51.8892C23.7691 50.4637 27.1779 50.5505 29.9918 52.1309C32.8056 53.7114 34.6526 56.581 34.9377 59.7916Z" fill="white"/>
</g>
</mask>
<g mask="url(#mask31_80_1827)">
<g id="Group_32">
<path id="Vector_58" d="M15.1042 35.1301L52.2546 56.0046L21.767 110.267L-15.3833 89.3928L15.1042 35.1301Z" fill="#236646"/>
</g>
</g>
</g>
</g>
</g>
</g>
</g>
</g>
</g>
<g id="Clip path group_33">
<mask id="mask32_80_1827" style="mask-type:luminance" maskUnits="userSpaceOnUse" x="14" y="75" width="39" height="47">
<g id="ef0f503eea">
<path id="Vector_59" d="M14.2803 75.8132H52.3603V121.827H14.2803V75.8132Z" fill="white"/>
</g>
</mask>
<g mask="url(#mask32_80_1827)">
<g id="Group_33">
<g id="Clip path group_34">
<mask id="mask33_80_1827" style="mask-type:luminance" maskUnits="userSpaceOnUse" x="7" y="70" width="53" height="59">
<g id="1157c6e538">
<path id="Vector_60" d="M38.0987 70.2351L59.9339 86.4489L29.0187 128.093L7.17725 111.879L38.0987 70.2351Z" fill="white"/>
</g>
</mask>
<g mask="url(#mask33_80_1827)">
<g id="Group_34">
<g id="Clip path group_35">
<mask id="mask34_80_1827" style="mask-type:luminance" maskUnits="userSpaceOnUse" x="15" y="77" width="37" height="45">
<g id="acb5505383">
<path id="Vector_61" d="M51.3125 85.0543L49.2176 94.5681C47.2652 103.437 41.6127 111.048 33.6856 115.486L25.1882 120.246C22.988 121.48 20.2609 121.3 18.2342 119.8C16.2075 118.294 15.253 115.74 15.7984 113.273L17.8933 103.76C19.8456 94.8904 25.4981 87.2794 33.4253 82.8417L41.9226 78.0817C44.1291 76.8483 46.85 77.028 48.8767 78.5279C50.9034 80.034 51.8579 82.5876 51.3125 85.0543Z" fill="white"/>
</g>
</mask>
<g mask="url(#mask34_80_1827)">
<g id="Group_35">
<path id="Vector_62" d="M41.7924 61.7626L66.9746 80.4555L25.3184 136.565L0.13623 117.872L41.7924 61.7626Z" fill="#236646"/>
</g>
</g>
</g>
</g>
</g>
</g>
</g>
</g>
</g>
<g id="Clip path group_36">
<mask id="mask35_80_1827" style="mask-type:luminance" maskUnits="userSpaceOnUse" x="22" y="131" width="34" height="60">
<g id="4aba802170">
<path id="Vector_63" d="M22.2134 131.347H55.5334V190.053H22.2134V131.347Z" fill="white"/>
</g>
</mask>
<g mask="url(#mask35_80_1827)">
<g id="Group_36">
<g id="Clip path group_37">
<mask id="mask36_80_1827" style="mask-type:luminance" maskUnits="userSpaceOnUse" x="19" y="130" width="40" height="62">
<g id="83ee6647ef">
<path id="Vector_64" d="M24.773 130.541L58.3347 133.615L53.0603 191.225L19.4985 188.151L24.773 130.541Z" fill="white"/>
</g>
</mask>
<g mask="url(#mask36_80_1827)">
<g id="Group_37">
<g id="Clip path group_38">
<mask id="mask37_80_1827" style="mask-type:luminance" maskUnits="userSpaceOnUse" x="23" y="132" width="32" height="58">
<g id="45aaaa28a5">
<path id="Vector_65" d="M48.1268 137.241L52.5335 148.286C56.1345 157.31 55.1986 167.518 50.0234 175.742L43.6829 185.808C42.1024 188.312 39.2514 189.719 36.3012 189.452C33.351 189.179 30.8036 187.277 29.7066 184.525L25.2999 173.48C21.6927 164.45 22.6286 154.248 27.81 146.023L34.1505 135.958C35.7248 133.454 38.582 132.047 41.5322 132.314C44.4824 132.586 47.0298 134.489 48.1268 137.241Z" fill="white"/>
</g>
</mask>
<g mask="url(#mask37_80_1827)">
<g id="Group_38">
<path id="Vector_66" d="M23.0438 121.102L61.7435 124.641L54.7895 200.664L16.0835 197.125L23.0438 121.102Z" fill="#236646"/>
</g>
</g>
</g>
</g>
</g>
</g>
</g>
</g>
</g>
<g id="Clip path group_39">
<mask id="mask38_80_1827" style="mask-type:luminance" maskUnits="userSpaceOnUse" x="58" y="115" width="30" height="49">
<g id="60005640ac">
<path id="Vector_67" d="M58.707 115.48H87.267V163.08H58.707V115.48Z" fill="white"/>
</g>
</mask>
<g mask="url(#mask38_80_1827)">
<g id="Group_39">
<g id="Clip path group_40">
<mask id="mask39_80_1827" style="mask-type:luminance" maskUnits="userSpaceOnUse" x="55" y="114" width="35" height="50">
<g id="0e0828c95a">
<path id="Vector_68" d="M55.6641 117.879L83.3997 114.123L89.6472 160.235L61.9116 163.991L55.6641 117.879Z" fill="white"/>
</g>
</mask>
<g mask="url(#mask39_80_1827)">
<g id="Group_40">
<g id="Clip path group_41">
<mask id="mask40_80_1827" style="mask-type:luminance" maskUnits="userSpaceOnUse" x="59" y="116" width="27" height="46">
<g id="da336c2c7f">
<path id="Vector_69" d="M74.9892 118.505L82.0734 128.26C86.0029 133.677 86.9512 140.699 84.6084 146.959L80.3752 158.252C79.6314 160.235 77.8588 161.648 75.7577 161.933C73.6567 162.218 71.568 161.326 70.3222 159.609L63.238 149.854C59.3085 144.443 58.3602 137.421 60.7092 131.155L64.9424 119.862C65.6861 117.879 67.4587 116.465 69.5598 116.18C71.6609 115.895 73.7434 116.788 74.9892 118.505Z" fill="white"/>
</g>
</mask>
<g mask="url(#mask40_80_1827)">
<g id="Group_41">
<path id="Vector_70" d="M52.9927 111.966L84.4099 107.708L92.3247 166.154L60.9074 170.406L52.9927 111.966Z" fill="#236646"/>
</g>
</g>
</g>
</g>
</g>
</g>
</g>
</g>
</g>
<path id="Vector_71" d="M68.7104 86.0398L66.7394 90.4837" stroke="#2F895E" stroke-width="4" stroke-linecap="round"/>
<g id="Clip path group_42">
<mask id="mask41_80_1827" style="mask-type:luminance" maskUnits="userSpaceOnUse" x="80" y="90" width="28" height="45">
<g id="e9d0f11de1">
<path id="Vector_72" d="M80.9199 90.0933H107.893V134.52H80.9199V90.0933Z" fill="white"/>
</g>
</mask>
<g mask="url(#mask41_80_1827)">
<g id="Group_42">
<g id="Clip path group_43">
<mask id="mask42_80_1827" style="mask-type:luminance" maskUnits="userSpaceOnUse" x="79" y="90" width="31" height="45">
<g id="9e378f5421">
<path id="Vector_73" d="M82.0851 90.5457L109.474 92.244L106.852 134.47L79.4634 132.772L82.0851 90.5457Z" fill="white"/>
</g>
</mask>
<g mask="url(#mask42_80_1827)">
<g id="Group_43">
<g id="Clip path group_44">
<mask id="mask43_80_1827" style="mask-type:luminance" maskUnits="userSpaceOnUse" x="81" y="91" width="27" height="43">
<g id="706d203200">
<path id="Vector_74" d="M100.902 94.8161L105.377 103.877C108.315 109.827 107.875 116.887 104.23 122.422L98.6645 130.863C97.456 132.698 95.3549 133.751 93.1608 133.615C90.9605 133.479 89.0082 132.177 88.0351 130.2L83.5602 121.139C80.6224 115.195 81.0625 108.135 84.7068 102.594L90.2726 94.1529C91.4812 92.3183 93.5823 91.2647 95.7763 91.401C97.9766 91.5374 99.9289 92.839 100.902 94.8161Z" fill="white"/>
</g>
</mask>
<g mask="url(#mask43_80_1827)">
<g id="Group_44">
<path id="Vector_75" d="M80.5109 84.2362L111.817 86.1824L108.426 140.78L77.1206 138.834L80.5109 84.2362Z" fill="#236646"/>
</g>
</g>
</g>
</g>
</g>
</g>
</g>
</g>
</g>
<path id="Vector_76" d="M86.5413 78.3172L103.022 47.9288" stroke="#2F895E" stroke-width="4" stroke-linecap="round"/>
<path id="Vector_77" d="M85.8537 95.4978L85.5747 79.8728" stroke="#2F895E" stroke-width="4" stroke-linecap="round"/>
<path id="Vector_78" d="M105.897 87.521L112.145 71.1337" stroke="#2F895E" stroke-width="4" stroke-linecap="round"/>
<path id="Vector_79" d="M88.5435 87.9797L80.6969 69.7207" stroke="#2F895E" stroke-width="4" stroke-linecap="round"/>
</g>
</g>
</svg>
