<svg width="138" height="206" viewBox="0 0 138 206" fill="none" xmlns="http://www.w3.org/2000/svg">
<g id="plant-a">
<g id="leaves">
<g id="Clip path group">
<mask id="mask0_80_10" style="mask-type:luminance" maskUnits="userSpaceOnUse" x="66" y="76" width="54" height="62">
<g id="383a981bc5">
<path id="Vector" d="M66.6814 76.864H119.305V137.584H66.6814V76.864Z" fill="white"/>
</g>
</mask>
<g mask="url(#mask0_80_10)">
<g id="Group">
<g id="Clip path group_2">
<mask id="mask1_80_10" style="mask-type:luminance" maskUnits="userSpaceOnUse" x="59" y="70" width="68" height="74">
<g id="433d0fdb5f">
<path id="Vector_2" d="M107.399 70.1226L126.69 86.3041L78.5303 143.703L59.239 127.522L107.399 70.1226Z" fill="white"/>
</g>
</mask>
<g mask="url(#mask1_80_10)">
<g id="Group_2">
<g id="Clip path group_3">
<mask id="mask2_80_10" style="mask-type:luminance" maskUnits="userSpaceOnUse" x="66" y="76" width="54" height="61">
<g id="57206c5900">
<path id="Vector_3" d="M118.515 85.7612L114.066 95.2539C107.594 109.064 97.6266 120.944 85.1505 129.72L76.5749 135.75C74.2821 137.363 71.1881 137.231 69.0429 135.428C66.8924 133.626 66.223 130.605 67.4142 128.065L71.8628 118.572C78.3354 104.763 88.3078 92.8821 100.784 84.1061L109.354 78.0763C111.647 76.4634 114.741 76.5952 116.891 78.3978C119.037 80.2004 119.706 83.2206 118.515 85.7612Z" fill="white"/>
</g>
</mask>
<g mask="url(#mask2_80_10)">
<g id="Group_3">
<path id="Vector_4" d="M117.171 55.2694L139.614 74.1021L68.7582 158.557L46.3149 139.724L117.171 55.2694Z" fill="#236646"/>
</g>
</g>
</g>
</g>
</g>
</g>
</g>
</g>
</g>
<g id="Clip path group_4">
<mask id="mask3_80_10" style="mask-type:luminance" maskUnits="userSpaceOnUse" x="4" y="75" width="59" height="58">
<g id="664bb02b76">
<path id="Vector_5" d="M4.61206 75.5146H62.6334V132.187H4.61206V75.5146Z" fill="white"/>
</g>
</mask>
<g mask="url(#mask3_80_10)">
<g id="Group_4">
<g id="Clip path group_5">
<mask id="mask4_80_10" style="mask-type:luminance" maskUnits="userSpaceOnUse" x="-3" y="68" width="73" height="72">
<g id="27094c0c75">
<path id="Vector_6" d="M-2.13452 87.1368L15.2961 68.9735L69.3591 120.854L51.9284 139.023L-2.13452 87.1368Z" fill="white"/>
</g>
</mask>
<g mask="url(#mask4_80_10)">
<g id="Group_5">
<g id="Clip path group_6">
<mask id="mask5_80_10" style="mask-type:luminance" maskUnits="userSpaceOnUse" x="5" y="76" width="58" height="56">
<g id="72d22ed699">
<path id="Vector_7" d="M14.2103 77.0906L23.3868 82.1664C36.7326 89.5456 47.9226 100.282 55.8446 113.317L61.2894 122.272C62.7494 124.67 62.4121 127.749 60.4672 129.773C58.5275 131.791 55.4651 132.255 53.0142 130.901L43.8377 125.83C30.4919 118.446 19.3019 107.709 11.3799 94.6741L5.93511 85.719C4.47509 83.3207 4.81242 80.2478 6.75736 78.2238C8.69703 76.1998 11.7594 75.736 14.2103 77.0906Z" fill="white"/>
</g>
</mask>
<g mask="url(#mask5_80_10)">
<g id="Group_6">
<path id="Vector_8" d="M-16.3025 76.4001L3.98495 55.2588L83.5271 131.591L63.2397 152.732L-16.3025 76.4001Z" fill="#236646"/>
</g>
</g>
</g>
</g>
</g>
</g>
</g>
</g>
</g>
<g id="Clip path group_7">
<mask id="mask6_80_10" style="mask-type:luminance" maskUnits="userSpaceOnUse" x="7" y="36" width="47" height="66">
<g id="aa6fab3463">
<path id="Vector_9" d="M7.31055 36.384H53.1879V101.152H7.31055V36.384Z" fill="white"/>
</g>
</mask>
<g mask="url(#mask6_80_10)">
<g id="Group_7">
<g id="Clip path group_8">
<mask id="mask7_80_10" style="mask-type:luminance" maskUnits="userSpaceOnUse" x="-3" y="30" width="65" height="78">
<g id="527c58197d">
<path id="Vector_10" d="M-2.25073 46.3459L23.1072 30.196L61.8531 91.0531L36.4952 107.198L-2.25073 46.3459Z" fill="white"/>
</g>
</mask>
<g mask="url(#mask7_80_10)">
<g id="Group_8">
<g id="Clip path group_9">
<mask id="mask8_80_10" style="mask-type:luminance" maskUnits="userSpaceOnUse" x="7" y="37" width="45" height="63">
<g id="ee5d8a7961">
<path id="Vector_11" d="M17.5255 38.7243L30.613 48.9549C39.3784 55.8123 45.5295 65.4685 48.0331 76.3158L51.7649 92.5026C52.3447 95.0168 51.28 97.6258 49.1031 99.012C46.9263 100.398 44.1116 100.261 42.0824 98.6694L28.9896 88.4388C20.2242 81.5867 14.0732 71.9252 11.5695 61.0779L7.83776 44.8911C7.25796 42.3769 8.32267 39.7731 10.4995 38.3869C12.6764 37.0007 15.491 37.1377 17.5255 38.7243Z" fill="white"/>
</g>
</mask>
<g mask="url(#mask8_80_10)">
<g id="Group_9">
<path id="Vector_12" d="M-10.394 37.2748L18.332 18.985L69.9967 100.124L41.2707 118.414L-10.394 37.2748Z" fill="#2F895E"/>
</g>
</g>
</g>
</g>
</g>
</g>
</g>
</g>
</g>
<g id="Clip path group_10">
<mask id="mask9_80_10" style="mask-type:luminance" maskUnits="userSpaceOnUse" x="76" y="36" width="42" height="67">
<g id="eca7f2d1be">
<path id="Vector_13" d="M76.1265 36.384H117.956V102.501H76.1265V36.384Z" fill="white"/>
</g>
</mask>
<g mask="url(#mask9_80_10)">
<g id="Group_10">
<g id="Clip path group_11">
<mask id="mask10_80_10" style="mask-type:luminance" maskUnits="userSpaceOnUse" x="66" y="30" width="62" height="79">
<g id="e57cf7b17b">
<path id="Vector_14" d="M101.147 30.4965L127.533 44.9069L92.9667 108.225L66.5757 93.8203L101.147 30.4965Z" fill="white"/>
</g>
</mask>
<g mask="url(#mask10_80_10)">
<g id="Group_11">
<g id="Clip path group_12">
<mask id="mask11_80_10" style="mask-type:luminance" maskUnits="userSpaceOnUse" x="76" y="37" width="42" height="65">
<g id="eacfbfd9b6">
<path id="Vector_15" d="M117.371 44.1321L114.735 60.535C112.964 71.5247 107.477 81.5761 99.1916 89.0027L86.821 100.093C84.8971 101.816 82.1036 102.138 79.8371 100.904C77.5706 99.6656 76.332 97.1356 76.7431 94.5898L79.3785 78.187C81.1443 67.1973 86.6312 57.1511 94.9222 49.7192L107.293 38.6294C109.211 36.9111 112.01 36.5843 114.277 37.8229C116.543 39.0563 117.782 41.5863 117.371 44.1321Z" fill="white"/>
</g>
</mask>
<g mask="url(#mask11_80_10)">
<g id="Group_12">
<path id="Vector_16" d="M105.158 18.9902L135.049 35.3088L88.9556 119.737L59.0647 103.418L105.158 18.9902Z" fill="#2F895E"/>
</g>
</g>
</g>
</g>
</g>
</g>
</g>
</g>
</g>
<g id="Clip path group_13">
<mask id="mask12_80_10" style="mask-type:luminance" maskUnits="userSpaceOnUse" x="65" y="12" width="35" height="79">
<g id="cde71769be">
<path id="Vector_17" d="M65.332 12.096H99.0654V90.3573H65.332V12.096Z" fill="white"/>
</g>
</mask>
<g mask="url(#mask12_80_10)">
<g id="Group_13">
<g id="Clip path group_14">
<mask id="mask13_80_10" style="mask-type:luminance" maskUnits="userSpaceOnUse" x="55" y="8" width="55" height="87">
<g id="bd8ba97435">
<path id="Vector_18" d="M80.5965 8.61198L109.728 17.9783L85.0819 94.6478L55.9553 85.2868L80.5965 8.61198Z" fill="white"/>
</g>
</mask>
<g mask="url(#mask13_80_10)">
<g id="Group_14">
<g id="Clip path group_15">
<mask id="mask14_80_10" style="mask-type:luminance" maskUnits="userSpaceOnUse" x="66" y="13" width="34" height="78">
<g id="f94bbbf2dd">
<path id="Vector_19" d="M98.9706 18.7636L99.0128 39.6361C99.0391 50.8208 95.534 61.7262 88.9982 70.8025L76.7962 87.743C75.3889 89.6985 72.8747 90.526 70.5766 89.7881C68.2733 89.0502 66.7131 86.9102 66.7078 84.4962L66.6657 63.6237C66.6393 52.439 70.1497 41.5336 76.6803 32.4572L88.8822 15.522C90.2896 13.5613 92.8037 12.7338 95.1071 13.4717C97.4052 14.2149 98.9653 16.3496 98.9706 18.7636Z" fill="white"/>
</g>
</mask>
<g mask="url(#mask14_80_10)">
<g id="Group_15">
<path id="Vector_20" d="M82.7258 -3.64798L115.147 6.77246L82.9578 106.913L50.5369 96.4926L82.7258 -3.64798Z" fill="#236646"/>
</g>
</g>
</g>
</g>
</g>
</g>
</g>
</g>
</g>
<g id="Clip path group_16">
<mask id="mask15_80_10" style="mask-type:luminance" maskUnits="userSpaceOnUse" x="20" y="14" width="42" height="67">
<g id="03dd79e38b">
<path id="Vector_21" d="M20.804 14.7946H61.284V80.912H20.804V14.7946Z" fill="white"/>
</g>
</mask>
<g mask="url(#mask15_80_10)">
<g id="Group_16">
<g id="Clip path group_17">
<mask id="mask16_80_10" style="mask-type:luminance" maskUnits="userSpaceOnUse" x="11" y="8" width="60" height="79">
<g id="a3a654279c">
<path id="Vector_22" d="M11.5957 22.158L38.4875 8.72263L70.7292 73.2587L43.8374 86.6941L11.5957 22.158Z" fill="white"/>
</g>
</mask>
<g mask="url(#mask16_80_10)">
<g id="Group_17">
<g id="Clip path group_18">
<mask id="mask17_80_10" style="mask-type:luminance" maskUnits="userSpaceOnUse" x="21" y="14" width="40" height="67">
<g id="adc7064085">
<path id="Vector_23" d="M32.0517 16.6236L44.0113 28.1562C52.0229 35.8832 57.1409 46.1245 58.5061 57.1721L60.5459 73.6593C60.8621 76.2209 59.5286 78.7035 57.2252 79.8525C54.9166 81.0068 52.1283 80.5799 50.273 78.7931L38.3135 67.2605C30.3018 59.5335 25.1838 49.2922 23.8187 38.2446L21.7789 21.7574C21.4626 19.1958 22.7909 16.7132 25.0995 15.5589C27.4081 14.4099 30.1911 14.8368 32.0517 16.6236Z" fill="white"/>
</g>
</mask>
<g mask="url(#mask17_80_10)">
<g id="Group_18">
<path id="Vector_24" d="M4.43262 12.2962L34.898 -2.92592L77.887 83.1204L47.4268 98.3426L4.43262 12.2962Z" fill="#236646"/>
</g>
</g>
</g>
</g>
</g>
</g>
</g>
</g>
</g>
<g id="Clip path group_19">
<mask id="mask18_80_10" style="mask-type:luminance" maskUnits="userSpaceOnUse" x="45" y="4" width="36" height="83">
<g id="46a18693c2">
<path id="Vector_25" d="M45.092 4H80.1747V86.3093H45.092V4Z" fill="white"/>
</g>
</mask>
<g mask="url(#mask18_80_10)">
<g id="Group_19">
<g id="Clip path group_20">
<mask id="mask19_80_10" style="mask-type:luminance" maskUnits="userSpaceOnUse" x="43" y="3" width="39" height="85">
<g id="c4b23d3272">
<path id="Vector_26" d="M45.9038 3.25681L81.872 4.49546L79.031 87.1105L43.0681 85.8771L45.9038 3.25681Z" fill="white"/>
</g>
</mask>
<g mask="url(#mask19_80_10)">
<g id="Group_20">
<g id="Clip path group_21">
<mask id="mask20_80_10" style="mask-type:luminance" maskUnits="userSpaceOnUse" x="45" y="4" width="35" height="83">
<g id="3033660d45">
<path id="Vector_27" d="M71.8362 10.2196L75.8315 22.7536C80.6016 37.7228 80.0429 53.8779 74.2608 68.4781L69.4169 80.7117C68.0676 84.1167 64.7206 86.3093 61.0574 86.1828C57.3994 86.0563 54.2105 83.6423 53.0984 80.1477L49.1031 67.6137C44.333 52.6498 44.8917 36.4947 50.6738 21.8945L55.5177 9.66087C56.867 6.25591 60.214 4.06325 63.8773 4.18975C67.5352 4.31625 70.7241 6.73029 71.8362 10.2196Z" fill="white"/>
</g>
</mask>
<g mask="url(#mask20_80_10)">
<g id="Group_21">
<path id="Vector_28" d="M43.7268 -13.6309L85.1978 -12.2078L81.2077 104.004L39.7368 102.58L43.7268 -13.6309Z" fill="#2F895E"/>
</g>
</g>
</g>
</g>
</g>
</g>
</g>
</g>
</g>
<g id="Clip path group_22">
<mask id="mask21_80_10" style="mask-type:luminance" maskUnits="userSpaceOnUse" x="31" y="40" width="44" height="99">
<g id="6c10fcb3bb">
<path id="Vector_29" d="M31.5986 40.432H74.7773V138.933H31.5986V40.432Z" fill="white"/>
</g>
</mask>
<g mask="url(#mask21_80_10)">
<g id="Group_22">
<g id="Clip path group_23">
<mask id="mask22_80_10" style="mask-type:luminance" maskUnits="userSpaceOnUse" x="22" y="37" width="63" height="106">
<g id="2a6c8b9a03">
<path id="Vector_30" d="M22.5171 45.7872L65.8012 37.5699L84.0646 133.789L40.7805 142.006L22.5171 45.7872Z" fill="white"/>
</g>
</mask>
<g mask="url(#mask22_80_10)">
<g id="Group_23">
<g id="Clip path group_24">
<mask id="mask23_80_10" style="mask-type:luminance" maskUnits="userSpaceOnUse" x="31" y="41" width="44" height="97">
<g id="a959aff90a">
<path id="Vector_31" d="M57.136 47.8428L61.5003 55.2589C72.7746 74.4342 77.044 96.9301 73.581 118.909L72.237 127.406C71.4305 132.545 67.4774 136.625 62.3647 137.595C57.252 138.564 52.076 136.219 49.4406 131.733L45.0816 124.317C33.8021 105.142 29.5327 82.6408 33.0009 60.6667L34.3397 52.1701C35.1514 47.0311 39.0992 42.9515 44.2172 41.9816C49.3299 41.0118 54.5006 43.3573 57.136 47.8428Z" fill="white"/>
</g>
</mask>
<g mask="url(#mask23_80_10)">
<g id="Group_24">
<path id="Vector_32" d="M14.0469 23.0488L65.3479 13.3136L92.5296 156.527L41.2286 166.263L14.0469 23.0488Z" fill="#2F895E"/>
</g>
</g>
</g>
</g>
</g>
</g>
</g>
</g>
</g>
<g id="Clip path group_25">
<mask id="mask24_80_10" style="mask-type:luminance" maskUnits="userSpaceOnUse" x="49" y="74" width="57" height="65">
<g id="edc71af0d2">
<path id="Vector_33" d="M49.1401 74.1654H105.812V138.933H49.1401V74.1654Z" fill="white"/>
</g>
</mask>
<g mask="url(#mask24_80_10)">
<g id="Group_25">
<g id="Clip path group_26">
<mask id="mask25_80_10" style="mask-type:luminance" maskUnits="userSpaceOnUse" x="40" y="66" width="76" height="82">
<g id="c0c0e9c2ae">
<path id="Vector_34" d="M87.7332 66.5016L115.131 88.5758L68.0361 147.019L40.6436 124.945L87.7332 66.5016Z" fill="white"/>
</g>
</mask>
<g mask="url(#mask25_80_10)">
<g id="Group_26">
<g id="Clip path group_27">
<mask id="mask26_80_10" style="mask-type:luminance" maskUnits="userSpaceOnUse" x="50" y="75" width="56" height="64">
<g id="921db71fcf">
<path id="Vector_35" d="M104.758 90.3363C98.0799 109.57 84.9291 125.893 67.5512 136.514C63.4874 138.997 58.3009 138.659 54.5902 135.671C50.8796 132.682 49.4459 127.685 51.0113 123.184C57.6895 103.946 70.8402 87.6271 88.2181 77.0064C92.2819 74.5238 97.4684 74.8611 101.179 77.8497C104.89 80.8382 106.323 85.835 104.758 90.3363Z" fill="white"/>
</g>
</mask>
<g mask="url(#mask26_80_10)">
<g id="Group_27">
<path id="Vector_36" d="M98.5489 47.2525L131.634 73.9071L57.2203 166.268L24.1353 139.608L98.5489 47.2525Z" fill="#236646"/>
</g>
</g>
</g>
</g>
</g>
</g>
</g>
</g>
</g>
</g>
<g id="pot">
<g id="Clip path group_28">
<mask id="mask27_80_10" style="mask-type:luminance" maskUnits="userSpaceOnUse" x="26" y="110" width="80" height="96">
<g id="e92d1ae022">
<path id="Vector_37" d="M26.3594 110.381H105.343V205.936H26.3594V110.381Z" fill="white"/>
</g>
</mask>
<g mask="url(#mask27_80_10)">
<g id="Group_28">
<g id="Clip path group_29">
<mask id="mask28_80_10" style="mask-type:luminance" maskUnits="userSpaceOnUse" x="26" y="110" width="80" height="96">
<g id="dc199f0a30">
<path id="Vector_38" d="M33.4434 110.381H98.2588C102.17 110.381 105.343 113.554 105.343 117.465V198.852C105.343 202.763 102.17 205.936 98.2588 205.936H33.4434C29.5271 205.936 26.3594 202.763 26.3594 198.852V117.465C26.3594 113.554 29.5271 110.381 33.4434 110.381Z" fill="white"/>
</g>
</mask>
<g mask="url(#mask28_80_10)">
<g id="Group_29">
<path id="Vector_39" d="M26.3594 110.381H105.343V205.936H26.3594V110.381Z" fill="#D9D9D9"/>
</g>
</g>
</g>
</g>
</g>
</g>
<g id="Clip path group_30">
<mask id="mask29_80_10" style="mask-type:luminance" maskUnits="userSpaceOnUse" x="73" y="110" width="55" height="93">
<g id="9363de8c70">
<path id="Vector_40" d="M73.6021 110.371H127.401V202.927H73.6021V110.371Z" fill="white"/>
</g>
</mask>
<g mask="url(#mask29_80_10)">
<g id="Group_30">
<g id="Clip path group_31">
<mask id="mask30_80_10" style="mask-type:luminance" maskUnits="userSpaceOnUse" x="74" y="110" width="54" height="93">
<g id="e3fe300f1d">
<path id="Vector_41" d="M95.982 199.163L74.8249 126.884C73.6864 122.984 74.4454 118.778 76.8805 115.531C79.3156 112.284 83.137 110.371 87.1955 110.371H114.43C118.488 110.371 122.31 112.284 124.745 115.531C127.18 118.778 127.939 122.984 126.801 126.884L105.643 199.163C105.016 201.308 103.05 202.784 100.815 202.784C98.5752 202.784 96.6092 201.308 95.982 199.163Z" fill="white"/>
</g>
</mask>
<g mask="url(#mask30_80_10)">
<g id="Group_31">
<path id="Vector_42" d="M131.634 215.677H69.9915V110.371H131.634V215.677Z" fill="#D9D9D9"/>
</g>
</g>
</g>
</g>
</g>
</g>
<g id="Clip path group_32">
<mask id="mask31_80_10" style="mask-type:luminance" maskUnits="userSpaceOnUse" x="3" y="110" width="55" height="93">
<g id="6db70e40d3">
<path id="Vector_43" d="M3.58423 110.371H57.236V202.927H3.58423V110.371Z" fill="white"/>
</g>
</mask>
<g mask="url(#mask31_80_10)">
<g id="Group_32">
<g id="Clip path group_33">
<mask id="mask32_80_10" style="mask-type:luminance" maskUnits="userSpaceOnUse" x="4" y="110" width="54" height="93">
<g id="310a6c94f9">
<path id="Vector_44" d="M25.8482 199.158L4.80173 126.889C3.6685 122.989 4.43277 118.783 6.87317 115.531C9.3083 112.284 13.1349 110.371 17.1987 110.371H44.1169C48.1807 110.371 52.002 112.284 54.4424 115.531C56.8776 118.783 57.6471 122.989 56.5086 126.889L35.4674 199.158C34.8455 201.298 32.8847 202.768 30.6552 202.768C28.4309 202.768 26.4701 201.298 25.8482 199.158Z" fill="white"/>
</g>
</mask>
<g mask="url(#mask32_80_10)">
<g id="Group_33">
<path id="Vector_45" d="M61.3208 215.677H-0.00537109V110.371H61.3208V215.677Z" fill="#D9D9D9"/>
</g>
</g>
</g>
</g>
</g>
</g>
<g id="Clip path group_34">
<mask id="mask33_80_10" style="mask-type:luminance" maskUnits="userSpaceOnUse" x="0" y="106" width="131" height="30">
<g id="0b43535b78">
<path id="Vector_46" d="M0 106.755H130.137V135.465H0V106.755Z" fill="white"/>
</g>
</mask>
<g mask="url(#mask33_80_10)">
<g id="Group_34">
<g id="Clip path group_35">
<mask id="mask34_80_10" style="mask-type:luminance" maskUnits="userSpaceOnUse" x="0" y="106" width="131" height="30">
<g id="e2e475c126">
<path id="Vector_47" d="M14.3525 106.755H115.779C123.712 106.755 130.137 113.185 130.137 121.113C130.137 129.04 123.712 135.465 115.779 135.465H14.3525C6.42515 135.465 0 129.04 0 121.113C0 113.185 6.42515 106.755 14.3525 106.755Z" fill="white"/>
</g>
</mask>
<g mask="url(#mask34_80_10)">
<g id="Group_35">
<path id="Vector_48" d="M0 106.755H130.137V135.465H0V106.755Z" fill="white"/>
</g>
</g>
</g>
</g>
</g>
</g>
</g>
</g>
</svg>
