
<svg width="493" height="529" viewBox="0 0 493 529" fill="none" xmlns="http://www.w3.org/2000/svg">

<style>
    #curtains rect{
        animation: close-curtain ease-out 3s forwards;
    }
    @keyframes close-curtain {
        to {
            x:0;
        }
    }

    #gague-hands path {
        --gague-hand-start: -90deg;
        --gague-hand-end: 90deg;
        transform-box: fill-box;
        transform-origin: 50% 100%;
        animation: hand-wave linear 0.3s infinite alternate;
    }
    @keyframes hand-wave {
        0% {rotate: var(--gague-hand-start);}
        100% {rotate: var(--gague-hand-end);}
    }
    #gague-hands .left {
        animation-name: hand-wave-left;
        animation-duration: 0.2s;
    }
    @keyframes hand-wave-left {
        0% {rotate: calc(var(--gague-hand-start) + 30deg);}
        100% {rotate: calc(var(--gague-hand-end));}
    }
    #gague-hands .right {
        animation-name: hand-wave-right;
        animation-duration: 0.17s;
    }
    @keyframes hand-wave-right {
        0% {rotate: calc(var(--gague-hand-start));}
        100% {rotate: calc(var(--gague-hand-end) - 30deg);}
    }

    #lights #c {
        animation: blink linear 0.8s infinite alternate; 
    }
    #lights #d {
        animation: blink linear 0.8s infinite alternate; 
    animation-delay: 0.5s;
    }
    #lights #b {
        animation: blink linear 0.8s infinite alternate; 
        animation-delay: 0.3s;
    }
    #lights #a {
        animation: blink linear 0.8s infinite alternate;
        animation-delay: 0.1s;
    }
    @keyframes blink {
        to {
            fill: white;
        }
    }

    #screen-text > rect {
        animation: blink-off linear 0.5s infinite alternate;
    }
    @keyframes blink-off {
        to {
            fill: black;
        }
    }

</style>

<g id="control-panel" clip-path="url(#clip0_35_2)">
<rect id="Rectangle 48" x="2.20312" y="387.062" width="482" height="123" fill="#7A828A"/>
<rect id="Rectangle 49" x="2.20312" y="300.062" width="482" height="87" fill="#D9D9D9"/>
<rect id="Rectangle 50" x="2.20312" y="9.0625" width="482" height="291" fill="#EEEEEE"/>
<path id="Rectangle 87" d="M82.5 207C82.5 194.021 93.0213 183.5 106 183.5C118.979 183.5 129.5 194.021 129.5 207V208.156C129.5 210.003 128.003 211.5 126.156 211.5H85.8438C83.997 211.5 82.5 210.003 82.5 208.156V207Z" fill="white" stroke="#1A4674" stroke-width="3"/>
<path id="Rectangle 85" d="M187.5 207C187.5 194.021 198.021 183.5 211 183.5C223.979 183.5 234.5 194.021 234.5 207V208.156C234.5 210.003 233.003 211.5 231.156 211.5H190.844C188.997 211.5 187.5 210.003 187.5 208.156V207Z" fill="white" stroke="#1A4674" stroke-width="3"/>
<rect id="Rectangle 17" x="32.2031" y="247.062" width="230" height="32" rx="11.5" fill="#7A828A"/>
<path id="Rectangle 86" d="M137.5 164C137.5 151.021 148.021 140.5 161 140.5C173.979 140.5 184.5 151.021 184.5 164V165.156C184.5 167.003 183.003 168.5 181.156 168.5H140.844C138.997 168.5 137.5 167.003 137.5 165.156V164Z" fill="white" stroke="#1A4674" stroke-width="3"/>
<g id="gague-hands">
<path id="right" d="M211 209L211 192" stroke="black" stroke-width="2" stroke-linecap="round"/>
<path id="middle" d="M161 166L161 149" stroke="black" stroke-width="2" stroke-linecap="round"/>
<path id="left" d="M106 209L106 192" stroke="black" stroke-width="2" stroke-linecap="round"/>
</g>
<g id="lights">
<rect id="Rectangle 21" x="160.781" y="247.906" width="7.15625" height="30.2656" fill="#1A4674" stroke="#1E1E1E"/>
<rect id="Rectangle 27" x="187.969" y="247.906" width="7.15625" height="30.2656" fill="#1A4674" stroke="#1E1E1E"/>
<rect id="Rectangle 28" x="194.766" y="247.906" width="7.15625" height="30.2656" fill="#1A4674" stroke="#1E1E1E"/>
<rect id="c" x="201.562" y="247.906" width="7.15625" height="30.2656" fill="#1A4674" stroke="#1E1E1E"/>
<rect id="Rectangle 30" x="208.359" y="247.906" width="7.15625" height="30.2656" fill="#1A4674" stroke="#1E1E1E"/>
<rect id="Rectangle 31" x="231.469" y="247.906" width="7.15625" height="30.2656" fill="#1A4674" stroke="#1E1E1E"/>
<rect id="d" x="238.266" y="247.906" width="7.15625" height="30.2656" fill="#1A4674" stroke="#1E1E1E"/>
<rect id="b" x="144.469" y="247.906" width="7.15625" height="30.2656" fill="#1A4674" stroke="#1E1E1E"/>
<rect id="Rectangle 34" x="137.672" y="247.906" width="7.15625" height="30.2656" fill="#1A4674" stroke="#1E1E1E"/>
<rect id="Rectangle 35" x="120" y="247.906" width="7.15625" height="30.2656" fill="#1A4674" stroke="#1E1E1E"/>
<rect id="Rectangle 36" x="113.203" y="247.906" width="7.15625" height="30.2656" fill="#1A4674" stroke="#1E1E1E"/>
<rect id="Rectangle 37" x="106.406" y="247.906" width="7.15625" height="30.2656" fill="#1A4674" stroke="#1E1E1E"/>
<rect id="Rectangle 38" x="81.9375" y="247.906" width="7.15625" height="30.2656" fill="#1A4674" stroke="#1E1E1E"/>
<rect id="Rectangle 40" x="57.4688" y="247.906" width="7.15625" height="30.2656" fill="#1A4674" stroke="#1E1E1E"/>
<rect id="a" x="75.1406" y="247.906" width="7.15625" height="30.2656" fill="#1A4674" stroke="#1E1E1E"/>
<rect id="Rectangle 41" x="50.6719" y="247.906" width="7.15625" height="30.2656" fill="#1A4674" stroke="#1E1E1E"/>
</g>
<rect id="Rectangle 43" x="287.203" y="332.062" width="164" height="41" rx="14.5" fill="#7A828A" stroke="#1A4674" stroke-width="6"/>
<rect id="Rectangle 42" x="61.2031" y="329.062" width="206" height="47" rx="17.5" fill="#1A4674"/>
<rect id="Rectangle 44" x="175.203" y="337.062" width="80" height="29" rx="11" fill="#7A828A"/>
<rect id="Rectangle 45" x="74.2031" y="337.062" width="81" height="29" rx="11" fill="#7A828A"/>
<g id="switches">
<g id="right_2">
<g id="vertical">
<path id="Line 10" d="M188.906 350.719C188.906 352.928 190.697 354.719 192.906 354.719C195.115 354.719 196.906 352.928 196.906 350.719L188.906 350.719ZM196.906 350.719L196.906 318.094L188.906 318.094L188.906 350.719L196.906 350.719Z" fill="black"/>
<path id="Line 11" d="M235.125 350.719C235.125 352.928 236.916 354.719 239.125 354.719C241.334 354.719 243.125 352.928 243.125 350.719L235.125 350.719ZM243.125 350.719L243.125 318.094L235.125 318.094L235.125 350.719L243.125 350.719Z" fill="black"/>
</g>
<path id="horizontal" d="M192.906 318.094H239.125" stroke="black" stroke-width="8" stroke-linecap="round"/>
</g>
<g id="left_2">
<g id="vertical_2">
<path id="Line 13" d="M85.5938 350.719C85.5938 352.928 87.3846 354.719 89.5938 354.719C91.8029 354.719 93.5938 352.928 93.5938 350.719L85.5938 350.719ZM93.5938 350.719L93.5937 318.094L85.5937 318.094L85.5938 350.719L93.5938 350.719Z" fill="black"/>
<path id="Line 14" d="M131.812 350.719C131.813 352.928 133.603 354.719 135.813 354.719C138.022 354.719 139.813 352.928 139.812 350.719L131.812 350.719ZM139.812 350.719L139.812 318.094L131.812 318.094L131.812 350.719L139.812 350.719Z" fill="black"/>
</g>
<path id="horizontal_2" d="M89.5938 318.094H135.812" stroke="black" stroke-width="8" stroke-linecap="round"/>
</g>
</g>
<g id="levers">
<path id="right_3" d="M419.26 350.654L417.203 318.094" stroke="black" stroke-width="14" stroke-linecap="round"/>
<path id="middle_2" d="M386.489 381.477L372.344 352.078" stroke="black" stroke-width="14" stroke-linecap="round"/>
<path id="left_3" d="M322.047 349.599L337.4 320.813" stroke="black" stroke-width="14" stroke-linecap="round"/>
</g>
<rect id="Rectangle 46" x="28.2031" y="406.062" width="443" height="86" rx="31.5" fill="#1A4674"/>
<path id="Ellipse 13" d="M459.203 448.562C459.203 451.6 456.741 454.062 453.703 454.062C450.666 454.062 448.203 451.6 448.203 448.562C448.203 445.525 450.666 443.062 453.703 443.062C456.741 443.062 459.203 445.525 459.203 448.562Z" fill="black"/>
<path id="Ellipse 14" d="M53.2031 448.562C53.2031 451.6 50.7407 454.062 47.7031 454.062C44.6656 454.062 42.2031 451.6 42.2031 448.562C42.2031 445.525 44.6656 443.062 47.7031 443.062C50.7407 443.062 53.2031 445.525 53.2031 448.562Z" fill="black"/>
<path id="Line 19" d="M427.203 432.062L427.203 469.062" stroke="black" stroke-width="5" stroke-linecap="round"/>
<path id="Line 20" d="M402.203 432.062L402.203 469.062" stroke="black" stroke-width="5" stroke-linecap="round"/>
<path id="Line 22" d="M378.203 432.062L378.203 469.062" stroke="black" stroke-width="5" stroke-linecap="round"/>
<path id="Line 24" d="M353.203 432.062L353.203 469.062" stroke="black" stroke-width="5" stroke-linecap="round"/>
<path id="Line 25" d="M329.203 432.062L329.203 469.062" stroke="black" stroke-width="5" stroke-linecap="round"/>
<path id="Line 27" d="M304.203 432.062L304.203 469.062" stroke="black" stroke-width="5" stroke-linecap="round"/>
<path id="Line 28" d="M280.203 432.062L280.203 469.062" stroke="black" stroke-width="5" stroke-linecap="round"/>
<path id="Line 29" d="M255.203 432.062L255.203 469.062" stroke="black" stroke-width="5" stroke-linecap="round"/>
<path id="Line 30" d="M231.203 432.062L231.203 469.062" stroke="black" stroke-width="5" stroke-linecap="round"/>
<path id="Line 32" d="M206.203 432.062L206.203 469.062" stroke="black" stroke-width="5" stroke-linecap="round"/>
<path id="Line 33" d="M182.203 432.062L182.203 469.062" stroke="black" stroke-width="5" stroke-linecap="round"/>
<path id="Line 34" d="M157.203 432.062L157.203 469.062" stroke="black" stroke-width="5" stroke-linecap="round"/>
<path id="Line 35" d="M133.203 432.062L133.203 469.062" stroke="black" stroke-width="5" stroke-linecap="round"/>
<path id="Line 36" d="M108.203 432.062L108.203 469.062" stroke="black" stroke-width="5" stroke-linecap="round"/>
<path id="Line 37" d="M84.2031 432.062L84.2031 469.062" stroke="black" stroke-width="5" stroke-linecap="round"/>
<path id="Line 38" d="M61.2031 432.062L61.2031 469.062" stroke="black" stroke-width="5" stroke-linecap="round"/>
<rect id="Rectangle 47" x="264.703" y="96.5625" width="192" height="135" rx="8.5" fill="black" stroke="#7A828A" stroke-width="5"/>
<g id="screen-text">
<path id="made with: HTML CSS" d="M274.92 121V114.455H275.892V115.477H275.977C276.114 115.128 276.334 114.857 276.638 114.663C276.942 114.467 277.307 114.369 277.733 114.369C278.165 114.369 278.524 114.467 278.811 114.663C279.101 114.857 279.327 115.128 279.489 115.477H279.557C279.724 115.139 279.976 114.871 280.311 114.672C280.646 114.47 281.048 114.369 281.517 114.369C282.102 114.369 282.581 114.553 282.953 114.919C283.325 115.283 283.511 115.849 283.511 116.619V121H282.506V116.619C282.506 116.136 282.374 115.791 282.109 115.584C281.845 115.376 281.534 115.273 281.176 115.273C280.716 115.273 280.359 115.412 280.107 115.69C279.854 115.966 279.727 116.315 279.727 116.739V121H278.705V116.517C278.705 116.145 278.584 115.845 278.342 115.618C278.101 115.388 277.79 115.273 277.409 115.273C277.148 115.273 276.903 115.342 276.676 115.482C276.452 115.621 276.27 115.814 276.131 116.061C275.994 116.305 275.926 116.588 275.926 116.909V121H274.92ZM287.276 121.153C286.862 121.153 286.485 121.075 286.147 120.919C285.809 120.76 285.54 120.531 285.342 120.233C285.143 119.932 285.043 119.568 285.043 119.142C285.043 118.767 285.117 118.463 285.265 118.23C285.413 117.994 285.61 117.81 285.857 117.676C286.104 117.543 286.377 117.443 286.675 117.378C286.977 117.31 287.279 117.256 287.583 117.216C287.981 117.165 288.303 117.126 288.55 117.101C288.8 117.072 288.982 117.026 289.096 116.96C289.212 116.895 289.271 116.781 289.271 116.619V116.585C289.271 116.165 289.156 115.838 288.925 115.605C288.698 115.372 288.353 115.256 287.89 115.256C287.41 115.256 287.033 115.361 286.761 115.571C286.488 115.781 286.296 116.006 286.185 116.244L285.231 115.903C285.401 115.506 285.629 115.196 285.913 114.974C286.2 114.75 286.512 114.594 286.85 114.506C287.191 114.415 287.526 114.369 287.856 114.369C288.066 114.369 288.308 114.395 288.58 114.446C288.856 114.494 289.121 114.595 289.377 114.749C289.636 114.902 289.85 115.134 290.021 115.443C290.191 115.753 290.276 116.168 290.276 116.688V121H289.271V120.114H289.219C289.151 120.256 289.038 120.408 288.879 120.57C288.719 120.732 288.508 120.869 288.244 120.983C287.979 121.097 287.657 121.153 287.276 121.153ZM287.43 120.25C287.827 120.25 288.163 120.172 288.435 120.016C288.711 119.859 288.918 119.658 289.058 119.411C289.2 119.163 289.271 118.903 289.271 118.631V117.71C289.228 117.761 289.134 117.808 288.989 117.851C288.847 117.891 288.683 117.926 288.495 117.957C288.31 117.986 288.13 118.011 287.954 118.034C287.781 118.054 287.64 118.071 287.532 118.085C287.271 118.119 287.026 118.175 286.799 118.251C286.575 118.325 286.393 118.437 286.254 118.588C286.117 118.736 286.049 118.937 286.049 119.193C286.049 119.543 286.178 119.807 286.437 119.986C286.698 120.162 287.029 120.25 287.43 120.25ZM294.583 121.136C294.038 121.136 293.556 120.999 293.139 120.723C292.721 120.445 292.395 120.053 292.159 119.547C291.923 119.038 291.805 118.438 291.805 117.744C291.805 117.057 291.923 116.46 292.159 115.955C292.395 115.449 292.723 115.058 293.143 114.783C293.564 114.507 294.049 114.369 294.6 114.369C295.027 114.369 295.363 114.44 295.61 114.582C295.86 114.722 296.051 114.881 296.181 115.06C296.315 115.236 296.419 115.381 296.493 115.494H296.578V112.273H297.583V121H296.612V119.994H296.493C296.419 120.114 296.314 120.264 296.177 120.446C296.041 120.625 295.846 120.786 295.593 120.928C295.341 121.067 295.004 121.136 294.583 121.136ZM294.72 120.233C295.123 120.233 295.464 120.128 295.743 119.918C296.021 119.705 296.233 119.411 296.377 119.036C296.522 118.658 296.595 118.222 296.595 117.727C296.595 117.239 296.524 116.811 296.382 116.445C296.24 116.075 296.029 115.788 295.751 115.584C295.473 115.376 295.129 115.273 294.72 115.273C294.294 115.273 293.939 115.382 293.654 115.601C293.373 115.817 293.162 116.111 293.02 116.483C292.88 116.852 292.811 117.267 292.811 117.727C292.811 118.193 292.882 118.616 293.024 118.997C293.169 119.375 293.382 119.676 293.663 119.901C293.947 120.122 294.299 120.233 294.72 120.233ZM302.309 121.136C301.679 121.136 301.135 120.997 300.677 120.719C300.223 120.438 299.872 120.045 299.625 119.543C299.38 119.037 299.258 118.449 299.258 117.778C299.258 117.108 299.38 116.517 299.625 116.006C299.872 115.491 300.216 115.091 300.656 114.804C301.099 114.514 301.616 114.369 302.207 114.369C302.548 114.369 302.885 114.426 303.217 114.54C303.549 114.653 303.852 114.838 304.125 115.094C304.397 115.347 304.615 115.682 304.777 116.099C304.939 116.517 305.02 117.031 305.02 117.642V118.068H299.974V117.199H303.997C303.997 116.83 303.923 116.5 303.775 116.21C303.63 115.92 303.423 115.692 303.153 115.524C302.886 115.357 302.571 115.273 302.207 115.273C301.806 115.273 301.46 115.372 301.167 115.571C300.877 115.767 300.654 116.023 300.498 116.338C300.342 116.653 300.264 116.991 300.264 117.352V117.932C300.264 118.426 300.349 118.845 300.52 119.189C300.693 119.53 300.933 119.79 301.24 119.969C301.547 120.145 301.903 120.233 302.309 120.233C302.574 120.233 302.812 120.196 303.025 120.122C303.241 120.045 303.427 119.932 303.583 119.781C303.74 119.628 303.86 119.437 303.946 119.21L304.917 119.483C304.815 119.812 304.643 120.102 304.402 120.352C304.16 120.599 303.862 120.793 303.507 120.932C303.152 121.068 302.752 121.136 302.309 121.136ZM311.407 121L309.413 114.455H310.47L311.885 119.466H311.953L313.35 114.455H314.424L315.805 119.449H315.873L317.288 114.455H318.345L316.35 121H315.362L313.93 115.972H313.828L312.396 121H311.407ZM319.674 121V114.455H320.68V121H319.674ZM320.186 113.364C319.99 113.364 319.821 113.297 319.679 113.163C319.539 113.03 319.47 112.869 319.47 112.682C319.47 112.494 319.539 112.334 319.679 112.2C319.821 112.067 319.99 112 320.186 112C320.382 112 320.549 112.067 320.689 112.2C320.831 112.334 320.902 112.494 320.902 112.682C320.902 112.869 320.831 113.03 320.689 113.163C320.549 113.297 320.382 113.364 320.186 113.364ZM325.369 114.455V115.307H321.977V114.455H325.369ZM322.965 112.886H323.971V119.125C323.971 119.409 324.012 119.622 324.094 119.764C324.18 119.903 324.288 119.997 324.418 120.045C324.552 120.091 324.692 120.114 324.84 120.114C324.951 120.114 325.042 120.108 325.113 120.097C325.184 120.082 325.241 120.071 325.283 120.062L325.488 120.966C325.42 120.991 325.325 121.017 325.202 121.043C325.08 121.071 324.925 121.085 324.738 121.085C324.454 121.085 324.175 121.024 323.903 120.902C323.633 120.78 323.408 120.594 323.229 120.344C323.053 120.094 322.965 119.778 322.965 119.398V112.886ZM328.028 117.062V121H327.022V112.273H328.028V115.477H328.113C328.266 115.139 328.496 114.871 328.803 114.672C329.113 114.47 329.525 114.369 330.039 114.369C330.485 114.369 330.876 114.459 331.211 114.638C331.546 114.814 331.806 115.085 331.991 115.452C332.178 115.815 332.272 116.278 332.272 116.841V121H331.266V116.909C331.266 116.389 331.131 115.987 330.862 115.703C330.594 115.416 330.224 115.273 329.749 115.273C329.42 115.273 329.124 115.342 328.863 115.482C328.604 115.621 328.4 115.824 328.249 116.091C328.102 116.358 328.028 116.682 328.028 117.062ZM334.845 121.068C334.635 121.068 334.454 120.993 334.304 120.842C334.153 120.692 334.078 120.511 334.078 120.301C334.078 120.091 334.153 119.911 334.304 119.76C334.454 119.609 334.635 119.534 334.845 119.534C335.055 119.534 335.235 119.609 335.386 119.76C335.537 119.911 335.612 120.091 335.612 120.301C335.612 120.44 335.576 120.568 335.505 120.685C335.437 120.801 335.345 120.895 335.228 120.966C335.115 121.034 334.987 121.068 334.845 121.068ZM334.845 116.21C334.635 116.21 334.454 116.135 334.304 115.984C334.153 115.834 334.078 115.653 334.078 115.443C334.078 115.233 334.153 115.053 334.304 114.902C334.454 114.751 334.635 114.676 334.845 114.676C335.055 114.676 335.235 114.751 335.386 114.902C335.537 115.053 335.612 115.233 335.612 115.443C335.612 115.582 335.576 115.71 335.505 115.827C335.437 115.943 335.345 116.037 335.228 116.108C335.115 116.176 334.987 116.21 334.845 116.21ZM275.057 136V127.273H276.114V131.159H280.767V127.273H281.824V136H280.767V132.097H276.114V136H275.057ZM283.462 128.21V127.273H290.008V128.21H287.263V136H286.207V128.21H283.462ZM291.639 127.273H292.9L295.866 134.517H295.968L298.934 127.273H300.196V136H299.207V129.369H299.122L296.395 136H295.44L292.713 129.369H292.627V136H291.639V127.273ZM302.315 136V127.273H303.371V135.062H307.428V136H302.315ZM282.08 145H281.023C280.96 144.696 280.851 144.429 280.695 144.199C280.541 143.969 280.354 143.776 280.132 143.619C279.913 143.46 279.67 143.341 279.403 143.261C279.136 143.182 278.858 143.142 278.568 143.142C278.04 143.142 277.561 143.276 277.132 143.543C276.706 143.81 276.366 144.203 276.114 144.723C275.864 145.243 275.739 145.881 275.739 146.636C275.739 147.392 275.864 148.03 276.114 148.55C276.366 149.07 276.706 149.463 277.132 149.73C277.561 149.997 278.04 150.131 278.568 150.131C278.858 150.131 279.136 150.091 279.403 150.011C279.67 149.932 279.913 149.814 280.132 149.658C280.354 149.499 280.541 149.304 280.695 149.074C280.851 148.841 280.96 148.574 281.023 148.273H282.08C282 148.719 281.855 149.118 281.645 149.47C281.435 149.822 281.173 150.122 280.861 150.369C280.548 150.614 280.197 150.8 279.808 150.928C279.422 151.055 279.009 151.119 278.568 151.119C277.824 151.119 277.162 150.938 276.582 150.574C276.003 150.21 275.547 149.693 275.214 149.023C274.882 148.352 274.716 147.557 274.716 146.636C274.716 145.716 274.882 144.92 275.214 144.25C275.547 143.58 276.003 143.062 276.582 142.699C277.162 142.335 277.824 142.153 278.568 142.153C279.009 142.153 279.422 142.217 279.808 142.345C280.197 142.473 280.548 142.661 280.861 142.908C281.173 143.152 281.435 143.45 281.645 143.803C281.855 144.152 282 144.551 282.08 145ZM288.56 144.455C288.509 144.023 288.301 143.688 287.938 143.449C287.574 143.21 287.128 143.091 286.6 143.091C286.213 143.091 285.875 143.153 285.586 143.278C285.299 143.403 285.074 143.575 284.912 143.794C284.753 144.013 284.674 144.261 284.674 144.54C284.674 144.773 284.729 144.973 284.84 145.141C284.953 145.305 285.098 145.443 285.275 145.554C285.451 145.662 285.635 145.751 285.828 145.822C286.022 145.891 286.199 145.946 286.361 145.989L287.248 146.227C287.475 146.287 287.728 146.369 288.006 146.474C288.287 146.58 288.556 146.723 288.811 146.905C289.07 147.084 289.283 147.314 289.451 147.595C289.618 147.876 289.702 148.222 289.702 148.631C289.702 149.102 289.578 149.528 289.331 149.909C289.087 150.29 288.729 150.592 288.257 150.817C287.789 151.041 287.219 151.153 286.549 151.153C285.924 151.153 285.382 151.053 284.925 150.851C284.471 150.649 284.113 150.368 283.851 150.007C283.593 149.646 283.446 149.227 283.412 148.75H284.503C284.532 149.08 284.642 149.352 284.836 149.568C285.032 149.781 285.279 149.94 285.577 150.045C285.878 150.148 286.202 150.199 286.549 150.199C286.952 150.199 287.314 150.134 287.635 150.003C287.956 149.869 288.211 149.685 288.398 149.449C288.586 149.21 288.679 148.932 288.679 148.614C288.679 148.324 288.598 148.088 288.436 147.906C288.275 147.724 288.061 147.577 287.797 147.463C287.533 147.349 287.248 147.25 286.941 147.165L285.867 146.858C285.185 146.662 284.645 146.382 284.248 146.018C283.85 145.655 283.651 145.179 283.651 144.591C283.651 144.102 283.783 143.676 284.047 143.312C284.314 142.946 284.672 142.662 285.121 142.46C285.573 142.256 286.077 142.153 286.634 142.153C287.196 142.153 287.696 142.254 288.134 142.456C288.571 142.655 288.918 142.928 289.174 143.274C289.432 143.621 289.569 144.014 289.583 144.455H288.56ZM296.212 144.455C296.161 144.023 295.954 143.688 295.59 143.449C295.227 143.21 294.781 143.091 294.252 143.091C293.866 143.091 293.528 143.153 293.238 143.278C292.951 143.403 292.727 143.575 292.565 143.794C292.406 144.013 292.326 144.261 292.326 144.54C292.326 144.773 292.381 144.973 292.492 145.141C292.606 145.305 292.751 145.443 292.927 145.554C293.103 145.662 293.288 145.751 293.481 145.822C293.674 145.891 293.852 145.946 294.013 145.989L294.9 146.227C295.127 146.287 295.38 146.369 295.658 146.474C295.94 146.58 296.208 146.723 296.464 146.905C296.722 147.084 296.935 147.314 297.103 147.595C297.271 147.876 297.354 148.222 297.354 148.631C297.354 149.102 297.231 149.528 296.984 149.909C296.739 150.29 296.381 150.592 295.91 150.817C295.441 151.041 294.871 151.153 294.201 151.153C293.576 151.153 293.035 151.053 292.577 150.851C292.123 150.649 291.765 150.368 291.504 150.007C291.245 149.646 291.099 149.227 291.065 148.75H292.156C292.184 149.08 292.295 149.352 292.488 149.568C292.684 149.781 292.931 149.94 293.229 150.045C293.531 150.148 293.854 150.199 294.201 150.199C294.604 150.199 294.967 150.134 295.288 150.003C295.609 149.869 295.863 149.685 296.05 149.449C296.238 149.21 296.332 148.932 296.332 148.614C296.332 148.324 296.251 148.088 296.089 147.906C295.927 147.724 295.714 147.577 295.45 147.463C295.185 147.349 294.9 147.25 294.593 147.165L293.519 146.858C292.837 146.662 292.298 146.382 291.9 146.018C291.502 145.655 291.303 145.179 291.303 144.591C291.303 144.102 291.435 143.676 291.7 143.312C291.967 142.946 292.325 142.662 292.773 142.46C293.225 142.256 293.729 142.153 294.286 142.153C294.849 142.153 295.349 142.254 295.786 142.456C296.224 142.655 296.57 142.928 296.826 143.274C297.085 143.621 297.221 144.014 297.235 144.455H296.212Z" fill="#FC684E"/>
<rect id="Rectangle 88" x="300" y="142" width="4" height="9" fill="#FC684E"/>
</g>
<g id="curtains">
<g id="dark">
<rect id="Rectangle 53" x="307" width="126.422" height="526.078" rx="32" fill="#920000"/>
<rect id="Rectangle 51" x="148" width="126.422" height="526.078" rx="32" fill="#920000"/>
<rect id="Rectangle 55" width="126.422" height="526.078" rx="32" fill="#920000"/>
</g>
<rect id="Rectangle 16" x="-0.125" y="13.5938" width="493.453" height="13.5938" rx="5" fill="#F7DF1E"/>
<g id="light">
<rect id="Rectangle 56" x="69" y="1" width="110" height="526" rx="36" fill="#B20000"/>
<rect id="Rectangle 56_2" x="236" width="110" height="526" rx="36" fill="#B20000"/>
<rect id="Rectangle 56_3" x="383" y="1" width="110" height="526" rx="36" fill="#B20000"/>
</g>
</g>
</g>
<defs>
<clipPath id="clip0_35_2">
<rect width="493" height="529" fill="white"/>
</clipPath>
</defs>
</svg>
